G04 #@! TF.GenerationSoftware,KiCad,Pcbnew,(5.1.4)-1*
G04 #@! TF.CreationDate,2019-08-25T22:56:09+01:00*
G04 #@! TF.ProjectId,pcb,7063622e-6b69-4636-9164-5f7063625858,rev?*
G04 #@! TF.SameCoordinates,Original*
G04 #@! TF.FileFunction,Copper,L2,Bot*
G04 #@! TF.FilePolarity,Positive*
%FSLAX46Y46*%
G04 Gerber Fmt 4.6, Leading zero omitted, Abs format (unit mm)*
G04 Created by KiCad (PCBNEW (5.1.4)-1) date 2019-08-25 22:56:09*
%MOMM*%
%LPD*%
G04 APERTURE LIST*
%ADD10R,2.000000X2.000000*%
%ADD11O,2.000000X2.000000*%
%ADD12R,1.752600X1.752600*%
%ADD13C,1.752600*%
%ADD14C,2.500000*%
%ADD15C,2.500000*%
%ADD16C,0.250000*%
G04 APERTURE END LIST*
D10*
X102870000Y-66675000D03*
D11*
X102870000Y-76835000D03*
X99060000Y-76835000D03*
D10*
X99060000Y-66675000D03*
X95250000Y-66675000D03*
D11*
X95250000Y-76835000D03*
D10*
X102870000Y-94615000D03*
D11*
X102870000Y-84455000D03*
X99060000Y-84455000D03*
D10*
X99060000Y-94615000D03*
D11*
X95250000Y-84455000D03*
D10*
X95250000Y-94615000D03*
D12*
X106680000Y-66675000D03*
D13*
X106680000Y-69215000D03*
X106680000Y-71755000D03*
X106680000Y-74295000D03*
X106680000Y-76835000D03*
X106680000Y-79375000D03*
X106680000Y-81915000D03*
X106680000Y-84455000D03*
X106680000Y-86995000D03*
X106680000Y-89535000D03*
X106680000Y-92075000D03*
X106680000Y-94615000D03*
X121920000Y-94615000D03*
X121920000Y-92075000D03*
X121920000Y-89535000D03*
X121920000Y-86995000D03*
X121920000Y-84455000D03*
X121920000Y-81915000D03*
X121920000Y-79375000D03*
X121920000Y-76835000D03*
X121920000Y-74295000D03*
X121920000Y-71755000D03*
X121920000Y-69215000D03*
X121920000Y-66675000D03*
D14*
X48240000Y-66330000D03*
D15*
X48259724Y-66040672D02*
X48220276Y-66619328D01*
D14*
X42315000Y-67850000D03*
D15*
X42720453Y-67120046D02*
X41909547Y-68579954D01*
D14*
X61365000Y-67850000D03*
D15*
X61770453Y-67120046D02*
X60959547Y-68579954D01*
D14*
X67290000Y-66330000D03*
D15*
X67309724Y-66040672D02*
X67270276Y-66619328D01*
D14*
X86340000Y-66330000D03*
D15*
X86359724Y-66040672D02*
X86320276Y-66619328D01*
D14*
X80415000Y-67850000D03*
D15*
X80820453Y-67120046D02*
X80009547Y-68579954D01*
D14*
X42315000Y-86900000D03*
D15*
X42720453Y-86170046D02*
X41909547Y-87629954D01*
D14*
X48240000Y-85380000D03*
D15*
X48259724Y-85090672D02*
X48220276Y-85669328D01*
D14*
X61365000Y-86900000D03*
D15*
X61770453Y-86170046D02*
X60959547Y-87629954D01*
D14*
X67290000Y-85380000D03*
D15*
X67309724Y-85090672D02*
X67270276Y-85669328D01*
D14*
X86340000Y-85380000D03*
D15*
X86359724Y-85090672D02*
X86320276Y-85669328D01*
D14*
X80415000Y-86900000D03*
D15*
X80820453Y-86170046D02*
X80009547Y-87629954D01*
D16*
X105803701Y-83578701D02*
X106680000Y-84455000D01*
X105478699Y-83253699D02*
X105803701Y-83578701D01*
X105478699Y-70533699D02*
X105478699Y-83253699D01*
X102870000Y-67925000D02*
X105478699Y-70533699D01*
X102870000Y-66675000D02*
X102870000Y-67925000D01*
X102870000Y-90805000D02*
X106680000Y-86995000D01*
X102870000Y-94615000D02*
X102870000Y-90805000D01*
X42315000Y-67850000D02*
X42315000Y-86900000D01*
X107556299Y-90411299D02*
X106680000Y-89535000D01*
X108331311Y-91186311D02*
X107556299Y-90411299D01*
X108331311Y-95378025D02*
X108331311Y-91186311D01*
X106869317Y-96840019D02*
X108331311Y-95378025D01*
X48919686Y-96840020D02*
X106869317Y-96840019D01*
X42315000Y-90235334D02*
X48919686Y-96840020D01*
X42315000Y-86900000D02*
X42315000Y-90235334D01*
X61365000Y-67850000D02*
X61365000Y-86900000D01*
X107556299Y-92951299D02*
X106680000Y-92075000D01*
X107881301Y-95191625D02*
X107881301Y-93276301D01*
X107881301Y-93276301D02*
X107556299Y-92951299D01*
X106682916Y-96390010D02*
X107881301Y-95191625D01*
X67558036Y-96390010D02*
X106682916Y-96390010D01*
X62451099Y-91283073D02*
X67558036Y-96390010D01*
X62451099Y-87986099D02*
X62451099Y-91283073D01*
X61365000Y-86900000D02*
X62451099Y-87986099D01*
X80415000Y-67850000D02*
X80415000Y-86900000D01*
X105803701Y-95491299D02*
X106680000Y-94615000D01*
X105354999Y-95940001D02*
X105803701Y-95491299D01*
X86158027Y-95940001D02*
X105354999Y-95940001D01*
X80415000Y-90196974D02*
X86158027Y-95940001D01*
X80415000Y-86900000D02*
X80415000Y-90196974D01*
M02*
