G04 #@! TF.GenerationSoftware,KiCad,Pcbnew,(5.1.4)-1*
G04 #@! TF.CreationDate,2019-08-25T22:56:09+01:00*
G04 #@! TF.ProjectId,pcb,7063622e-6b69-4636-9164-5f7063625858,rev?*
G04 #@! TF.SameCoordinates,Original*
G04 #@! TF.FileFunction,Legend,Top*
G04 #@! TF.FilePolarity,Positive*
%FSLAX46Y46*%
G04 Gerber Fmt 4.6, Leading zero omitted, Abs format (unit mm)*
G04 Created by KiCad (PCBNEW (5.1.4)-1) date 2019-08-25 22:56:09*
%MOMM*%
%LPD*%
G04 APERTURE LIST*
%ADD10C,0.150000*%
%ADD11C,0.120000*%
%ADD12C,0.200000*%
%ADD13C,0.381000*%
%ADD14C,0.203200*%
G04 APERTURE END LIST*
D10*
X130262380Y-84835476D02*
X130262380Y-84216428D01*
X130643333Y-84549761D01*
X130643333Y-84406904D01*
X130690952Y-84311666D01*
X130738571Y-84264047D01*
X130833809Y-84216428D01*
X131071904Y-84216428D01*
X131167142Y-84264047D01*
X131214761Y-84311666D01*
X131262380Y-84406904D01*
X131262380Y-84692619D01*
X131214761Y-84787857D01*
X131167142Y-84835476D01*
X131262380Y-83740238D02*
X131262380Y-83549761D01*
X131214761Y-83454523D01*
X131167142Y-83406904D01*
X131024285Y-83311666D01*
X130833809Y-83264047D01*
X130452857Y-83264047D01*
X130357619Y-83311666D01*
X130310000Y-83359285D01*
X130262380Y-83454523D01*
X130262380Y-83645000D01*
X130310000Y-83740238D01*
X130357619Y-83787857D01*
X130452857Y-83835476D01*
X130690952Y-83835476D01*
X130786190Y-83787857D01*
X130833809Y-83740238D01*
X130881428Y-83645000D01*
X130881428Y-83454523D01*
X130833809Y-83359285D01*
X130786190Y-83311666D01*
X130690952Y-83264047D01*
X131167142Y-82835476D02*
X131214761Y-82787857D01*
X131262380Y-82835476D01*
X131214761Y-82883095D01*
X131167142Y-82835476D01*
X131262380Y-82835476D01*
X130262380Y-82454523D02*
X130262380Y-81835476D01*
X130643333Y-82168809D01*
X130643333Y-82025952D01*
X130690952Y-81930714D01*
X130738571Y-81883095D01*
X130833809Y-81835476D01*
X131071904Y-81835476D01*
X131167142Y-81883095D01*
X131214761Y-81930714D01*
X131262380Y-82025952D01*
X131262380Y-82311666D01*
X131214761Y-82406904D01*
X131167142Y-82454523D01*
X130262380Y-81502142D02*
X130262380Y-80835476D01*
X131262380Y-81264047D01*
X130262380Y-80264047D02*
X130262380Y-80168809D01*
X130310000Y-80073571D01*
X130357619Y-80025952D01*
X130452857Y-79978333D01*
X130643333Y-79930714D01*
X130881428Y-79930714D01*
X131071904Y-79978333D01*
X131167142Y-80025952D01*
X131214761Y-80073571D01*
X131262380Y-80168809D01*
X131262380Y-80264047D01*
X131214761Y-80359285D01*
X131167142Y-80406904D01*
X131071904Y-80454523D01*
X130881428Y-80502142D01*
X130643333Y-80502142D01*
X130452857Y-80454523D01*
X130357619Y-80406904D01*
X130310000Y-80359285D01*
X130262380Y-80264047D01*
X131262380Y-78740238D02*
X130595714Y-78740238D01*
X130690952Y-78740238D02*
X130643333Y-78692619D01*
X130595714Y-78597380D01*
X130595714Y-78454523D01*
X130643333Y-78359285D01*
X130738571Y-78311666D01*
X131262380Y-78311666D01*
X130738571Y-78311666D02*
X130643333Y-78264047D01*
X130595714Y-78168809D01*
X130595714Y-78025952D01*
X130643333Y-77930714D01*
X130738571Y-77883095D01*
X131262380Y-77883095D01*
X131262380Y-77406904D02*
X130595714Y-77406904D01*
X130690952Y-77406904D02*
X130643333Y-77359285D01*
X130595714Y-77264047D01*
X130595714Y-77121190D01*
X130643333Y-77025952D01*
X130738571Y-76978333D01*
X131262380Y-76978333D01*
X130738571Y-76978333D02*
X130643333Y-76930714D01*
X130595714Y-76835476D01*
X130595714Y-76692619D01*
X130643333Y-76597380D01*
X130738571Y-76549761D01*
X131262380Y-76549761D01*
D11*
X129540000Y-100330000D02*
X129540000Y-60960000D01*
X124460000Y-100330000D02*
X130126421Y-100330000D01*
X124460000Y-60960000D02*
X130126421Y-60960000D01*
X129540000Y-60960000D02*
X130126421Y-62086504D01*
X129540000Y-60960000D02*
X128953579Y-62086504D01*
X129540000Y-100330000D02*
X130126421Y-99203496D01*
X129540000Y-100330000D02*
X128953579Y-99203496D01*
D10*
X76597380Y-56332380D02*
X76787857Y-56332380D01*
X76883095Y-56284761D01*
X76930714Y-56237142D01*
X77025952Y-56094285D01*
X77073571Y-55903809D01*
X77073571Y-55522857D01*
X77025952Y-55427619D01*
X76978333Y-55380000D01*
X76883095Y-55332380D01*
X76692619Y-55332380D01*
X76597380Y-55380000D01*
X76549761Y-55427619D01*
X76502142Y-55522857D01*
X76502142Y-55760952D01*
X76549761Y-55856190D01*
X76597380Y-55903809D01*
X76692619Y-55951428D01*
X76883095Y-55951428D01*
X76978333Y-55903809D01*
X77025952Y-55856190D01*
X77073571Y-55760952D01*
X77692619Y-55332380D02*
X77787857Y-55332380D01*
X77883095Y-55380000D01*
X77930714Y-55427619D01*
X77978333Y-55522857D01*
X78025952Y-55713333D01*
X78025952Y-55951428D01*
X77978333Y-56141904D01*
X77930714Y-56237142D01*
X77883095Y-56284761D01*
X77787857Y-56332380D01*
X77692619Y-56332380D01*
X77597380Y-56284761D01*
X77549761Y-56237142D01*
X77502142Y-56141904D01*
X77454523Y-55951428D01*
X77454523Y-55713333D01*
X77502142Y-55522857D01*
X77549761Y-55427619D01*
X77597380Y-55380000D01*
X77692619Y-55332380D01*
X78454523Y-56237142D02*
X78502142Y-56284761D01*
X78454523Y-56332380D01*
X78406904Y-56284761D01*
X78454523Y-56237142D01*
X78454523Y-56332380D01*
X79454523Y-56332380D02*
X78883095Y-56332380D01*
X79168809Y-56332380D02*
X79168809Y-55332380D01*
X79073571Y-55475238D01*
X78978333Y-55570476D01*
X78883095Y-55618095D01*
X79787857Y-55332380D02*
X80454523Y-55332380D01*
X80025952Y-56332380D01*
X81025952Y-55332380D02*
X81121190Y-55332380D01*
X81216428Y-55380000D01*
X81264047Y-55427619D01*
X81311666Y-55522857D01*
X81359285Y-55713333D01*
X81359285Y-55951428D01*
X81311666Y-56141904D01*
X81264047Y-56237142D01*
X81216428Y-56284761D01*
X81121190Y-56332380D01*
X81025952Y-56332380D01*
X80930714Y-56284761D01*
X80883095Y-56237142D01*
X80835476Y-56141904D01*
X80787857Y-55951428D01*
X80787857Y-55713333D01*
X80835476Y-55522857D01*
X80883095Y-55427619D01*
X80930714Y-55380000D01*
X81025952Y-55332380D01*
X82549761Y-56332380D02*
X82549761Y-55665714D01*
X82549761Y-55760952D02*
X82597380Y-55713333D01*
X82692619Y-55665714D01*
X82835476Y-55665714D01*
X82930714Y-55713333D01*
X82978333Y-55808571D01*
X82978333Y-56332380D01*
X82978333Y-55808571D02*
X83025952Y-55713333D01*
X83121190Y-55665714D01*
X83264047Y-55665714D01*
X83359285Y-55713333D01*
X83406904Y-55808571D01*
X83406904Y-56332380D01*
X83883095Y-56332380D02*
X83883095Y-55665714D01*
X83883095Y-55760952D02*
X83930714Y-55713333D01*
X84025952Y-55665714D01*
X84168809Y-55665714D01*
X84264047Y-55713333D01*
X84311666Y-55808571D01*
X84311666Y-56332380D01*
X84311666Y-55808571D02*
X84359285Y-55713333D01*
X84454523Y-55665714D01*
X84597380Y-55665714D01*
X84692619Y-55713333D01*
X84740238Y-55808571D01*
X84740238Y-56332380D01*
D11*
X125730000Y-57150000D02*
X35560000Y-57150000D01*
X125730000Y-62230000D02*
X125730000Y-56563579D01*
X35560000Y-62230000D02*
X35560000Y-56563579D01*
X35560000Y-57150000D02*
X36686504Y-56563579D01*
X35560000Y-57150000D02*
X36686504Y-57736421D01*
X125730000Y-57150000D02*
X124603496Y-56563579D01*
X125730000Y-57150000D02*
X124603496Y-57736421D01*
D12*
X110252380Y-66762380D02*
X110061904Y-66762380D01*
X109966666Y-66810000D01*
X109919047Y-66857619D01*
X109823809Y-67000476D01*
X109776190Y-67190952D01*
X109776190Y-67571904D01*
X109823809Y-67667142D01*
X109871428Y-67714761D01*
X109966666Y-67762380D01*
X110157142Y-67762380D01*
X110252380Y-67714761D01*
X110300000Y-67667142D01*
X110347619Y-67571904D01*
X110347619Y-67333809D01*
X110300000Y-67238571D01*
X110252380Y-67190952D01*
X110157142Y-67143333D01*
X109966666Y-67143333D01*
X109871428Y-67190952D01*
X109823809Y-67238571D01*
X109776190Y-67333809D01*
X111538095Y-67762380D02*
X111538095Y-66762380D01*
X112109523Y-67762380D02*
X111680952Y-67190952D01*
X112109523Y-66762380D02*
X111538095Y-67333809D01*
X112919047Y-67714761D02*
X112823809Y-67762380D01*
X112633333Y-67762380D01*
X112538095Y-67714761D01*
X112490476Y-67619523D01*
X112490476Y-67238571D01*
X112538095Y-67143333D01*
X112633333Y-67095714D01*
X112823809Y-67095714D01*
X112919047Y-67143333D01*
X112966666Y-67238571D01*
X112966666Y-67333809D01*
X112490476Y-67429047D01*
X113300000Y-67095714D02*
X113538095Y-67762380D01*
X113776190Y-67095714D02*
X113538095Y-67762380D01*
X113442857Y-68000476D01*
X113395238Y-68048095D01*
X113300000Y-68095714D01*
X115490476Y-67762380D02*
X115157142Y-67286190D01*
X114919047Y-67762380D02*
X114919047Y-66762380D01*
X115300000Y-66762380D01*
X115395238Y-66810000D01*
X115442857Y-66857619D01*
X115490476Y-66952857D01*
X115490476Y-67095714D01*
X115442857Y-67190952D01*
X115395238Y-67238571D01*
X115300000Y-67286190D01*
X114919047Y-67286190D01*
X116300000Y-67714761D02*
X116204761Y-67762380D01*
X116014285Y-67762380D01*
X115919047Y-67714761D01*
X115871428Y-67619523D01*
X115871428Y-67238571D01*
X115919047Y-67143333D01*
X116014285Y-67095714D01*
X116204761Y-67095714D01*
X116300000Y-67143333D01*
X116347619Y-67238571D01*
X116347619Y-67333809D01*
X115871428Y-67429047D01*
X116680952Y-67095714D02*
X116919047Y-67762380D01*
X117157142Y-67095714D01*
X118823809Y-67762380D02*
X118252380Y-67762380D01*
X118538095Y-67762380D02*
X118538095Y-66762380D01*
X118442857Y-66905238D01*
X118347619Y-67000476D01*
X118252380Y-67048095D01*
D11*
X104290000Y-70035000D02*
X101450000Y-70035000D01*
X101450000Y-70035000D02*
X101450000Y-73475000D01*
X101450000Y-73475000D02*
X104290000Y-73475000D01*
X104290000Y-73475000D02*
X104290000Y-70035000D01*
X102870000Y-67915000D02*
X102870000Y-70035000D01*
X102870000Y-75595000D02*
X102870000Y-73475000D01*
X104290000Y-70635000D02*
X101450000Y-70635000D01*
X104290000Y-70755000D02*
X101450000Y-70755000D01*
X104290000Y-70515000D02*
X101450000Y-70515000D01*
X100480000Y-70515000D02*
X97640000Y-70515000D01*
X100480000Y-70755000D02*
X97640000Y-70755000D01*
X100480000Y-70635000D02*
X97640000Y-70635000D01*
X99060000Y-75595000D02*
X99060000Y-73475000D01*
X99060000Y-67915000D02*
X99060000Y-70035000D01*
X100480000Y-73475000D02*
X100480000Y-70035000D01*
X97640000Y-73475000D02*
X100480000Y-73475000D01*
X97640000Y-70035000D02*
X97640000Y-73475000D01*
X100480000Y-70035000D02*
X97640000Y-70035000D01*
X96670000Y-70035000D02*
X93830000Y-70035000D01*
X93830000Y-70035000D02*
X93830000Y-73475000D01*
X93830000Y-73475000D02*
X96670000Y-73475000D01*
X96670000Y-73475000D02*
X96670000Y-70035000D01*
X95250000Y-67915000D02*
X95250000Y-70035000D01*
X95250000Y-75595000D02*
X95250000Y-73475000D01*
X96670000Y-70635000D02*
X93830000Y-70635000D01*
X96670000Y-70755000D02*
X93830000Y-70755000D01*
X96670000Y-70515000D02*
X93830000Y-70515000D01*
X101450000Y-91255000D02*
X104290000Y-91255000D01*
X104290000Y-91255000D02*
X104290000Y-87815000D01*
X104290000Y-87815000D02*
X101450000Y-87815000D01*
X101450000Y-87815000D02*
X101450000Y-91255000D01*
X102870000Y-93375000D02*
X102870000Y-91255000D01*
X102870000Y-85695000D02*
X102870000Y-87815000D01*
X101450000Y-90655000D02*
X104290000Y-90655000D01*
X101450000Y-90535000D02*
X104290000Y-90535000D01*
X101450000Y-90775000D02*
X104290000Y-90775000D01*
X97640000Y-90775000D02*
X100480000Y-90775000D01*
X97640000Y-90535000D02*
X100480000Y-90535000D01*
X97640000Y-90655000D02*
X100480000Y-90655000D01*
X99060000Y-85695000D02*
X99060000Y-87815000D01*
X99060000Y-93375000D02*
X99060000Y-91255000D01*
X97640000Y-87815000D02*
X97640000Y-91255000D01*
X100480000Y-87815000D02*
X97640000Y-87815000D01*
X100480000Y-91255000D02*
X100480000Y-87815000D01*
X97640000Y-91255000D02*
X100480000Y-91255000D01*
X93830000Y-90775000D02*
X96670000Y-90775000D01*
X93830000Y-90535000D02*
X96670000Y-90535000D01*
X93830000Y-90655000D02*
X96670000Y-90655000D01*
X95250000Y-85695000D02*
X95250000Y-87815000D01*
X95250000Y-93375000D02*
X95250000Y-91255000D01*
X93830000Y-87815000D02*
X93830000Y-91255000D01*
X96670000Y-87815000D02*
X93830000Y-87815000D01*
X96670000Y-91255000D02*
X96670000Y-87815000D01*
X93830000Y-91255000D02*
X96670000Y-91255000D01*
D13*
X123190000Y-65405000D02*
X105410000Y-65405000D01*
X105410000Y-65405000D02*
X105410000Y-95885000D01*
X105410000Y-95885000D02*
X123190000Y-95885000D01*
X123190000Y-95885000D02*
X123190000Y-65405000D01*
X107950000Y-65405000D02*
X107950000Y-67945000D01*
X107950000Y-67945000D02*
X105410000Y-67945000D01*
X39370000Y-66548000D02*
X39370000Y-64770000D01*
X39370000Y-77470000D02*
X39370000Y-75692000D01*
X41148000Y-77470000D02*
X39370000Y-77470000D01*
X52070000Y-77470000D02*
X50292000Y-77470000D01*
X52070000Y-75692000D02*
X52070000Y-77470000D01*
X52070000Y-64770000D02*
X52070000Y-66548000D01*
X50292000Y-64770000D02*
X52070000Y-64770000D01*
X39370000Y-64770000D02*
X41148000Y-64770000D01*
X58420000Y-64770000D02*
X60198000Y-64770000D01*
X69342000Y-64770000D02*
X71120000Y-64770000D01*
X71120000Y-64770000D02*
X71120000Y-66548000D01*
X71120000Y-75692000D02*
X71120000Y-77470000D01*
X71120000Y-77470000D02*
X69342000Y-77470000D01*
X60198000Y-77470000D02*
X58420000Y-77470000D01*
X58420000Y-77470000D02*
X58420000Y-75692000D01*
X58420000Y-66548000D02*
X58420000Y-64770000D01*
X77470000Y-66548000D02*
X77470000Y-64770000D01*
X77470000Y-77470000D02*
X77470000Y-75692000D01*
X79248000Y-77470000D02*
X77470000Y-77470000D01*
X90170000Y-77470000D02*
X88392000Y-77470000D01*
X90170000Y-75692000D02*
X90170000Y-77470000D01*
X90170000Y-64770000D02*
X90170000Y-66548000D01*
X88392000Y-64770000D02*
X90170000Y-64770000D01*
X77470000Y-64770000D02*
X79248000Y-64770000D01*
X39370000Y-83820000D02*
X41148000Y-83820000D01*
X50292000Y-83820000D02*
X52070000Y-83820000D01*
X52070000Y-83820000D02*
X52070000Y-85598000D01*
X52070000Y-94742000D02*
X52070000Y-96520000D01*
X52070000Y-96520000D02*
X50292000Y-96520000D01*
X41148000Y-96520000D02*
X39370000Y-96520000D01*
X39370000Y-96520000D02*
X39370000Y-94742000D01*
X39370000Y-85598000D02*
X39370000Y-83820000D01*
X58420000Y-83820000D02*
X60198000Y-83820000D01*
X69342000Y-83820000D02*
X71120000Y-83820000D01*
X71120000Y-83820000D02*
X71120000Y-85598000D01*
X71120000Y-94742000D02*
X71120000Y-96520000D01*
X71120000Y-96520000D02*
X69342000Y-96520000D01*
X60198000Y-96520000D02*
X58420000Y-96520000D01*
X58420000Y-96520000D02*
X58420000Y-94742000D01*
X58420000Y-85598000D02*
X58420000Y-83820000D01*
X77470000Y-85598000D02*
X77470000Y-83820000D01*
X77470000Y-96520000D02*
X77470000Y-94742000D01*
X79248000Y-96520000D02*
X77470000Y-96520000D01*
X90170000Y-96520000D02*
X88392000Y-96520000D01*
X90170000Y-94742000D02*
X90170000Y-96520000D01*
X90170000Y-83820000D02*
X90170000Y-85598000D01*
X88392000Y-83820000D02*
X90170000Y-83820000D01*
X77470000Y-83820000D02*
X79248000Y-83820000D01*
D10*
X103322380Y-72493095D02*
X102322380Y-72493095D01*
X102322380Y-72255000D01*
X102370000Y-72112142D01*
X102465238Y-72016904D01*
X102560476Y-71969285D01*
X102750952Y-71921666D01*
X102893809Y-71921666D01*
X103084285Y-71969285D01*
X103179523Y-72016904D01*
X103274761Y-72112142D01*
X103322380Y-72255000D01*
X103322380Y-72493095D01*
X102322380Y-71302619D02*
X102322380Y-71207380D01*
X102370000Y-71112142D01*
X102417619Y-71064523D01*
X102512857Y-71016904D01*
X102703333Y-70969285D01*
X102941428Y-70969285D01*
X103131904Y-71016904D01*
X103227142Y-71064523D01*
X103274761Y-71112142D01*
X103322380Y-71207380D01*
X103322380Y-71302619D01*
X103274761Y-71397857D01*
X103227142Y-71445476D01*
X103131904Y-71493095D01*
X102941428Y-71540714D01*
X102703333Y-71540714D01*
X102512857Y-71493095D01*
X102417619Y-71445476D01*
X102370000Y-71397857D01*
X102322380Y-71302619D01*
X105322380Y-66936904D02*
X104322380Y-66936904D01*
X105322380Y-66365476D02*
X104750952Y-66794047D01*
X104322380Y-66365476D02*
X104893809Y-66936904D01*
X99512380Y-72493095D02*
X98512380Y-72493095D01*
X98512380Y-72255000D01*
X98560000Y-72112142D01*
X98655238Y-72016904D01*
X98750476Y-71969285D01*
X98940952Y-71921666D01*
X99083809Y-71921666D01*
X99274285Y-71969285D01*
X99369523Y-72016904D01*
X99464761Y-72112142D01*
X99512380Y-72255000D01*
X99512380Y-72493095D01*
X99512380Y-70969285D02*
X99512380Y-71540714D01*
X99512380Y-71255000D02*
X98512380Y-71255000D01*
X98655238Y-71350238D01*
X98750476Y-71445476D01*
X98798095Y-71540714D01*
X101512380Y-66936904D02*
X100512380Y-66936904D01*
X101512380Y-66365476D02*
X100940952Y-66794047D01*
X100512380Y-66365476D02*
X101083809Y-66936904D01*
X95702380Y-72493095D02*
X94702380Y-72493095D01*
X94702380Y-72255000D01*
X94750000Y-72112142D01*
X94845238Y-72016904D01*
X94940476Y-71969285D01*
X95130952Y-71921666D01*
X95273809Y-71921666D01*
X95464285Y-71969285D01*
X95559523Y-72016904D01*
X95654761Y-72112142D01*
X95702380Y-72255000D01*
X95702380Y-72493095D01*
X94797619Y-71540714D02*
X94750000Y-71493095D01*
X94702380Y-71397857D01*
X94702380Y-71159761D01*
X94750000Y-71064523D01*
X94797619Y-71016904D01*
X94892857Y-70969285D01*
X94988095Y-70969285D01*
X95130952Y-71016904D01*
X95702380Y-71588333D01*
X95702380Y-70969285D01*
X97702380Y-66936904D02*
X96702380Y-66936904D01*
X97702380Y-66365476D02*
X97130952Y-66794047D01*
X96702380Y-66365476D02*
X97273809Y-66936904D01*
X103322380Y-90273095D02*
X102322380Y-90273095D01*
X102322380Y-90035000D01*
X102370000Y-89892142D01*
X102465238Y-89796904D01*
X102560476Y-89749285D01*
X102750952Y-89701666D01*
X102893809Y-89701666D01*
X103084285Y-89749285D01*
X103179523Y-89796904D01*
X103274761Y-89892142D01*
X103322380Y-90035000D01*
X103322380Y-90273095D01*
X102322380Y-89368333D02*
X102322380Y-88749285D01*
X102703333Y-89082619D01*
X102703333Y-88939761D01*
X102750952Y-88844523D01*
X102798571Y-88796904D01*
X102893809Y-88749285D01*
X103131904Y-88749285D01*
X103227142Y-88796904D01*
X103274761Y-88844523D01*
X103322380Y-88939761D01*
X103322380Y-89225476D01*
X103274761Y-89320714D01*
X103227142Y-89368333D01*
X101322380Y-94876904D02*
X100322380Y-94876904D01*
X101322380Y-94305476D02*
X100750952Y-94734047D01*
X100322380Y-94305476D02*
X100893809Y-94876904D01*
X99512380Y-90273095D02*
X98512380Y-90273095D01*
X98512380Y-90035000D01*
X98560000Y-89892142D01*
X98655238Y-89796904D01*
X98750476Y-89749285D01*
X98940952Y-89701666D01*
X99083809Y-89701666D01*
X99274285Y-89749285D01*
X99369523Y-89796904D01*
X99464761Y-89892142D01*
X99512380Y-90035000D01*
X99512380Y-90273095D01*
X98845714Y-88844523D02*
X99512380Y-88844523D01*
X98464761Y-89082619D02*
X99179047Y-89320714D01*
X99179047Y-88701666D01*
X97512380Y-94876904D02*
X96512380Y-94876904D01*
X97512380Y-94305476D02*
X96940952Y-94734047D01*
X96512380Y-94305476D02*
X97083809Y-94876904D01*
X95702380Y-90273095D02*
X94702380Y-90273095D01*
X94702380Y-90035000D01*
X94750000Y-89892142D01*
X94845238Y-89796904D01*
X94940476Y-89749285D01*
X95130952Y-89701666D01*
X95273809Y-89701666D01*
X95464285Y-89749285D01*
X95559523Y-89796904D01*
X95654761Y-89892142D01*
X95702380Y-90035000D01*
X95702380Y-90273095D01*
X94702380Y-88796904D02*
X94702380Y-89273095D01*
X95178571Y-89320714D01*
X95130952Y-89273095D01*
X95083333Y-89177857D01*
X95083333Y-88939761D01*
X95130952Y-88844523D01*
X95178571Y-88796904D01*
X95273809Y-88749285D01*
X95511904Y-88749285D01*
X95607142Y-88796904D01*
X95654761Y-88844523D01*
X95702380Y-88939761D01*
X95702380Y-89177857D01*
X95654761Y-89273095D01*
X95607142Y-89320714D01*
X93702380Y-94876904D02*
X92702380Y-94876904D01*
X93702380Y-94305476D02*
X93130952Y-94734047D01*
X92702380Y-94305476D02*
X93273809Y-94876904D01*
D14*
X113604523Y-81806142D02*
X114632619Y-81806142D01*
X114753571Y-81733571D01*
X114814047Y-81661000D01*
X114874523Y-81515857D01*
X114874523Y-81225571D01*
X114814047Y-81080428D01*
X114753571Y-81007857D01*
X114632619Y-80935285D01*
X113604523Y-80935285D01*
X114874523Y-79411285D02*
X114874523Y-80282142D01*
X114874523Y-79846714D02*
X113604523Y-79846714D01*
X113785952Y-79991857D01*
X113906904Y-80137000D01*
X113967380Y-80282142D01*
M02*
