M48
; DRILL file {KiCad (5.1.4)-1} date 25/08/2019 22:56:58
; FORMAT={-:-/ absolute / metric / decimal}
; #@! TF.CreationDate,2019-08-25T22:56:58+01:00
; #@! TF.GenerationSoftware,Kicad,Pcbnew,(5.1.4)-1
FMAT,2
METRIC
T1C1.000
T2C1.092
T3C1.500
T4C1.702
T5C3.988
%
G90
G05
T1
X99.06Y-84.455
X95.25Y-66.675
X102.87Y-84.455
X102.87Y-94.615
X95.25Y-84.455
X95.25Y-94.615
X102.87Y-66.675
X102.87Y-76.835
X99.06Y-94.615
X99.06Y-66.675
X99.06Y-76.835
X95.25Y-76.835
T2
X106.68Y-66.675
X106.68Y-69.215
X106.68Y-71.755
X106.68Y-74.295
X106.68Y-76.835
X106.68Y-79.375
X106.68Y-81.915
X106.68Y-84.455
X106.68Y-86.995
X106.68Y-89.535
X106.68Y-92.075
X106.68Y-94.615
X121.92Y-66.675
X121.92Y-69.215
X121.92Y-71.755
X121.92Y-74.295
X121.92Y-76.835
X121.92Y-79.375
X121.92Y-81.915
X121.92Y-84.455
X121.92Y-86.995
X121.92Y-89.535
X121.92Y-92.075
X121.92Y-94.615
T4
X78.74Y-90.17
X88.9Y-90.17
X59.69Y-71.12
X69.85Y-71.12
X78.74Y-71.12
X88.9Y-71.12
X40.64Y-71.12
X50.8Y-71.12
X40.64Y-90.17
X50.8Y-90.17
X59.69Y-90.17
X69.85Y-90.17
T5
X83.82Y-90.17
X64.77Y-71.12
X83.82Y-71.12
X45.72Y-71.12
X45.72Y-90.17
X64.77Y-90.17
T3
G00X80.82Y-86.17
M15
G01X80.01Y-87.63
M16
G05
G00X86.36Y-85.091
M15
G01X86.32Y-85.669
M16
G05
G00X61.77Y-67.12
M15
G01X60.96Y-68.58
M16
G05
G00X67.31Y-66.041
M15
G01X67.27Y-66.619
M16
G05
G00X80.82Y-67.12
M15
G01X80.01Y-68.58
M16
G05
G00X86.36Y-66.041
M15
G01X86.32Y-66.619
M16
G05
G00X42.72Y-67.12
M15
G01X41.91Y-68.58
M16
G05
G00X48.26Y-66.041
M15
G01X48.22Y-66.619
M16
G05
G00X42.72Y-86.17
M15
G01X41.91Y-87.63
M16
G05
G00X48.26Y-85.091
M15
G01X48.22Y-85.669
M16
G05
G00X61.77Y-86.17
M15
G01X60.96Y-87.63
M16
G05
G00X67.31Y-85.091
M15
G01X67.27Y-85.669
M16
G05
T0
M30
