G04 #@! TF.GenerationSoftware,KiCad,Pcbnew,(5.1.4)-1*
G04 #@! TF.CreationDate,2019-10-31T20:11:05+00:00*
G04 #@! TF.ProjectId,rgb,7267622e-6b69-4636-9164-5f7063625858,rev?*
G04 #@! TF.SameCoordinates,Original*
G04 #@! TF.FileFunction,Legend,Top*
G04 #@! TF.FilePolarity,Positive*
%FSLAX46Y46*%
G04 Gerber Fmt 4.6, Leading zero omitted, Abs format (unit mm)*
G04 Created by KiCad (PCBNEW (5.1.4)-1) date 2019-10-31 20:11:05*
%MOMM*%
%LPD*%
G04 APERTURE LIST*
%ADD10C,0.150000*%
%ADD11C,0.120000*%
%ADD12C,0.381000*%
%ADD13C,0.203200*%
G04 APERTURE END LIST*
D10*
X28487619Y-76454523D02*
X28487619Y-77073571D01*
X28106666Y-76740238D01*
X28106666Y-76883095D01*
X28059047Y-76978333D01*
X28011428Y-77025952D01*
X27916190Y-77073571D01*
X27678095Y-77073571D01*
X27582857Y-77025952D01*
X27535238Y-76978333D01*
X27487619Y-76883095D01*
X27487619Y-76597380D01*
X27535238Y-76502142D01*
X27582857Y-76454523D01*
X27487619Y-77549761D02*
X27487619Y-77740238D01*
X27535238Y-77835476D01*
X27582857Y-77883095D01*
X27725714Y-77978333D01*
X27916190Y-78025952D01*
X28297142Y-78025952D01*
X28392380Y-77978333D01*
X28440000Y-77930714D01*
X28487619Y-77835476D01*
X28487619Y-77645000D01*
X28440000Y-77549761D01*
X28392380Y-77502142D01*
X28297142Y-77454523D01*
X28059047Y-77454523D01*
X27963809Y-77502142D01*
X27916190Y-77549761D01*
X27868571Y-77645000D01*
X27868571Y-77835476D01*
X27916190Y-77930714D01*
X27963809Y-77978333D01*
X28059047Y-78025952D01*
X27582857Y-78454523D02*
X27535238Y-78502142D01*
X27487619Y-78454523D01*
X27535238Y-78406904D01*
X27582857Y-78454523D01*
X27487619Y-78454523D01*
X28487619Y-78835476D02*
X28487619Y-79454523D01*
X28106666Y-79121190D01*
X28106666Y-79264047D01*
X28059047Y-79359285D01*
X28011428Y-79406904D01*
X27916190Y-79454523D01*
X27678095Y-79454523D01*
X27582857Y-79406904D01*
X27535238Y-79359285D01*
X27487619Y-79264047D01*
X27487619Y-78978333D01*
X27535238Y-78883095D01*
X27582857Y-78835476D01*
X28487619Y-79787857D02*
X28487619Y-80454523D01*
X27487619Y-80025952D01*
X28487619Y-81025952D02*
X28487619Y-81121190D01*
X28440000Y-81216428D01*
X28392380Y-81264047D01*
X28297142Y-81311666D01*
X28106666Y-81359285D01*
X27868571Y-81359285D01*
X27678095Y-81311666D01*
X27582857Y-81264047D01*
X27535238Y-81216428D01*
X27487619Y-81121190D01*
X27487619Y-81025952D01*
X27535238Y-80930714D01*
X27582857Y-80883095D01*
X27678095Y-80835476D01*
X27868571Y-80787857D01*
X28106666Y-80787857D01*
X28297142Y-80835476D01*
X28392380Y-80883095D01*
X28440000Y-80930714D01*
X28487619Y-81025952D01*
X27487619Y-82549761D02*
X28154285Y-82549761D01*
X28059047Y-82549761D02*
X28106666Y-82597380D01*
X28154285Y-82692619D01*
X28154285Y-82835476D01*
X28106666Y-82930714D01*
X28011428Y-82978333D01*
X27487619Y-82978333D01*
X28011428Y-82978333D02*
X28106666Y-83025952D01*
X28154285Y-83121190D01*
X28154285Y-83264047D01*
X28106666Y-83359285D01*
X28011428Y-83406904D01*
X27487619Y-83406904D01*
X27487619Y-83883095D02*
X28154285Y-83883095D01*
X28059047Y-83883095D02*
X28106666Y-83930714D01*
X28154285Y-84025952D01*
X28154285Y-84168809D01*
X28106666Y-84264047D01*
X28011428Y-84311666D01*
X27487619Y-84311666D01*
X28011428Y-84311666D02*
X28106666Y-84359285D01*
X28154285Y-84454523D01*
X28154285Y-84597380D01*
X28106666Y-84692619D01*
X28011428Y-84740238D01*
X27487619Y-84740238D01*
D11*
X29210000Y-60960000D02*
X29210000Y-100330000D01*
X35560000Y-60960000D02*
X28623579Y-60960000D01*
X35560000Y-100330000D02*
X28623579Y-100330000D01*
X29210000Y-100330000D02*
X28623579Y-99203496D01*
X29210000Y-100330000D02*
X29796421Y-99203496D01*
X29210000Y-60960000D02*
X28623579Y-62086504D01*
X29210000Y-60960000D02*
X29796421Y-62086504D01*
D10*
X70739523Y-50252380D02*
X71406190Y-50252380D01*
X70977619Y-51252380D01*
X71930000Y-50680952D02*
X71834761Y-50633333D01*
X71787142Y-50585714D01*
X71739523Y-50490476D01*
X71739523Y-50442857D01*
X71787142Y-50347619D01*
X71834761Y-50300000D01*
X71930000Y-50252380D01*
X72120476Y-50252380D01*
X72215714Y-50300000D01*
X72263333Y-50347619D01*
X72310952Y-50442857D01*
X72310952Y-50490476D01*
X72263333Y-50585714D01*
X72215714Y-50633333D01*
X72120476Y-50680952D01*
X71930000Y-50680952D01*
X71834761Y-50728571D01*
X71787142Y-50776190D01*
X71739523Y-50871428D01*
X71739523Y-51061904D01*
X71787142Y-51157142D01*
X71834761Y-51204761D01*
X71930000Y-51252380D01*
X72120476Y-51252380D01*
X72215714Y-51204761D01*
X72263333Y-51157142D01*
X72310952Y-51061904D01*
X72310952Y-50871428D01*
X72263333Y-50776190D01*
X72215714Y-50728571D01*
X72120476Y-50680952D01*
X72739523Y-51157142D02*
X72787142Y-51204761D01*
X72739523Y-51252380D01*
X72691904Y-51204761D01*
X72739523Y-51157142D01*
X72739523Y-51252380D01*
X73120476Y-50252380D02*
X73787142Y-50252380D01*
X73358571Y-51252380D01*
X74596666Y-50585714D02*
X74596666Y-51252380D01*
X74358571Y-50204761D02*
X74120476Y-50919047D01*
X74739523Y-50919047D01*
X75310952Y-50252380D02*
X75406190Y-50252380D01*
X75501428Y-50300000D01*
X75549047Y-50347619D01*
X75596666Y-50442857D01*
X75644285Y-50633333D01*
X75644285Y-50871428D01*
X75596666Y-51061904D01*
X75549047Y-51157142D01*
X75501428Y-51204761D01*
X75406190Y-51252380D01*
X75310952Y-51252380D01*
X75215714Y-51204761D01*
X75168095Y-51157142D01*
X75120476Y-51061904D01*
X75072857Y-50871428D01*
X75072857Y-50633333D01*
X75120476Y-50442857D01*
X75168095Y-50347619D01*
X75215714Y-50300000D01*
X75310952Y-50252380D01*
X76834761Y-51252380D02*
X76834761Y-50585714D01*
X76834761Y-50680952D02*
X76882380Y-50633333D01*
X76977619Y-50585714D01*
X77120476Y-50585714D01*
X77215714Y-50633333D01*
X77263333Y-50728571D01*
X77263333Y-51252380D01*
X77263333Y-50728571D02*
X77310952Y-50633333D01*
X77406190Y-50585714D01*
X77549047Y-50585714D01*
X77644285Y-50633333D01*
X77691904Y-50728571D01*
X77691904Y-51252380D01*
X78168095Y-51252380D02*
X78168095Y-50585714D01*
X78168095Y-50680952D02*
X78215714Y-50633333D01*
X78310952Y-50585714D01*
X78453809Y-50585714D01*
X78549047Y-50633333D01*
X78596666Y-50728571D01*
X78596666Y-51252380D01*
X78596666Y-50728571D02*
X78644285Y-50633333D01*
X78739523Y-50585714D01*
X78882380Y-50585714D01*
X78977619Y-50633333D01*
X79025238Y-50728571D01*
X79025238Y-51252380D01*
D11*
X35560000Y-52070000D02*
X114300000Y-52070000D01*
X35560000Y-60960000D02*
X35560000Y-51483579D01*
X114300000Y-60960000D02*
X114300000Y-51483579D01*
X114300000Y-52070000D02*
X113173496Y-52656421D01*
X114300000Y-52070000D02*
X113173496Y-51483579D01*
X35560000Y-52070000D02*
X36686504Y-52656421D01*
X35560000Y-52070000D02*
X36686504Y-51483579D01*
X76835000Y-78105000D02*
X76835000Y-64135000D01*
X90805000Y-78105000D02*
X76835000Y-78105000D01*
X90805000Y-64135000D02*
X90805000Y-78105000D01*
X76835000Y-64135000D02*
X90805000Y-64135000D01*
D12*
X113030000Y-62230000D02*
X95250000Y-62230000D01*
X95250000Y-62230000D02*
X95250000Y-92710000D01*
X95250000Y-92710000D02*
X113030000Y-92710000D01*
X113030000Y-92710000D02*
X113030000Y-62230000D01*
X97790000Y-62230000D02*
X97790000Y-64770000D01*
X97790000Y-64770000D02*
X95250000Y-64770000D01*
D11*
X76835000Y-97155000D02*
X76835000Y-83185000D01*
X90805000Y-97155000D02*
X76835000Y-97155000D01*
X90805000Y-83185000D02*
X90805000Y-97155000D01*
X76835000Y-83185000D02*
X90805000Y-83185000D01*
X57785000Y-97155000D02*
X57785000Y-83185000D01*
X71755000Y-97155000D02*
X57785000Y-97155000D01*
X71755000Y-83185000D02*
X71755000Y-97155000D01*
X57785000Y-83185000D02*
X71755000Y-83185000D01*
X38735000Y-97155000D02*
X38735000Y-83185000D01*
X52705000Y-97155000D02*
X38735000Y-97155000D01*
X52705000Y-83185000D02*
X52705000Y-97155000D01*
X38735000Y-83185000D02*
X52705000Y-83185000D01*
X57785000Y-78105000D02*
X57785000Y-64135000D01*
X71755000Y-78105000D02*
X57785000Y-78105000D01*
X71755000Y-64135000D02*
X71755000Y-78105000D01*
X57785000Y-64135000D02*
X71755000Y-64135000D01*
X38735000Y-78105000D02*
X38735000Y-64135000D01*
X52705000Y-78105000D02*
X38735000Y-78105000D01*
X52705000Y-64135000D02*
X52705000Y-78105000D01*
X38735000Y-64135000D02*
X52705000Y-64135000D01*
X102168478Y-98358478D02*
G75*
G03X100330000Y-93920000I-1838478J1838478D01*
G01*
X98491522Y-98358478D02*
G75*
G02X100330000Y-93920000I1838478J1838478D01*
G01*
X98530000Y-98370000D02*
X102130000Y-98370000D01*
X109788478Y-98358478D02*
G75*
G03X107950000Y-93920000I-1838478J1838478D01*
G01*
X106111522Y-98358478D02*
G75*
G02X107950000Y-93920000I1838478J1838478D01*
G01*
X106150000Y-98370000D02*
X109750000Y-98370000D01*
D10*
X83081904Y-66492380D02*
X83081904Y-65492380D01*
X83653333Y-66492380D02*
X83224761Y-65920952D01*
X83653333Y-65492380D02*
X83081904Y-66063809D01*
X84558095Y-65492380D02*
X84081904Y-65492380D01*
X84034285Y-65968571D01*
X84081904Y-65920952D01*
X84177142Y-65873333D01*
X84415238Y-65873333D01*
X84510476Y-65920952D01*
X84558095Y-65968571D01*
X84605714Y-66063809D01*
X84605714Y-66301904D01*
X84558095Y-66397142D01*
X84510476Y-66444761D01*
X84415238Y-66492380D01*
X84177142Y-66492380D01*
X84081904Y-66444761D01*
X84034285Y-66397142D01*
D13*
X103444523Y-78631142D02*
X104472619Y-78631142D01*
X104593571Y-78558571D01*
X104654047Y-78486000D01*
X104714523Y-78340857D01*
X104714523Y-78050571D01*
X104654047Y-77905428D01*
X104593571Y-77832857D01*
X104472619Y-77760285D01*
X103444523Y-77760285D01*
X104714523Y-76236285D02*
X104714523Y-77107142D01*
X104714523Y-76671714D02*
X103444523Y-76671714D01*
X103625952Y-76816857D01*
X103746904Y-76962000D01*
X103807380Y-77107142D01*
D10*
X83081904Y-85542380D02*
X83081904Y-84542380D01*
X83653333Y-85542380D02*
X83224761Y-84970952D01*
X83653333Y-84542380D02*
X83081904Y-85113809D01*
X84510476Y-84542380D02*
X84320000Y-84542380D01*
X84224761Y-84590000D01*
X84177142Y-84637619D01*
X84081904Y-84780476D01*
X84034285Y-84970952D01*
X84034285Y-85351904D01*
X84081904Y-85447142D01*
X84129523Y-85494761D01*
X84224761Y-85542380D01*
X84415238Y-85542380D01*
X84510476Y-85494761D01*
X84558095Y-85447142D01*
X84605714Y-85351904D01*
X84605714Y-85113809D01*
X84558095Y-85018571D01*
X84510476Y-84970952D01*
X84415238Y-84923333D01*
X84224761Y-84923333D01*
X84129523Y-84970952D01*
X84081904Y-85018571D01*
X84034285Y-85113809D01*
X64031904Y-85542380D02*
X64031904Y-84542380D01*
X64603333Y-85542380D02*
X64174761Y-84970952D01*
X64603333Y-84542380D02*
X64031904Y-85113809D01*
X65460476Y-84875714D02*
X65460476Y-85542380D01*
X65222380Y-84494761D02*
X64984285Y-85209047D01*
X65603333Y-85209047D01*
X44981904Y-85542380D02*
X44981904Y-84542380D01*
X45553333Y-85542380D02*
X45124761Y-84970952D01*
X45553333Y-84542380D02*
X44981904Y-85113809D01*
X45934285Y-84637619D02*
X45981904Y-84590000D01*
X46077142Y-84542380D01*
X46315238Y-84542380D01*
X46410476Y-84590000D01*
X46458095Y-84637619D01*
X46505714Y-84732857D01*
X46505714Y-84828095D01*
X46458095Y-84970952D01*
X45886666Y-85542380D01*
X46505714Y-85542380D01*
X64031904Y-66492380D02*
X64031904Y-65492380D01*
X64603333Y-66492380D02*
X64174761Y-65920952D01*
X64603333Y-65492380D02*
X64031904Y-66063809D01*
X64936666Y-65492380D02*
X65555714Y-65492380D01*
X65222380Y-65873333D01*
X65365238Y-65873333D01*
X65460476Y-65920952D01*
X65508095Y-65968571D01*
X65555714Y-66063809D01*
X65555714Y-66301904D01*
X65508095Y-66397142D01*
X65460476Y-66444761D01*
X65365238Y-66492380D01*
X65079523Y-66492380D01*
X64984285Y-66444761D01*
X64936666Y-66397142D01*
X44981904Y-66492380D02*
X44981904Y-65492380D01*
X45553333Y-66492380D02*
X45124761Y-65920952D01*
X45553333Y-65492380D02*
X44981904Y-66063809D01*
X46505714Y-66492380D02*
X45934285Y-66492380D01*
X46220000Y-66492380D02*
X46220000Y-65492380D01*
X46124761Y-65635238D01*
X46029523Y-65730476D01*
X45934285Y-65778095D01*
X100234761Y-95162619D02*
X100139523Y-95115000D01*
X100044285Y-95019761D01*
X99901428Y-94876904D01*
X99806190Y-94829285D01*
X99710952Y-94829285D01*
X99758571Y-95067380D02*
X99663333Y-95019761D01*
X99568095Y-94924523D01*
X99520476Y-94734047D01*
X99520476Y-94400714D01*
X99568095Y-94210238D01*
X99663333Y-94115000D01*
X99758571Y-94067380D01*
X99949047Y-94067380D01*
X100044285Y-94115000D01*
X100139523Y-94210238D01*
X100187142Y-94400714D01*
X100187142Y-94734047D01*
X100139523Y-94924523D01*
X100044285Y-95019761D01*
X99949047Y-95067380D01*
X99758571Y-95067380D01*
X101139523Y-95067380D02*
X100568095Y-95067380D01*
X100853809Y-95067380D02*
X100853809Y-94067380D01*
X100758571Y-94210238D01*
X100663333Y-94305476D01*
X100568095Y-94353095D01*
X107854761Y-95162619D02*
X107759523Y-95115000D01*
X107664285Y-95019761D01*
X107521428Y-94876904D01*
X107426190Y-94829285D01*
X107330952Y-94829285D01*
X107378571Y-95067380D02*
X107283333Y-95019761D01*
X107188095Y-94924523D01*
X107140476Y-94734047D01*
X107140476Y-94400714D01*
X107188095Y-94210238D01*
X107283333Y-94115000D01*
X107378571Y-94067380D01*
X107569047Y-94067380D01*
X107664285Y-94115000D01*
X107759523Y-94210238D01*
X107807142Y-94400714D01*
X107807142Y-94734047D01*
X107759523Y-94924523D01*
X107664285Y-95019761D01*
X107569047Y-95067380D01*
X107378571Y-95067380D01*
X108188095Y-94162619D02*
X108235714Y-94115000D01*
X108330952Y-94067380D01*
X108569047Y-94067380D01*
X108664285Y-94115000D01*
X108711904Y-94162619D01*
X108759523Y-94257857D01*
X108759523Y-94353095D01*
X108711904Y-94495952D01*
X108140476Y-95067380D01*
X108759523Y-95067380D01*
X40155952Y-76017380D02*
X39679761Y-76017380D01*
X39679761Y-75017380D01*
X40489285Y-75493571D02*
X40822619Y-75493571D01*
X40965476Y-76017380D02*
X40489285Y-76017380D01*
X40489285Y-75017380D01*
X40965476Y-75017380D01*
X41394047Y-76017380D02*
X41394047Y-75017380D01*
X41632142Y-75017380D01*
X41775000Y-75065000D01*
X41870238Y-75160238D01*
X41917857Y-75255476D01*
X41965476Y-75445952D01*
X41965476Y-75588809D01*
X41917857Y-75779285D01*
X41870238Y-75874523D01*
X41775000Y-75969761D01*
X41632142Y-76017380D01*
X41394047Y-76017380D01*
X42917857Y-76017380D02*
X42346428Y-76017380D01*
X42632142Y-76017380D02*
X42632142Y-75017380D01*
X42536904Y-75160238D01*
X42441666Y-75255476D01*
X42346428Y-75303095D01*
X40155952Y-95067380D02*
X39679761Y-95067380D01*
X39679761Y-94067380D01*
X40489285Y-94543571D02*
X40822619Y-94543571D01*
X40965476Y-95067380D02*
X40489285Y-95067380D01*
X40489285Y-94067380D01*
X40965476Y-94067380D01*
X41394047Y-95067380D02*
X41394047Y-94067380D01*
X41632142Y-94067380D01*
X41775000Y-94115000D01*
X41870238Y-94210238D01*
X41917857Y-94305476D01*
X41965476Y-94495952D01*
X41965476Y-94638809D01*
X41917857Y-94829285D01*
X41870238Y-94924523D01*
X41775000Y-95019761D01*
X41632142Y-95067380D01*
X41394047Y-95067380D01*
X42346428Y-94162619D02*
X42394047Y-94115000D01*
X42489285Y-94067380D01*
X42727380Y-94067380D01*
X42822619Y-94115000D01*
X42870238Y-94162619D01*
X42917857Y-94257857D01*
X42917857Y-94353095D01*
X42870238Y-94495952D01*
X42298809Y-95067380D01*
X42917857Y-95067380D01*
X59205952Y-76017380D02*
X58729761Y-76017380D01*
X58729761Y-75017380D01*
X59539285Y-75493571D02*
X59872619Y-75493571D01*
X60015476Y-76017380D02*
X59539285Y-76017380D01*
X59539285Y-75017380D01*
X60015476Y-75017380D01*
X60444047Y-76017380D02*
X60444047Y-75017380D01*
X60682142Y-75017380D01*
X60825000Y-75065000D01*
X60920238Y-75160238D01*
X60967857Y-75255476D01*
X61015476Y-75445952D01*
X61015476Y-75588809D01*
X60967857Y-75779285D01*
X60920238Y-75874523D01*
X60825000Y-75969761D01*
X60682142Y-76017380D01*
X60444047Y-76017380D01*
X61348809Y-75017380D02*
X61967857Y-75017380D01*
X61634523Y-75398333D01*
X61777380Y-75398333D01*
X61872619Y-75445952D01*
X61920238Y-75493571D01*
X61967857Y-75588809D01*
X61967857Y-75826904D01*
X61920238Y-75922142D01*
X61872619Y-75969761D01*
X61777380Y-76017380D01*
X61491666Y-76017380D01*
X61396428Y-75969761D01*
X61348809Y-75922142D01*
X59205952Y-95067380D02*
X58729761Y-95067380D01*
X58729761Y-94067380D01*
X59539285Y-94543571D02*
X59872619Y-94543571D01*
X60015476Y-95067380D02*
X59539285Y-95067380D01*
X59539285Y-94067380D01*
X60015476Y-94067380D01*
X60444047Y-95067380D02*
X60444047Y-94067380D01*
X60682142Y-94067380D01*
X60825000Y-94115000D01*
X60920238Y-94210238D01*
X60967857Y-94305476D01*
X61015476Y-94495952D01*
X61015476Y-94638809D01*
X60967857Y-94829285D01*
X60920238Y-94924523D01*
X60825000Y-95019761D01*
X60682142Y-95067380D01*
X60444047Y-95067380D01*
X61872619Y-94400714D02*
X61872619Y-95067380D01*
X61634523Y-94019761D02*
X61396428Y-94734047D01*
X62015476Y-94734047D01*
X78255952Y-76017380D02*
X77779761Y-76017380D01*
X77779761Y-75017380D01*
X78589285Y-75493571D02*
X78922619Y-75493571D01*
X79065476Y-76017380D02*
X78589285Y-76017380D01*
X78589285Y-75017380D01*
X79065476Y-75017380D01*
X79494047Y-76017380D02*
X79494047Y-75017380D01*
X79732142Y-75017380D01*
X79875000Y-75065000D01*
X79970238Y-75160238D01*
X80017857Y-75255476D01*
X80065476Y-75445952D01*
X80065476Y-75588809D01*
X80017857Y-75779285D01*
X79970238Y-75874523D01*
X79875000Y-75969761D01*
X79732142Y-76017380D01*
X79494047Y-76017380D01*
X80970238Y-75017380D02*
X80494047Y-75017380D01*
X80446428Y-75493571D01*
X80494047Y-75445952D01*
X80589285Y-75398333D01*
X80827380Y-75398333D01*
X80922619Y-75445952D01*
X80970238Y-75493571D01*
X81017857Y-75588809D01*
X81017857Y-75826904D01*
X80970238Y-75922142D01*
X80922619Y-75969761D01*
X80827380Y-76017380D01*
X80589285Y-76017380D01*
X80494047Y-75969761D01*
X80446428Y-75922142D01*
X78255952Y-95067380D02*
X77779761Y-95067380D01*
X77779761Y-94067380D01*
X78589285Y-94543571D02*
X78922619Y-94543571D01*
X79065476Y-95067380D02*
X78589285Y-95067380D01*
X78589285Y-94067380D01*
X79065476Y-94067380D01*
X79494047Y-95067380D02*
X79494047Y-94067380D01*
X79732142Y-94067380D01*
X79875000Y-94115000D01*
X79970238Y-94210238D01*
X80017857Y-94305476D01*
X80065476Y-94495952D01*
X80065476Y-94638809D01*
X80017857Y-94829285D01*
X79970238Y-94924523D01*
X79875000Y-95019761D01*
X79732142Y-95067380D01*
X79494047Y-95067380D01*
X80922619Y-94067380D02*
X80732142Y-94067380D01*
X80636904Y-94115000D01*
X80589285Y-94162619D01*
X80494047Y-94305476D01*
X80446428Y-94495952D01*
X80446428Y-94876904D01*
X80494047Y-94972142D01*
X80541666Y-95019761D01*
X80636904Y-95067380D01*
X80827380Y-95067380D01*
X80922619Y-95019761D01*
X80970238Y-94972142D01*
X81017857Y-94876904D01*
X81017857Y-94638809D01*
X80970238Y-94543571D01*
X80922619Y-94495952D01*
X80827380Y-94448333D01*
X80636904Y-94448333D01*
X80541666Y-94495952D01*
X80494047Y-94543571D01*
X80446428Y-94638809D01*
M02*
