G04 #@! TF.GenerationSoftware,KiCad,Pcbnew,(5.1.4)-1*
G04 #@! TF.CreationDate,2019-10-31T20:11:05+00:00*
G04 #@! TF.ProjectId,rgb,7267622e-6b69-4636-9164-5f7063625858,rev?*
G04 #@! TF.SameCoordinates,Original*
G04 #@! TF.FileFunction,Legend,Bot*
G04 #@! TF.FilePolarity,Positive*
%FSLAX46Y46*%
G04 Gerber Fmt 4.6, Leading zero omitted, Abs format (unit mm)*
G04 Created by KiCad (PCBNEW (5.1.4)-1) date 2019-10-31 20:11:05*
%MOMM*%
%LPD*%
G04 APERTURE LIST*
%ADD10C,0.200000*%
%ADD11C,0.120000*%
%ADD12C,0.150000*%
G04 APERTURE END LIST*
D10*
X46759285Y-98147142D02*
X46806904Y-98194761D01*
X46949761Y-98242380D01*
X47045000Y-98242380D01*
X47187857Y-98194761D01*
X47283095Y-98099523D01*
X47330714Y-98004285D01*
X47378333Y-97813809D01*
X47378333Y-97670952D01*
X47330714Y-97480476D01*
X47283095Y-97385238D01*
X47187857Y-97290000D01*
X47045000Y-97242380D01*
X46949761Y-97242380D01*
X46806904Y-97290000D01*
X46759285Y-97337619D01*
X46425952Y-97575714D02*
X46187857Y-98242380D01*
X45949761Y-97575714D02*
X46187857Y-98242380D01*
X46283095Y-98480476D01*
X46330714Y-98528095D01*
X46425952Y-98575714D01*
X45568809Y-98242380D02*
X45568809Y-97575714D01*
X45568809Y-97766190D02*
X45521190Y-97670952D01*
X45473571Y-97623333D01*
X45378333Y-97575714D01*
X45283095Y-97575714D01*
X44521190Y-97575714D02*
X44521190Y-98242380D01*
X44949761Y-97575714D02*
X44949761Y-98099523D01*
X44902142Y-98194761D01*
X44806904Y-98242380D01*
X44664047Y-98242380D01*
X44568809Y-98194761D01*
X44521190Y-98147142D01*
X44092619Y-98194761D02*
X43997380Y-98242380D01*
X43806904Y-98242380D01*
X43711666Y-98194761D01*
X43664047Y-98099523D01*
X43664047Y-98051904D01*
X43711666Y-97956666D01*
X43806904Y-97909047D01*
X43949761Y-97909047D01*
X44045000Y-97861428D01*
X44092619Y-97766190D01*
X44092619Y-97718571D01*
X44045000Y-97623333D01*
X43949761Y-97575714D01*
X43806904Y-97575714D01*
X43711666Y-97623333D01*
X42473571Y-98242380D02*
X42473571Y-97242380D01*
X42473571Y-97718571D02*
X41902142Y-97718571D01*
X41902142Y-98242380D02*
X41902142Y-97242380D01*
X40997380Y-98242380D02*
X40997380Y-97718571D01*
X41045000Y-97623333D01*
X41140238Y-97575714D01*
X41330714Y-97575714D01*
X41425952Y-97623333D01*
X40997380Y-98194761D02*
X41092619Y-98242380D01*
X41330714Y-98242380D01*
X41425952Y-98194761D01*
X41473571Y-98099523D01*
X41473571Y-98004285D01*
X41425952Y-97909047D01*
X41330714Y-97861428D01*
X41092619Y-97861428D01*
X40997380Y-97813809D01*
X40521190Y-97575714D02*
X40521190Y-98242380D01*
X40521190Y-97670952D02*
X40473571Y-97623333D01*
X40378333Y-97575714D01*
X40235476Y-97575714D01*
X40140238Y-97623333D01*
X40092619Y-97718571D01*
X40092619Y-98242380D01*
X39473571Y-98242380D02*
X39568809Y-98194761D01*
X39616428Y-98099523D01*
X39616428Y-97242380D01*
X38949761Y-98242380D02*
X39045000Y-98194761D01*
X39092619Y-98147142D01*
X39140238Y-98051904D01*
X39140238Y-97766190D01*
X39092619Y-97670952D01*
X39045000Y-97623333D01*
X38949761Y-97575714D01*
X38806904Y-97575714D01*
X38711666Y-97623333D01*
X38664047Y-97670952D01*
X38616428Y-97766190D01*
X38616428Y-98051904D01*
X38664047Y-98147142D01*
X38711666Y-98194761D01*
X38806904Y-98242380D01*
X38949761Y-98242380D01*
X38187857Y-97575714D02*
X38187857Y-98242380D01*
X38187857Y-97670952D02*
X38140238Y-97623333D01*
X38045000Y-97575714D01*
X37902142Y-97575714D01*
X37806904Y-97623333D01*
X37759285Y-97718571D01*
X37759285Y-98242380D01*
X112076904Y-97877380D02*
X112267380Y-97877380D01*
X112362619Y-97925000D01*
X112410238Y-97972619D01*
X112505476Y-98115476D01*
X112553095Y-98305952D01*
X112553095Y-98686904D01*
X112505476Y-98782142D01*
X112457857Y-98829761D01*
X112362619Y-98877380D01*
X112172142Y-98877380D01*
X112076904Y-98829761D01*
X112029285Y-98782142D01*
X111981666Y-98686904D01*
X111981666Y-98448809D01*
X112029285Y-98353571D01*
X112076904Y-98305952D01*
X112172142Y-98258333D01*
X112362619Y-98258333D01*
X112457857Y-98305952D01*
X112505476Y-98353571D01*
X112553095Y-98448809D01*
X110791190Y-98877380D02*
X110791190Y-97877380D01*
X110219761Y-98877380D02*
X110648333Y-98305952D01*
X110219761Y-97877380D02*
X110791190Y-98448809D01*
X109410238Y-98829761D02*
X109505476Y-98877380D01*
X109695952Y-98877380D01*
X109791190Y-98829761D01*
X109838809Y-98734523D01*
X109838809Y-98353571D01*
X109791190Y-98258333D01*
X109695952Y-98210714D01*
X109505476Y-98210714D01*
X109410238Y-98258333D01*
X109362619Y-98353571D01*
X109362619Y-98448809D01*
X109838809Y-98544047D01*
X109029285Y-98210714D02*
X108791190Y-98877380D01*
X108553095Y-98210714D02*
X108791190Y-98877380D01*
X108886428Y-99115476D01*
X108934047Y-99163095D01*
X109029285Y-99210714D01*
X106838809Y-98877380D02*
X107172142Y-98401190D01*
X107410238Y-98877380D02*
X107410238Y-97877380D01*
X107029285Y-97877380D01*
X106934047Y-97925000D01*
X106886428Y-97972619D01*
X106838809Y-98067857D01*
X106838809Y-98210714D01*
X106886428Y-98305952D01*
X106934047Y-98353571D01*
X107029285Y-98401190D01*
X107410238Y-98401190D01*
X106029285Y-98829761D02*
X106124523Y-98877380D01*
X106315000Y-98877380D01*
X106410238Y-98829761D01*
X106457857Y-98734523D01*
X106457857Y-98353571D01*
X106410238Y-98258333D01*
X106315000Y-98210714D01*
X106124523Y-98210714D01*
X106029285Y-98258333D01*
X105981666Y-98353571D01*
X105981666Y-98448809D01*
X106457857Y-98544047D01*
X105648333Y-98210714D02*
X105410238Y-98877380D01*
X105172142Y-98210714D01*
X104076904Y-97972619D02*
X104029285Y-97925000D01*
X103934047Y-97877380D01*
X103695952Y-97877380D01*
X103600714Y-97925000D01*
X103553095Y-97972619D01*
X103505476Y-98067857D01*
X103505476Y-98163095D01*
X103553095Y-98305952D01*
X104124523Y-98877380D01*
X103505476Y-98877380D01*
X103076904Y-98782142D02*
X103029285Y-98829761D01*
X103076904Y-98877380D01*
X103124523Y-98829761D01*
X103076904Y-98782142D01*
X103076904Y-98877380D01*
X102076904Y-98877380D02*
X102648333Y-98877380D01*
X102362619Y-98877380D02*
X102362619Y-97877380D01*
X102457857Y-98020238D01*
X102553095Y-98115476D01*
X102648333Y-98163095D01*
D11*
X52555000Y-66705000D02*
X55395000Y-66705000D01*
X52555000Y-66945000D02*
X55395000Y-66945000D01*
X52555000Y-66825000D02*
X55395000Y-66825000D01*
X55395000Y-69665000D02*
X55215000Y-69665000D01*
X55395000Y-66225000D02*
X55395000Y-69665000D01*
X55215000Y-66225000D02*
X55395000Y-66225000D01*
X52555000Y-69665000D02*
X52735000Y-69665000D01*
X52555000Y-66225000D02*
X52555000Y-69665000D01*
X52735000Y-66225000D02*
X52555000Y-66225000D01*
X55395000Y-88235000D02*
X52555000Y-88235000D01*
X55395000Y-87995000D02*
X52555000Y-87995000D01*
X55395000Y-88115000D02*
X52555000Y-88115000D01*
X52555000Y-85275000D02*
X52735000Y-85275000D01*
X52555000Y-88715000D02*
X52555000Y-85275000D01*
X52735000Y-88715000D02*
X52555000Y-88715000D01*
X55395000Y-85275000D02*
X55215000Y-85275000D01*
X55395000Y-88715000D02*
X55395000Y-85275000D01*
X55215000Y-88715000D02*
X55395000Y-88715000D01*
X71785000Y-66225000D02*
X71605000Y-66225000D01*
X71605000Y-66225000D02*
X71605000Y-69665000D01*
X71605000Y-69665000D02*
X71785000Y-69665000D01*
X74265000Y-66225000D02*
X74445000Y-66225000D01*
X74445000Y-66225000D02*
X74445000Y-69665000D01*
X74445000Y-69665000D02*
X74265000Y-69665000D01*
X71605000Y-66825000D02*
X74445000Y-66825000D01*
X71605000Y-66945000D02*
X74445000Y-66945000D01*
X71605000Y-66705000D02*
X74445000Y-66705000D01*
X74265000Y-88715000D02*
X74445000Y-88715000D01*
X74445000Y-88715000D02*
X74445000Y-85275000D01*
X74445000Y-85275000D02*
X74265000Y-85275000D01*
X71785000Y-88715000D02*
X71605000Y-88715000D01*
X71605000Y-88715000D02*
X71605000Y-85275000D01*
X71605000Y-85275000D02*
X71785000Y-85275000D01*
X74445000Y-88115000D02*
X71605000Y-88115000D01*
X74445000Y-87995000D02*
X71605000Y-87995000D01*
X74445000Y-88235000D02*
X71605000Y-88235000D01*
X90655000Y-66705000D02*
X93495000Y-66705000D01*
X90655000Y-66945000D02*
X93495000Y-66945000D01*
X90655000Y-66825000D02*
X93495000Y-66825000D01*
X93495000Y-69665000D02*
X93315000Y-69665000D01*
X93495000Y-66225000D02*
X93495000Y-69665000D01*
X93315000Y-66225000D02*
X93495000Y-66225000D01*
X90655000Y-69665000D02*
X90835000Y-69665000D01*
X90655000Y-66225000D02*
X90655000Y-69665000D01*
X90835000Y-66225000D02*
X90655000Y-66225000D01*
X93315000Y-88715000D02*
X93495000Y-88715000D01*
X93495000Y-88715000D02*
X93495000Y-85275000D01*
X93495000Y-85275000D02*
X93315000Y-85275000D01*
X90835000Y-88715000D02*
X90655000Y-88715000D01*
X90655000Y-88715000D02*
X90655000Y-85275000D01*
X90655000Y-85275000D02*
X90835000Y-85275000D01*
X93495000Y-88115000D02*
X90655000Y-88115000D01*
X93495000Y-87995000D02*
X90655000Y-87995000D01*
X93495000Y-88235000D02*
X90655000Y-88235000D01*
X38835000Y-73755000D02*
X38505000Y-73755000D01*
X38835000Y-67215000D02*
X38835000Y-73755000D01*
X38505000Y-67215000D02*
X38835000Y-67215000D01*
X36095000Y-73755000D02*
X36425000Y-73755000D01*
X36095000Y-67215000D02*
X36095000Y-73755000D01*
X36425000Y-67215000D02*
X36095000Y-67215000D01*
X36425000Y-77375000D02*
X36095000Y-77375000D01*
X36095000Y-77375000D02*
X36095000Y-83915000D01*
X36095000Y-83915000D02*
X36425000Y-83915000D01*
X38505000Y-77375000D02*
X38835000Y-77375000D01*
X38835000Y-77375000D02*
X38835000Y-83915000D01*
X38835000Y-83915000D02*
X38505000Y-83915000D01*
X38835000Y-94075000D02*
X38505000Y-94075000D01*
X38835000Y-87535000D02*
X38835000Y-94075000D01*
X38505000Y-87535000D02*
X38835000Y-87535000D01*
X36095000Y-94075000D02*
X36425000Y-94075000D01*
X36095000Y-87535000D02*
X36095000Y-94075000D01*
X36425000Y-87535000D02*
X36095000Y-87535000D01*
X55475000Y-67215000D02*
X55145000Y-67215000D01*
X55145000Y-67215000D02*
X55145000Y-73755000D01*
X55145000Y-73755000D02*
X55475000Y-73755000D01*
X57555000Y-67215000D02*
X57885000Y-67215000D01*
X57885000Y-67215000D02*
X57885000Y-73755000D01*
X57885000Y-73755000D02*
X57555000Y-73755000D01*
X57885000Y-83915000D02*
X57555000Y-83915000D01*
X57885000Y-77375000D02*
X57885000Y-83915000D01*
X57555000Y-77375000D02*
X57885000Y-77375000D01*
X55145000Y-83915000D02*
X55475000Y-83915000D01*
X55145000Y-77375000D02*
X55145000Y-83915000D01*
X55475000Y-77375000D02*
X55145000Y-77375000D01*
X55475000Y-87535000D02*
X55145000Y-87535000D01*
X55145000Y-87535000D02*
X55145000Y-94075000D01*
X55145000Y-94075000D02*
X55475000Y-94075000D01*
X57555000Y-87535000D02*
X57885000Y-87535000D01*
X57885000Y-87535000D02*
X57885000Y-94075000D01*
X57885000Y-94075000D02*
X57555000Y-94075000D01*
X76935000Y-73755000D02*
X76605000Y-73755000D01*
X76935000Y-67215000D02*
X76935000Y-73755000D01*
X76605000Y-67215000D02*
X76935000Y-67215000D01*
X74195000Y-73755000D02*
X74525000Y-73755000D01*
X74195000Y-67215000D02*
X74195000Y-73755000D01*
X74525000Y-67215000D02*
X74195000Y-67215000D01*
X74525000Y-77375000D02*
X74195000Y-77375000D01*
X74195000Y-77375000D02*
X74195000Y-83915000D01*
X74195000Y-83915000D02*
X74525000Y-83915000D01*
X76605000Y-77375000D02*
X76935000Y-77375000D01*
X76935000Y-77375000D02*
X76935000Y-83915000D01*
X76935000Y-83915000D02*
X76605000Y-83915000D01*
X76935000Y-94075000D02*
X76605000Y-94075000D01*
X76935000Y-87535000D02*
X76935000Y-94075000D01*
X76605000Y-87535000D02*
X76935000Y-87535000D01*
X74195000Y-94075000D02*
X74525000Y-94075000D01*
X74195000Y-87535000D02*
X74195000Y-94075000D01*
X74525000Y-87535000D02*
X74195000Y-87535000D01*
D12*
X54427380Y-67206904D02*
X53427380Y-67206904D01*
X53427380Y-67445000D01*
X53475000Y-67587857D01*
X53570238Y-67683095D01*
X53665476Y-67730714D01*
X53855952Y-67778333D01*
X53998809Y-67778333D01*
X54189285Y-67730714D01*
X54284523Y-67683095D01*
X54379761Y-67587857D01*
X54427380Y-67445000D01*
X54427380Y-67206904D01*
X54427380Y-68730714D02*
X54427380Y-68159285D01*
X54427380Y-68445000D02*
X53427380Y-68445000D01*
X53570238Y-68349761D01*
X53665476Y-68254523D01*
X53713095Y-68159285D01*
X54427380Y-86256904D02*
X53427380Y-86256904D01*
X53427380Y-86495000D01*
X53475000Y-86637857D01*
X53570238Y-86733095D01*
X53665476Y-86780714D01*
X53855952Y-86828333D01*
X53998809Y-86828333D01*
X54189285Y-86780714D01*
X54284523Y-86733095D01*
X54379761Y-86637857D01*
X54427380Y-86495000D01*
X54427380Y-86256904D01*
X53522619Y-87209285D02*
X53475000Y-87256904D01*
X53427380Y-87352142D01*
X53427380Y-87590238D01*
X53475000Y-87685476D01*
X53522619Y-87733095D01*
X53617857Y-87780714D01*
X53713095Y-87780714D01*
X53855952Y-87733095D01*
X54427380Y-87161666D01*
X54427380Y-87780714D01*
X73477380Y-67206904D02*
X72477380Y-67206904D01*
X72477380Y-67445000D01*
X72525000Y-67587857D01*
X72620238Y-67683095D01*
X72715476Y-67730714D01*
X72905952Y-67778333D01*
X73048809Y-67778333D01*
X73239285Y-67730714D01*
X73334523Y-67683095D01*
X73429761Y-67587857D01*
X73477380Y-67445000D01*
X73477380Y-67206904D01*
X72477380Y-68111666D02*
X72477380Y-68730714D01*
X72858333Y-68397380D01*
X72858333Y-68540238D01*
X72905952Y-68635476D01*
X72953571Y-68683095D01*
X73048809Y-68730714D01*
X73286904Y-68730714D01*
X73382142Y-68683095D01*
X73429761Y-68635476D01*
X73477380Y-68540238D01*
X73477380Y-68254523D01*
X73429761Y-68159285D01*
X73382142Y-68111666D01*
X73477380Y-86256904D02*
X72477380Y-86256904D01*
X72477380Y-86495000D01*
X72525000Y-86637857D01*
X72620238Y-86733095D01*
X72715476Y-86780714D01*
X72905952Y-86828333D01*
X73048809Y-86828333D01*
X73239285Y-86780714D01*
X73334523Y-86733095D01*
X73429761Y-86637857D01*
X73477380Y-86495000D01*
X73477380Y-86256904D01*
X72810714Y-87685476D02*
X73477380Y-87685476D01*
X72429761Y-87447380D02*
X73144047Y-87209285D01*
X73144047Y-87828333D01*
X92527380Y-67206904D02*
X91527380Y-67206904D01*
X91527380Y-67445000D01*
X91575000Y-67587857D01*
X91670238Y-67683095D01*
X91765476Y-67730714D01*
X91955952Y-67778333D01*
X92098809Y-67778333D01*
X92289285Y-67730714D01*
X92384523Y-67683095D01*
X92479761Y-67587857D01*
X92527380Y-67445000D01*
X92527380Y-67206904D01*
X91527380Y-68683095D02*
X91527380Y-68206904D01*
X92003571Y-68159285D01*
X91955952Y-68206904D01*
X91908333Y-68302142D01*
X91908333Y-68540238D01*
X91955952Y-68635476D01*
X92003571Y-68683095D01*
X92098809Y-68730714D01*
X92336904Y-68730714D01*
X92432142Y-68683095D01*
X92479761Y-68635476D01*
X92527380Y-68540238D01*
X92527380Y-68302142D01*
X92479761Y-68206904D01*
X92432142Y-68159285D01*
X92527380Y-86256904D02*
X91527380Y-86256904D01*
X91527380Y-86495000D01*
X91575000Y-86637857D01*
X91670238Y-86733095D01*
X91765476Y-86780714D01*
X91955952Y-86828333D01*
X92098809Y-86828333D01*
X92289285Y-86780714D01*
X92384523Y-86733095D01*
X92479761Y-86637857D01*
X92527380Y-86495000D01*
X92527380Y-86256904D01*
X91527380Y-87685476D02*
X91527380Y-87495000D01*
X91575000Y-87399761D01*
X91622619Y-87352142D01*
X91765476Y-87256904D01*
X91955952Y-87209285D01*
X92336904Y-87209285D01*
X92432142Y-87256904D01*
X92479761Y-87304523D01*
X92527380Y-87399761D01*
X92527380Y-87590238D01*
X92479761Y-87685476D01*
X92432142Y-87733095D01*
X92336904Y-87780714D01*
X92098809Y-87780714D01*
X92003571Y-87733095D01*
X91955952Y-87685476D01*
X91908333Y-87590238D01*
X91908333Y-87399761D01*
X91955952Y-87304523D01*
X92003571Y-87256904D01*
X92098809Y-87209285D01*
X37917380Y-70318333D02*
X37441190Y-69985000D01*
X37917380Y-69746904D02*
X36917380Y-69746904D01*
X36917380Y-70127857D01*
X36965000Y-70223095D01*
X37012619Y-70270714D01*
X37107857Y-70318333D01*
X37250714Y-70318333D01*
X37345952Y-70270714D01*
X37393571Y-70223095D01*
X37441190Y-70127857D01*
X37441190Y-69746904D01*
X37917380Y-71270714D02*
X37917380Y-70699285D01*
X37917380Y-70985000D02*
X36917380Y-70985000D01*
X37060238Y-70889761D01*
X37155476Y-70794523D01*
X37203095Y-70699285D01*
X37917380Y-80478333D02*
X37441190Y-80145000D01*
X37917380Y-79906904D02*
X36917380Y-79906904D01*
X36917380Y-80287857D01*
X36965000Y-80383095D01*
X37012619Y-80430714D01*
X37107857Y-80478333D01*
X37250714Y-80478333D01*
X37345952Y-80430714D01*
X37393571Y-80383095D01*
X37441190Y-80287857D01*
X37441190Y-79906904D01*
X37012619Y-80859285D02*
X36965000Y-80906904D01*
X36917380Y-81002142D01*
X36917380Y-81240238D01*
X36965000Y-81335476D01*
X37012619Y-81383095D01*
X37107857Y-81430714D01*
X37203095Y-81430714D01*
X37345952Y-81383095D01*
X37917380Y-80811666D01*
X37917380Y-81430714D01*
X37917380Y-90638333D02*
X37441190Y-90305000D01*
X37917380Y-90066904D02*
X36917380Y-90066904D01*
X36917380Y-90447857D01*
X36965000Y-90543095D01*
X37012619Y-90590714D01*
X37107857Y-90638333D01*
X37250714Y-90638333D01*
X37345952Y-90590714D01*
X37393571Y-90543095D01*
X37441190Y-90447857D01*
X37441190Y-90066904D01*
X36917380Y-90971666D02*
X36917380Y-91590714D01*
X37298333Y-91257380D01*
X37298333Y-91400238D01*
X37345952Y-91495476D01*
X37393571Y-91543095D01*
X37488809Y-91590714D01*
X37726904Y-91590714D01*
X37822142Y-91543095D01*
X37869761Y-91495476D01*
X37917380Y-91400238D01*
X37917380Y-91114523D01*
X37869761Y-91019285D01*
X37822142Y-90971666D01*
X56967380Y-70318333D02*
X56491190Y-69985000D01*
X56967380Y-69746904D02*
X55967380Y-69746904D01*
X55967380Y-70127857D01*
X56015000Y-70223095D01*
X56062619Y-70270714D01*
X56157857Y-70318333D01*
X56300714Y-70318333D01*
X56395952Y-70270714D01*
X56443571Y-70223095D01*
X56491190Y-70127857D01*
X56491190Y-69746904D01*
X56300714Y-71175476D02*
X56967380Y-71175476D01*
X55919761Y-70937380D02*
X56634047Y-70699285D01*
X56634047Y-71318333D01*
X56967380Y-80478333D02*
X56491190Y-80145000D01*
X56967380Y-79906904D02*
X55967380Y-79906904D01*
X55967380Y-80287857D01*
X56015000Y-80383095D01*
X56062619Y-80430714D01*
X56157857Y-80478333D01*
X56300714Y-80478333D01*
X56395952Y-80430714D01*
X56443571Y-80383095D01*
X56491190Y-80287857D01*
X56491190Y-79906904D01*
X55967380Y-81383095D02*
X55967380Y-80906904D01*
X56443571Y-80859285D01*
X56395952Y-80906904D01*
X56348333Y-81002142D01*
X56348333Y-81240238D01*
X56395952Y-81335476D01*
X56443571Y-81383095D01*
X56538809Y-81430714D01*
X56776904Y-81430714D01*
X56872142Y-81383095D01*
X56919761Y-81335476D01*
X56967380Y-81240238D01*
X56967380Y-81002142D01*
X56919761Y-80906904D01*
X56872142Y-80859285D01*
X56967380Y-90638333D02*
X56491190Y-90305000D01*
X56967380Y-90066904D02*
X55967380Y-90066904D01*
X55967380Y-90447857D01*
X56015000Y-90543095D01*
X56062619Y-90590714D01*
X56157857Y-90638333D01*
X56300714Y-90638333D01*
X56395952Y-90590714D01*
X56443571Y-90543095D01*
X56491190Y-90447857D01*
X56491190Y-90066904D01*
X55967380Y-91495476D02*
X55967380Y-91305000D01*
X56015000Y-91209761D01*
X56062619Y-91162142D01*
X56205476Y-91066904D01*
X56395952Y-91019285D01*
X56776904Y-91019285D01*
X56872142Y-91066904D01*
X56919761Y-91114523D01*
X56967380Y-91209761D01*
X56967380Y-91400238D01*
X56919761Y-91495476D01*
X56872142Y-91543095D01*
X56776904Y-91590714D01*
X56538809Y-91590714D01*
X56443571Y-91543095D01*
X56395952Y-91495476D01*
X56348333Y-91400238D01*
X56348333Y-91209761D01*
X56395952Y-91114523D01*
X56443571Y-91066904D01*
X56538809Y-91019285D01*
X76017380Y-70318333D02*
X75541190Y-69985000D01*
X76017380Y-69746904D02*
X75017380Y-69746904D01*
X75017380Y-70127857D01*
X75065000Y-70223095D01*
X75112619Y-70270714D01*
X75207857Y-70318333D01*
X75350714Y-70318333D01*
X75445952Y-70270714D01*
X75493571Y-70223095D01*
X75541190Y-70127857D01*
X75541190Y-69746904D01*
X75017380Y-70651666D02*
X75017380Y-71318333D01*
X76017380Y-70889761D01*
X76017380Y-80478333D02*
X75541190Y-80145000D01*
X76017380Y-79906904D02*
X75017380Y-79906904D01*
X75017380Y-80287857D01*
X75065000Y-80383095D01*
X75112619Y-80430714D01*
X75207857Y-80478333D01*
X75350714Y-80478333D01*
X75445952Y-80430714D01*
X75493571Y-80383095D01*
X75541190Y-80287857D01*
X75541190Y-79906904D01*
X75445952Y-81049761D02*
X75398333Y-80954523D01*
X75350714Y-80906904D01*
X75255476Y-80859285D01*
X75207857Y-80859285D01*
X75112619Y-80906904D01*
X75065000Y-80954523D01*
X75017380Y-81049761D01*
X75017380Y-81240238D01*
X75065000Y-81335476D01*
X75112619Y-81383095D01*
X75207857Y-81430714D01*
X75255476Y-81430714D01*
X75350714Y-81383095D01*
X75398333Y-81335476D01*
X75445952Y-81240238D01*
X75445952Y-81049761D01*
X75493571Y-80954523D01*
X75541190Y-80906904D01*
X75636428Y-80859285D01*
X75826904Y-80859285D01*
X75922142Y-80906904D01*
X75969761Y-80954523D01*
X76017380Y-81049761D01*
X76017380Y-81240238D01*
X75969761Y-81335476D01*
X75922142Y-81383095D01*
X75826904Y-81430714D01*
X75636428Y-81430714D01*
X75541190Y-81383095D01*
X75493571Y-81335476D01*
X75445952Y-81240238D01*
X76017380Y-90638333D02*
X75541190Y-90305000D01*
X76017380Y-90066904D02*
X75017380Y-90066904D01*
X75017380Y-90447857D01*
X75065000Y-90543095D01*
X75112619Y-90590714D01*
X75207857Y-90638333D01*
X75350714Y-90638333D01*
X75445952Y-90590714D01*
X75493571Y-90543095D01*
X75541190Y-90447857D01*
X75541190Y-90066904D01*
X76017380Y-91114523D02*
X76017380Y-91305000D01*
X75969761Y-91400238D01*
X75922142Y-91447857D01*
X75779285Y-91543095D01*
X75588809Y-91590714D01*
X75207857Y-91590714D01*
X75112619Y-91543095D01*
X75065000Y-91495476D01*
X75017380Y-91400238D01*
X75017380Y-91209761D01*
X75065000Y-91114523D01*
X75112619Y-91066904D01*
X75207857Y-91019285D01*
X75445952Y-91019285D01*
X75541190Y-91066904D01*
X75588809Y-91114523D01*
X75636428Y-91209761D01*
X75636428Y-91400238D01*
X75588809Y-91495476D01*
X75541190Y-91543095D01*
X75445952Y-91590714D01*
M02*
