G04 #@! TF.GenerationSoftware,KiCad,Pcbnew,(5.1.4)-1*
G04 #@! TF.CreationDate,2019-10-31T20:11:05+00:00*
G04 #@! TF.ProjectId,rgb,7267622e-6b69-4636-9164-5f7063625858,rev?*
G04 #@! TF.SameCoordinates,Original*
G04 #@! TF.FileFunction,Soldermask,Top*
G04 #@! TF.FilePolarity,Negative*
%FSLAX46Y46*%
G04 Gerber Fmt 4.6, Leading zero omitted, Abs format (unit mm)*
G04 Created by KiCad (PCBNEW (5.1.4)-1) date 2019-10-31 20:11:05*
%MOMM*%
%LPD*%
G04 APERTURE LIST*
%ADD10C,0.100000*%
G04 APERTURE END LIST*
D10*
G36*
X101712915Y-95727334D02*
G01*
X101821491Y-95760271D01*
X101821494Y-95760272D01*
X101857600Y-95779571D01*
X101921556Y-95813756D01*
X102009264Y-95885736D01*
X102081244Y-95973443D01*
X102115429Y-96037399D01*
X102134728Y-96073505D01*
X102134729Y-96073508D01*
X102167666Y-96182084D01*
X102176000Y-96266702D01*
X102176000Y-96773297D01*
X102167666Y-96857916D01*
X102135252Y-96964767D01*
X102134728Y-96966495D01*
X102124761Y-96985141D01*
X102081244Y-97066557D01*
X102009264Y-97154264D01*
X101921557Y-97226244D01*
X101857601Y-97260429D01*
X101821495Y-97279728D01*
X101821492Y-97279729D01*
X101712916Y-97312666D01*
X101600000Y-97323787D01*
X101487085Y-97312666D01*
X101378509Y-97279729D01*
X101378506Y-97279728D01*
X101342400Y-97260429D01*
X101278444Y-97226244D01*
X101190737Y-97154264D01*
X101118757Y-97066557D01*
X101075239Y-96985141D01*
X101061625Y-96964766D01*
X101044298Y-96947439D01*
X101023924Y-96933826D01*
X101001285Y-96924448D01*
X100977252Y-96919668D01*
X100952748Y-96919668D01*
X100928715Y-96924448D01*
X100906076Y-96933826D01*
X100885701Y-96947440D01*
X100868374Y-96964767D01*
X100854761Y-96985141D01*
X100811244Y-97066557D01*
X100739264Y-97154264D01*
X100651557Y-97226244D01*
X100587601Y-97260429D01*
X100551495Y-97279728D01*
X100551492Y-97279729D01*
X100442916Y-97312666D01*
X100330000Y-97323787D01*
X100217085Y-97312666D01*
X100108509Y-97279729D01*
X100108506Y-97279728D01*
X100072400Y-97260429D01*
X100008444Y-97226244D01*
X99920737Y-97154264D01*
X99857622Y-97077359D01*
X99840297Y-97060034D01*
X99819923Y-97046420D01*
X99797284Y-97037043D01*
X99773250Y-97032263D01*
X99748746Y-97032263D01*
X99724713Y-97037044D01*
X99702074Y-97046421D01*
X99681700Y-97060035D01*
X99664373Y-97077362D01*
X99650759Y-97097736D01*
X99641382Y-97120375D01*
X99636000Y-97156660D01*
X99636000Y-97321000D01*
X98484000Y-97321000D01*
X98484000Y-95719000D01*
X99636000Y-95719000D01*
X99636000Y-95883341D01*
X99638402Y-95907727D01*
X99645515Y-95931176D01*
X99657066Y-95952787D01*
X99672611Y-95971729D01*
X99691553Y-95987274D01*
X99713164Y-95998825D01*
X99736613Y-96005938D01*
X99760999Y-96008340D01*
X99785385Y-96005938D01*
X99808834Y-95998825D01*
X99830445Y-95987274D01*
X99849387Y-95971729D01*
X99857608Y-95962657D01*
X99920736Y-95885736D01*
X100008443Y-95813756D01*
X100072399Y-95779571D01*
X100108505Y-95760272D01*
X100108508Y-95760271D01*
X100217084Y-95727334D01*
X100330000Y-95716213D01*
X100442915Y-95727334D01*
X100551491Y-95760271D01*
X100551494Y-95760272D01*
X100587600Y-95779571D01*
X100651556Y-95813756D01*
X100739264Y-95885736D01*
X100811244Y-95973443D01*
X100854761Y-96054859D01*
X100868375Y-96075234D01*
X100885702Y-96092561D01*
X100906076Y-96106174D01*
X100928715Y-96115552D01*
X100952748Y-96120332D01*
X100977252Y-96120332D01*
X101001285Y-96115552D01*
X101023924Y-96106174D01*
X101044299Y-96092560D01*
X101061626Y-96075233D01*
X101075239Y-96054860D01*
X101118756Y-95973444D01*
X101190736Y-95885736D01*
X101278443Y-95813756D01*
X101342399Y-95779571D01*
X101378505Y-95760272D01*
X101378508Y-95760271D01*
X101487084Y-95727334D01*
X101600000Y-95716213D01*
X101712915Y-95727334D01*
X101712915Y-95727334D01*
G37*
G36*
X109332915Y-95727334D02*
G01*
X109441491Y-95760271D01*
X109441494Y-95760272D01*
X109477600Y-95779571D01*
X109541556Y-95813756D01*
X109629264Y-95885736D01*
X109701244Y-95973443D01*
X109735429Y-96037399D01*
X109754728Y-96073505D01*
X109754729Y-96073508D01*
X109787666Y-96182084D01*
X109796000Y-96266702D01*
X109796000Y-96773297D01*
X109787666Y-96857916D01*
X109755252Y-96964767D01*
X109754728Y-96966495D01*
X109744761Y-96985141D01*
X109701244Y-97066557D01*
X109629264Y-97154264D01*
X109541557Y-97226244D01*
X109477601Y-97260429D01*
X109441495Y-97279728D01*
X109441492Y-97279729D01*
X109332916Y-97312666D01*
X109220000Y-97323787D01*
X109107085Y-97312666D01*
X108998509Y-97279729D01*
X108998506Y-97279728D01*
X108962400Y-97260429D01*
X108898444Y-97226244D01*
X108810737Y-97154264D01*
X108738757Y-97066557D01*
X108695239Y-96985141D01*
X108681625Y-96964766D01*
X108664298Y-96947439D01*
X108643924Y-96933826D01*
X108621285Y-96924448D01*
X108597252Y-96919668D01*
X108572748Y-96919668D01*
X108548715Y-96924448D01*
X108526076Y-96933826D01*
X108505701Y-96947440D01*
X108488374Y-96964767D01*
X108474761Y-96985141D01*
X108431244Y-97066557D01*
X108359264Y-97154264D01*
X108271557Y-97226244D01*
X108207601Y-97260429D01*
X108171495Y-97279728D01*
X108171492Y-97279729D01*
X108062916Y-97312666D01*
X107950000Y-97323787D01*
X107837085Y-97312666D01*
X107728509Y-97279729D01*
X107728506Y-97279728D01*
X107692400Y-97260429D01*
X107628444Y-97226244D01*
X107540737Y-97154264D01*
X107477622Y-97077359D01*
X107460297Y-97060034D01*
X107439923Y-97046420D01*
X107417284Y-97037043D01*
X107393250Y-97032263D01*
X107368746Y-97032263D01*
X107344713Y-97037044D01*
X107322074Y-97046421D01*
X107301700Y-97060035D01*
X107284373Y-97077362D01*
X107270759Y-97097736D01*
X107261382Y-97120375D01*
X107256000Y-97156660D01*
X107256000Y-97321000D01*
X106104000Y-97321000D01*
X106104000Y-95719000D01*
X107256000Y-95719000D01*
X107256000Y-95883341D01*
X107258402Y-95907727D01*
X107265515Y-95931176D01*
X107277066Y-95952787D01*
X107292611Y-95971729D01*
X107311553Y-95987274D01*
X107333164Y-95998825D01*
X107356613Y-96005938D01*
X107380999Y-96008340D01*
X107405385Y-96005938D01*
X107428834Y-95998825D01*
X107450445Y-95987274D01*
X107469387Y-95971729D01*
X107477608Y-95962657D01*
X107540736Y-95885736D01*
X107628443Y-95813756D01*
X107692399Y-95779571D01*
X107728505Y-95760272D01*
X107728508Y-95760271D01*
X107837084Y-95727334D01*
X107950000Y-95716213D01*
X108062915Y-95727334D01*
X108171491Y-95760271D01*
X108171494Y-95760272D01*
X108207600Y-95779571D01*
X108271556Y-95813756D01*
X108359264Y-95885736D01*
X108431244Y-95973443D01*
X108474761Y-96054859D01*
X108488375Y-96075234D01*
X108505702Y-96092561D01*
X108526076Y-96106174D01*
X108548715Y-96115552D01*
X108572748Y-96120332D01*
X108597252Y-96120332D01*
X108621285Y-96115552D01*
X108643924Y-96106174D01*
X108664299Y-96092560D01*
X108681626Y-96075233D01*
X108695239Y-96054860D01*
X108738756Y-95973444D01*
X108810736Y-95885736D01*
X108898443Y-95813756D01*
X108962399Y-95779571D01*
X108998505Y-95760272D01*
X108998508Y-95760271D01*
X109107084Y-95727334D01*
X109220000Y-95716213D01*
X109332915Y-95727334D01*
X109332915Y-95727334D01*
G37*
G36*
X85839875Y-93672479D02*
G01*
X85913516Y-93694818D01*
X85950337Y-93705987D01*
X86052139Y-93760402D01*
X86109227Y-93807253D01*
X86141369Y-93833631D01*
X86214598Y-93922861D01*
X86214599Y-93922863D01*
X86269013Y-94024662D01*
X86269524Y-94026347D01*
X86302521Y-94135124D01*
X86311000Y-94221215D01*
X86311000Y-95008785D01*
X86302521Y-95094876D01*
X86280182Y-95168517D01*
X86269013Y-95205338D01*
X86214598Y-95307140D01*
X86141370Y-95396370D01*
X86052140Y-95469598D01*
X85950338Y-95524013D01*
X85913517Y-95535182D01*
X85839876Y-95557521D01*
X85725000Y-95568835D01*
X85610125Y-95557521D01*
X85536484Y-95535182D01*
X85499663Y-95524013D01*
X85397861Y-95469598D01*
X85308631Y-95396370D01*
X85235402Y-95307138D01*
X85200240Y-95241355D01*
X85186627Y-95220980D01*
X85169300Y-95203653D01*
X85148925Y-95190040D01*
X85126286Y-95180662D01*
X85102253Y-95175882D01*
X85077749Y-95175882D01*
X85053716Y-95180662D01*
X85031077Y-95190040D01*
X85010702Y-95203653D01*
X84993375Y-95220980D01*
X84979762Y-95241354D01*
X84944598Y-95307140D01*
X84871370Y-95396370D01*
X84782140Y-95469598D01*
X84680338Y-95524013D01*
X84643517Y-95535182D01*
X84569876Y-95557521D01*
X84455000Y-95568835D01*
X84340125Y-95557521D01*
X84266484Y-95535182D01*
X84229663Y-95524013D01*
X84127861Y-95469598D01*
X84038631Y-95396370D01*
X83965402Y-95307138D01*
X83930240Y-95241355D01*
X83916627Y-95220980D01*
X83899300Y-95203653D01*
X83878925Y-95190040D01*
X83856286Y-95180662D01*
X83832253Y-95175882D01*
X83807749Y-95175882D01*
X83783716Y-95180662D01*
X83761077Y-95190040D01*
X83740702Y-95203653D01*
X83723375Y-95220980D01*
X83709762Y-95241354D01*
X83674598Y-95307140D01*
X83601370Y-95396370D01*
X83512140Y-95469598D01*
X83410338Y-95524013D01*
X83373517Y-95535182D01*
X83299876Y-95557521D01*
X83185000Y-95568835D01*
X83070125Y-95557521D01*
X82996484Y-95535182D01*
X82959663Y-95524013D01*
X82857861Y-95469598D01*
X82768631Y-95396370D01*
X82722625Y-95340310D01*
X82705298Y-95322983D01*
X82684924Y-95309369D01*
X82662285Y-95299992D01*
X82638252Y-95295211D01*
X82613748Y-95295211D01*
X82589714Y-95299991D01*
X82567076Y-95309368D01*
X82546701Y-95322982D01*
X82529374Y-95340309D01*
X82515760Y-95360683D01*
X82506383Y-95383322D01*
X82501602Y-95407355D01*
X82501000Y-95419608D01*
X82501000Y-95566000D01*
X81329000Y-95566000D01*
X81329000Y-93664000D01*
X82501000Y-93664000D01*
X82501000Y-93810392D01*
X82503402Y-93834778D01*
X82510515Y-93858227D01*
X82522066Y-93879838D01*
X82537611Y-93898780D01*
X82556553Y-93914325D01*
X82578164Y-93925876D01*
X82601613Y-93932989D01*
X82625999Y-93935391D01*
X82650385Y-93932989D01*
X82673834Y-93925876D01*
X82695445Y-93914325D01*
X82714387Y-93898780D01*
X82722625Y-93889690D01*
X82768629Y-93833634D01*
X82768631Y-93833631D01*
X82857861Y-93760402D01*
X82869507Y-93754177D01*
X82959662Y-93705987D01*
X82996483Y-93694818D01*
X83070124Y-93672479D01*
X83185000Y-93661165D01*
X83299875Y-93672479D01*
X83373516Y-93694818D01*
X83410337Y-93705987D01*
X83512139Y-93760402D01*
X83569227Y-93807253D01*
X83601369Y-93833631D01*
X83674598Y-93922861D01*
X83674601Y-93922865D01*
X83709761Y-93988645D01*
X83723374Y-94009020D01*
X83740701Y-94026347D01*
X83761076Y-94039960D01*
X83783715Y-94049338D01*
X83807748Y-94054118D01*
X83832252Y-94054118D01*
X83856285Y-94049338D01*
X83878924Y-94039960D01*
X83899299Y-94026347D01*
X83916626Y-94009020D01*
X83930239Y-93988646D01*
X83965402Y-93922861D01*
X84038629Y-93833634D01*
X84038631Y-93833631D01*
X84127861Y-93760402D01*
X84139507Y-93754177D01*
X84229662Y-93705987D01*
X84266483Y-93694818D01*
X84340124Y-93672479D01*
X84455000Y-93661165D01*
X84569875Y-93672479D01*
X84643516Y-93694818D01*
X84680337Y-93705987D01*
X84782139Y-93760402D01*
X84839227Y-93807253D01*
X84871369Y-93833631D01*
X84944598Y-93922861D01*
X84944601Y-93922865D01*
X84979761Y-93988645D01*
X84993374Y-94009020D01*
X85010701Y-94026347D01*
X85031076Y-94039960D01*
X85053715Y-94049338D01*
X85077748Y-94054118D01*
X85102252Y-94054118D01*
X85126285Y-94049338D01*
X85148924Y-94039960D01*
X85169299Y-94026347D01*
X85186626Y-94009020D01*
X85200239Y-93988646D01*
X85235402Y-93922861D01*
X85308629Y-93833634D01*
X85308631Y-93833631D01*
X85397861Y-93760402D01*
X85409507Y-93754177D01*
X85499662Y-93705987D01*
X85536483Y-93694818D01*
X85610124Y-93672479D01*
X85725000Y-93661165D01*
X85839875Y-93672479D01*
X85839875Y-93672479D01*
G37*
G36*
X66789875Y-93672479D02*
G01*
X66863516Y-93694818D01*
X66900337Y-93705987D01*
X67002139Y-93760402D01*
X67059227Y-93807253D01*
X67091369Y-93833631D01*
X67164598Y-93922861D01*
X67164599Y-93922863D01*
X67219013Y-94024662D01*
X67219524Y-94026347D01*
X67252521Y-94135124D01*
X67261000Y-94221215D01*
X67261000Y-95008785D01*
X67252521Y-95094876D01*
X67230182Y-95168517D01*
X67219013Y-95205338D01*
X67164598Y-95307140D01*
X67091370Y-95396370D01*
X67002140Y-95469598D01*
X66900338Y-95524013D01*
X66863517Y-95535182D01*
X66789876Y-95557521D01*
X66675000Y-95568835D01*
X66560125Y-95557521D01*
X66486484Y-95535182D01*
X66449663Y-95524013D01*
X66347861Y-95469598D01*
X66258631Y-95396370D01*
X66185403Y-95307140D01*
X66150239Y-95241354D01*
X66136625Y-95220979D01*
X66119298Y-95203653D01*
X66098923Y-95190039D01*
X66076284Y-95180662D01*
X66052251Y-95175882D01*
X66027747Y-95175882D01*
X66003713Y-95180663D01*
X65981075Y-95190040D01*
X65960700Y-95203654D01*
X65943374Y-95220981D01*
X65929761Y-95241355D01*
X65894599Y-95307138D01*
X65821370Y-95396370D01*
X65732140Y-95469598D01*
X65630338Y-95524013D01*
X65593517Y-95535182D01*
X65519876Y-95557521D01*
X65405000Y-95568835D01*
X65290125Y-95557521D01*
X65216484Y-95535182D01*
X65179663Y-95524013D01*
X65077861Y-95469598D01*
X64988631Y-95396370D01*
X64915403Y-95307140D01*
X64880239Y-95241354D01*
X64866625Y-95220979D01*
X64849298Y-95203653D01*
X64828923Y-95190039D01*
X64806284Y-95180662D01*
X64782251Y-95175882D01*
X64757747Y-95175882D01*
X64733713Y-95180663D01*
X64711075Y-95190040D01*
X64690700Y-95203654D01*
X64673374Y-95220981D01*
X64659761Y-95241355D01*
X64624599Y-95307138D01*
X64551370Y-95396370D01*
X64462140Y-95469598D01*
X64360338Y-95524013D01*
X64323517Y-95535182D01*
X64249876Y-95557521D01*
X64135000Y-95568835D01*
X64020125Y-95557521D01*
X63946484Y-95535182D01*
X63909663Y-95524013D01*
X63807861Y-95469598D01*
X63718631Y-95396370D01*
X63672625Y-95340310D01*
X63655298Y-95322983D01*
X63634924Y-95309369D01*
X63612285Y-95299992D01*
X63588252Y-95295211D01*
X63563748Y-95295211D01*
X63539714Y-95299991D01*
X63517076Y-95309368D01*
X63496701Y-95322982D01*
X63479374Y-95340309D01*
X63465760Y-95360683D01*
X63456383Y-95383322D01*
X63451602Y-95407355D01*
X63451000Y-95419608D01*
X63451000Y-95566000D01*
X62279000Y-95566000D01*
X62279000Y-93664000D01*
X63451000Y-93664000D01*
X63451000Y-93810392D01*
X63453402Y-93834778D01*
X63460515Y-93858227D01*
X63472066Y-93879838D01*
X63487611Y-93898780D01*
X63506553Y-93914325D01*
X63528164Y-93925876D01*
X63551613Y-93932989D01*
X63575999Y-93935391D01*
X63600385Y-93932989D01*
X63623834Y-93925876D01*
X63645445Y-93914325D01*
X63664387Y-93898780D01*
X63672625Y-93889690D01*
X63718629Y-93833634D01*
X63718631Y-93833631D01*
X63807861Y-93760402D01*
X63819507Y-93754177D01*
X63909662Y-93705987D01*
X63946483Y-93694818D01*
X64020124Y-93672479D01*
X64135000Y-93661165D01*
X64249875Y-93672479D01*
X64323516Y-93694818D01*
X64360337Y-93705987D01*
X64462139Y-93760402D01*
X64519227Y-93807253D01*
X64551369Y-93833631D01*
X64624598Y-93922861D01*
X64624601Y-93922865D01*
X64659761Y-93988645D01*
X64673374Y-94009020D01*
X64690701Y-94026347D01*
X64711076Y-94039960D01*
X64733715Y-94049338D01*
X64757748Y-94054118D01*
X64782252Y-94054118D01*
X64806285Y-94049338D01*
X64828924Y-94039960D01*
X64849299Y-94026347D01*
X64866626Y-94009020D01*
X64880239Y-93988646D01*
X64915402Y-93922861D01*
X64988629Y-93833634D01*
X64988631Y-93833631D01*
X65077861Y-93760402D01*
X65089507Y-93754177D01*
X65179662Y-93705987D01*
X65216483Y-93694818D01*
X65290124Y-93672479D01*
X65405000Y-93661165D01*
X65519875Y-93672479D01*
X65593516Y-93694818D01*
X65630337Y-93705987D01*
X65732139Y-93760402D01*
X65789227Y-93807253D01*
X65821369Y-93833631D01*
X65894598Y-93922861D01*
X65894601Y-93922865D01*
X65929761Y-93988645D01*
X65943374Y-94009020D01*
X65960701Y-94026347D01*
X65981076Y-94039960D01*
X66003715Y-94049338D01*
X66027748Y-94054118D01*
X66052252Y-94054118D01*
X66076285Y-94049338D01*
X66098924Y-94039960D01*
X66119299Y-94026347D01*
X66136626Y-94009020D01*
X66150239Y-93988646D01*
X66185402Y-93922861D01*
X66258629Y-93833634D01*
X66258631Y-93833631D01*
X66347861Y-93760402D01*
X66359507Y-93754177D01*
X66449662Y-93705987D01*
X66486483Y-93694818D01*
X66560124Y-93672479D01*
X66675000Y-93661165D01*
X66789875Y-93672479D01*
X66789875Y-93672479D01*
G37*
G36*
X47739875Y-93672479D02*
G01*
X47813516Y-93694818D01*
X47850337Y-93705987D01*
X47952139Y-93760402D01*
X48009227Y-93807253D01*
X48041369Y-93833631D01*
X48114598Y-93922861D01*
X48114599Y-93922863D01*
X48169013Y-94024662D01*
X48169524Y-94026347D01*
X48202521Y-94135124D01*
X48211000Y-94221215D01*
X48211000Y-95008785D01*
X48202521Y-95094876D01*
X48180182Y-95168517D01*
X48169013Y-95205338D01*
X48114598Y-95307140D01*
X48041370Y-95396370D01*
X47952140Y-95469598D01*
X47850338Y-95524013D01*
X47813517Y-95535182D01*
X47739876Y-95557521D01*
X47625000Y-95568835D01*
X47510125Y-95557521D01*
X47436484Y-95535182D01*
X47399663Y-95524013D01*
X47297861Y-95469598D01*
X47208631Y-95396370D01*
X47135403Y-95307140D01*
X47100239Y-95241354D01*
X47086625Y-95220979D01*
X47069298Y-95203653D01*
X47048923Y-95190039D01*
X47026284Y-95180662D01*
X47002251Y-95175882D01*
X46977747Y-95175882D01*
X46953713Y-95180663D01*
X46931075Y-95190040D01*
X46910700Y-95203654D01*
X46893374Y-95220981D01*
X46879761Y-95241355D01*
X46844599Y-95307138D01*
X46771370Y-95396370D01*
X46682140Y-95469598D01*
X46580338Y-95524013D01*
X46543517Y-95535182D01*
X46469876Y-95557521D01*
X46355000Y-95568835D01*
X46240125Y-95557521D01*
X46166484Y-95535182D01*
X46129663Y-95524013D01*
X46027861Y-95469598D01*
X45938631Y-95396370D01*
X45865403Y-95307140D01*
X45830239Y-95241354D01*
X45816625Y-95220979D01*
X45799298Y-95203653D01*
X45778923Y-95190039D01*
X45756284Y-95180662D01*
X45732251Y-95175882D01*
X45707747Y-95175882D01*
X45683713Y-95180663D01*
X45661075Y-95190040D01*
X45640700Y-95203654D01*
X45623374Y-95220981D01*
X45609761Y-95241355D01*
X45574599Y-95307138D01*
X45501370Y-95396370D01*
X45412140Y-95469598D01*
X45310338Y-95524013D01*
X45273517Y-95535182D01*
X45199876Y-95557521D01*
X45085000Y-95568835D01*
X44970125Y-95557521D01*
X44896484Y-95535182D01*
X44859663Y-95524013D01*
X44757861Y-95469598D01*
X44668631Y-95396370D01*
X44622625Y-95340310D01*
X44605298Y-95322983D01*
X44584924Y-95309369D01*
X44562285Y-95299992D01*
X44538252Y-95295211D01*
X44513748Y-95295211D01*
X44489714Y-95299991D01*
X44467076Y-95309368D01*
X44446701Y-95322982D01*
X44429374Y-95340309D01*
X44415760Y-95360683D01*
X44406383Y-95383322D01*
X44401602Y-95407355D01*
X44401000Y-95419608D01*
X44401000Y-95566000D01*
X43229000Y-95566000D01*
X43229000Y-93664000D01*
X44401000Y-93664000D01*
X44401000Y-93810392D01*
X44403402Y-93834778D01*
X44410515Y-93858227D01*
X44422066Y-93879838D01*
X44437611Y-93898780D01*
X44456553Y-93914325D01*
X44478164Y-93925876D01*
X44501613Y-93932989D01*
X44525999Y-93935391D01*
X44550385Y-93932989D01*
X44573834Y-93925876D01*
X44595445Y-93914325D01*
X44614387Y-93898780D01*
X44622625Y-93889690D01*
X44668629Y-93833634D01*
X44668631Y-93833631D01*
X44757861Y-93760402D01*
X44769507Y-93754177D01*
X44859662Y-93705987D01*
X44896483Y-93694818D01*
X44970124Y-93672479D01*
X45085000Y-93661165D01*
X45199875Y-93672479D01*
X45273516Y-93694818D01*
X45310337Y-93705987D01*
X45412139Y-93760402D01*
X45469227Y-93807253D01*
X45501369Y-93833631D01*
X45574598Y-93922861D01*
X45574601Y-93922865D01*
X45609761Y-93988645D01*
X45623374Y-94009020D01*
X45640701Y-94026347D01*
X45661076Y-94039960D01*
X45683715Y-94049338D01*
X45707748Y-94054118D01*
X45732252Y-94054118D01*
X45756285Y-94049338D01*
X45778924Y-94039960D01*
X45799299Y-94026347D01*
X45816626Y-94009020D01*
X45830239Y-93988646D01*
X45865402Y-93922861D01*
X45938629Y-93833634D01*
X45938631Y-93833631D01*
X46027861Y-93760402D01*
X46039507Y-93754177D01*
X46129662Y-93705987D01*
X46166483Y-93694818D01*
X46240124Y-93672479D01*
X46355000Y-93661165D01*
X46469875Y-93672479D01*
X46543516Y-93694818D01*
X46580337Y-93705987D01*
X46682139Y-93760402D01*
X46739227Y-93807253D01*
X46771369Y-93833631D01*
X46844598Y-93922861D01*
X46844601Y-93922865D01*
X46879761Y-93988645D01*
X46893374Y-94009020D01*
X46910701Y-94026347D01*
X46931076Y-94039960D01*
X46953715Y-94049338D01*
X46977748Y-94054118D01*
X47002252Y-94054118D01*
X47026285Y-94049338D01*
X47048924Y-94039960D01*
X47069299Y-94026347D01*
X47086626Y-94009020D01*
X47100239Y-93988646D01*
X47135402Y-93922861D01*
X47208629Y-93833634D01*
X47208631Y-93833631D01*
X47297861Y-93760402D01*
X47309507Y-93754177D01*
X47399662Y-93705987D01*
X47436483Y-93694818D01*
X47510124Y-93672479D01*
X47625000Y-93661165D01*
X47739875Y-93672479D01*
X47739875Y-93672479D01*
G37*
G36*
X75731823Y-93776313D02*
G01*
X75892242Y-93824976D01*
X75954450Y-93858227D01*
X76040078Y-93903996D01*
X76169659Y-94010341D01*
X76276004Y-94139922D01*
X76276005Y-94139924D01*
X76355024Y-94287758D01*
X76403687Y-94448177D01*
X76420117Y-94615000D01*
X76403687Y-94781823D01*
X76355024Y-94942242D01*
X76319456Y-95008785D01*
X76276004Y-95090078D01*
X76169659Y-95219659D01*
X76040078Y-95326004D01*
X76040076Y-95326005D01*
X75892242Y-95405024D01*
X75731823Y-95453687D01*
X75606804Y-95466000D01*
X75523196Y-95466000D01*
X75398177Y-95453687D01*
X75237758Y-95405024D01*
X75089924Y-95326005D01*
X75089922Y-95326004D01*
X74960341Y-95219659D01*
X74853996Y-95090078D01*
X74810544Y-95008785D01*
X74774976Y-94942242D01*
X74726313Y-94781823D01*
X74709883Y-94615000D01*
X74726313Y-94448177D01*
X74774976Y-94287758D01*
X74853995Y-94139924D01*
X74853996Y-94139922D01*
X74960341Y-94010341D01*
X75089922Y-93903996D01*
X75175550Y-93858227D01*
X75237758Y-93824976D01*
X75398177Y-93776313D01*
X75523196Y-93764000D01*
X75606804Y-93764000D01*
X75731823Y-93776313D01*
X75731823Y-93776313D01*
G37*
G36*
X37631823Y-93776313D02*
G01*
X37792242Y-93824976D01*
X37854450Y-93858227D01*
X37940078Y-93903996D01*
X38069659Y-94010341D01*
X38176004Y-94139922D01*
X38176005Y-94139924D01*
X38255024Y-94287758D01*
X38303687Y-94448177D01*
X38320117Y-94615000D01*
X38303687Y-94781823D01*
X38255024Y-94942242D01*
X38219456Y-95008785D01*
X38176004Y-95090078D01*
X38069659Y-95219659D01*
X37940078Y-95326004D01*
X37940076Y-95326005D01*
X37792242Y-95405024D01*
X37631823Y-95453687D01*
X37506804Y-95466000D01*
X37423196Y-95466000D01*
X37298177Y-95453687D01*
X37137758Y-95405024D01*
X36989924Y-95326005D01*
X36989922Y-95326004D01*
X36860341Y-95219659D01*
X36753996Y-95090078D01*
X36710544Y-95008785D01*
X36674976Y-94942242D01*
X36626313Y-94781823D01*
X36609883Y-94615000D01*
X36626313Y-94448177D01*
X36674976Y-94287758D01*
X36753995Y-94139924D01*
X36753996Y-94139922D01*
X36860341Y-94010341D01*
X36989922Y-93903996D01*
X37075550Y-93858227D01*
X37137758Y-93824976D01*
X37298177Y-93776313D01*
X37423196Y-93764000D01*
X37506804Y-93764000D01*
X37631823Y-93776313D01*
X37631823Y-93776313D01*
G37*
G36*
X56681823Y-93776313D02*
G01*
X56842242Y-93824976D01*
X56904450Y-93858227D01*
X56990078Y-93903996D01*
X57119659Y-94010341D01*
X57226004Y-94139922D01*
X57226005Y-94139924D01*
X57305024Y-94287758D01*
X57353687Y-94448177D01*
X57370117Y-94615000D01*
X57353687Y-94781823D01*
X57305024Y-94942242D01*
X57269456Y-95008785D01*
X57226004Y-95090078D01*
X57119659Y-95219659D01*
X56990078Y-95326004D01*
X56990076Y-95326005D01*
X56842242Y-95405024D01*
X56681823Y-95453687D01*
X56556804Y-95466000D01*
X56473196Y-95466000D01*
X56348177Y-95453687D01*
X56187758Y-95405024D01*
X56039924Y-95326005D01*
X56039922Y-95326004D01*
X55910341Y-95219659D01*
X55803996Y-95090078D01*
X55760544Y-95008785D01*
X55724976Y-94942242D01*
X55676313Y-94781823D01*
X55659883Y-94615000D01*
X55676313Y-94448177D01*
X55724976Y-94287758D01*
X55803995Y-94139924D01*
X55803996Y-94139922D01*
X55910341Y-94010341D01*
X56039922Y-93903996D01*
X56125550Y-93858227D01*
X56187758Y-93824976D01*
X56348177Y-93776313D01*
X56473196Y-93764000D01*
X56556804Y-93764000D01*
X56681823Y-93776313D01*
X56681823Y-93776313D01*
G37*
G36*
X112030483Y-90548335D02*
G01*
X112199240Y-90618236D01*
X112351118Y-90719718D01*
X112480282Y-90848882D01*
X112581764Y-91000760D01*
X112651665Y-91169517D01*
X112687300Y-91348668D01*
X112687300Y-91531332D01*
X112651665Y-91710483D01*
X112581764Y-91879240D01*
X112480282Y-92031118D01*
X112351118Y-92160282D01*
X112199240Y-92261764D01*
X112030483Y-92331665D01*
X111851332Y-92367300D01*
X111668668Y-92367300D01*
X111489517Y-92331665D01*
X111320760Y-92261764D01*
X111168882Y-92160282D01*
X111039718Y-92031118D01*
X110938236Y-91879240D01*
X110868335Y-91710483D01*
X110832700Y-91531332D01*
X110832700Y-91348668D01*
X110868335Y-91169517D01*
X110938236Y-91000760D01*
X111039718Y-90848882D01*
X111168882Y-90719718D01*
X111320760Y-90618236D01*
X111489517Y-90548335D01*
X111668668Y-90512700D01*
X111851332Y-90512700D01*
X112030483Y-90548335D01*
X112030483Y-90548335D01*
G37*
G36*
X96790483Y-90548335D02*
G01*
X96959240Y-90618236D01*
X97111118Y-90719718D01*
X97240282Y-90848882D01*
X97341764Y-91000760D01*
X97411665Y-91169517D01*
X97447300Y-91348668D01*
X97447300Y-91531332D01*
X97411665Y-91710483D01*
X97341764Y-91879240D01*
X97240282Y-92031118D01*
X97111118Y-92160282D01*
X96959240Y-92261764D01*
X96790483Y-92331665D01*
X96611332Y-92367300D01*
X96428668Y-92367300D01*
X96249517Y-92331665D01*
X96080760Y-92261764D01*
X95928882Y-92160282D01*
X95799718Y-92031118D01*
X95698236Y-91879240D01*
X95628335Y-91710483D01*
X95592700Y-91531332D01*
X95592700Y-91348668D01*
X95628335Y-91169517D01*
X95698236Y-91000760D01*
X95799718Y-90848882D01*
X95928882Y-90719718D01*
X96080760Y-90618236D01*
X96249517Y-90548335D01*
X96428668Y-90512700D01*
X96611332Y-90512700D01*
X96790483Y-90548335D01*
X96790483Y-90548335D01*
G37*
G36*
X65368254Y-88197818D02*
G01*
X65636386Y-88308882D01*
X65741513Y-88352427D01*
X66077436Y-88576884D01*
X66363116Y-88862564D01*
X66449156Y-88991331D01*
X66587574Y-89198489D01*
X66742182Y-89571746D01*
X66821000Y-89967993D01*
X66821000Y-90372007D01*
X66742182Y-90768254D01*
X66587574Y-91141511D01*
X66587573Y-91141513D01*
X66363116Y-91477436D01*
X66077436Y-91763116D01*
X65741513Y-91987573D01*
X65741512Y-91987574D01*
X65741511Y-91987574D01*
X65368254Y-92142182D01*
X64972007Y-92221000D01*
X64567993Y-92221000D01*
X64171746Y-92142182D01*
X63798489Y-91987574D01*
X63798488Y-91987574D01*
X63798487Y-91987573D01*
X63462564Y-91763116D01*
X63176884Y-91477436D01*
X62952427Y-91141513D01*
X62952426Y-91141511D01*
X62797818Y-90768254D01*
X62719000Y-90372007D01*
X62719000Y-89967993D01*
X62797818Y-89571746D01*
X62952426Y-89198489D01*
X63090845Y-88991331D01*
X63176884Y-88862564D01*
X63462564Y-88576884D01*
X63798487Y-88352427D01*
X63903614Y-88308882D01*
X64171746Y-88197818D01*
X64567993Y-88119000D01*
X64972007Y-88119000D01*
X65368254Y-88197818D01*
X65368254Y-88197818D01*
G37*
G36*
X46318254Y-88197818D02*
G01*
X46586386Y-88308882D01*
X46691513Y-88352427D01*
X47027436Y-88576884D01*
X47313116Y-88862564D01*
X47399156Y-88991331D01*
X47537574Y-89198489D01*
X47692182Y-89571746D01*
X47771000Y-89967993D01*
X47771000Y-90372007D01*
X47692182Y-90768254D01*
X47537574Y-91141511D01*
X47537573Y-91141513D01*
X47313116Y-91477436D01*
X47027436Y-91763116D01*
X46691513Y-91987573D01*
X46691512Y-91987574D01*
X46691511Y-91987574D01*
X46318254Y-92142182D01*
X45922007Y-92221000D01*
X45517993Y-92221000D01*
X45121746Y-92142182D01*
X44748489Y-91987574D01*
X44748488Y-91987574D01*
X44748487Y-91987573D01*
X44412564Y-91763116D01*
X44126884Y-91477436D01*
X43902427Y-91141513D01*
X43902426Y-91141511D01*
X43747818Y-90768254D01*
X43669000Y-90372007D01*
X43669000Y-89967993D01*
X43747818Y-89571746D01*
X43902426Y-89198489D01*
X44040845Y-88991331D01*
X44126884Y-88862564D01*
X44412564Y-88576884D01*
X44748487Y-88352427D01*
X44853614Y-88308882D01*
X45121746Y-88197818D01*
X45517993Y-88119000D01*
X45922007Y-88119000D01*
X46318254Y-88197818D01*
X46318254Y-88197818D01*
G37*
G36*
X84418254Y-88197818D02*
G01*
X84686386Y-88308882D01*
X84791513Y-88352427D01*
X85127436Y-88576884D01*
X85413116Y-88862564D01*
X85499156Y-88991331D01*
X85637574Y-89198489D01*
X85792182Y-89571746D01*
X85871000Y-89967993D01*
X85871000Y-90372007D01*
X85792182Y-90768254D01*
X85637574Y-91141511D01*
X85637573Y-91141513D01*
X85413116Y-91477436D01*
X85127436Y-91763116D01*
X84791513Y-91987573D01*
X84791512Y-91987574D01*
X84791511Y-91987574D01*
X84418254Y-92142182D01*
X84022007Y-92221000D01*
X83617993Y-92221000D01*
X83221746Y-92142182D01*
X82848489Y-91987574D01*
X82848488Y-91987574D01*
X82848487Y-91987573D01*
X82512564Y-91763116D01*
X82226884Y-91477436D01*
X82002427Y-91141513D01*
X82002426Y-91141511D01*
X81847818Y-90768254D01*
X81769000Y-90372007D01*
X81769000Y-89967993D01*
X81847818Y-89571746D01*
X82002426Y-89198489D01*
X82140845Y-88991331D01*
X82226884Y-88862564D01*
X82512564Y-88576884D01*
X82848487Y-88352427D01*
X82953614Y-88308882D01*
X83221746Y-88197818D01*
X83617993Y-88119000D01*
X84022007Y-88119000D01*
X84418254Y-88197818D01*
X84418254Y-88197818D01*
G37*
G36*
X40753512Y-89273927D02*
G01*
X40902812Y-89303624D01*
X41066784Y-89371544D01*
X41214354Y-89470147D01*
X41339853Y-89595646D01*
X41438456Y-89743216D01*
X41506376Y-89907188D01*
X41541000Y-90081259D01*
X41541000Y-90258741D01*
X41506376Y-90432812D01*
X41438456Y-90596784D01*
X41339853Y-90744354D01*
X41214354Y-90869853D01*
X41066784Y-90968456D01*
X40902812Y-91036376D01*
X40753512Y-91066073D01*
X40728742Y-91071000D01*
X40551258Y-91071000D01*
X40526488Y-91066073D01*
X40377188Y-91036376D01*
X40213216Y-90968456D01*
X40065646Y-90869853D01*
X39940147Y-90744354D01*
X39841544Y-90596784D01*
X39773624Y-90432812D01*
X39739000Y-90258741D01*
X39739000Y-90081259D01*
X39773624Y-89907188D01*
X39841544Y-89743216D01*
X39940147Y-89595646D01*
X40065646Y-89470147D01*
X40213216Y-89371544D01*
X40377188Y-89303624D01*
X40526488Y-89273927D01*
X40551258Y-89269000D01*
X40728742Y-89269000D01*
X40753512Y-89273927D01*
X40753512Y-89273927D01*
G37*
G36*
X50913512Y-89273927D02*
G01*
X51062812Y-89303624D01*
X51226784Y-89371544D01*
X51374354Y-89470147D01*
X51499853Y-89595646D01*
X51598456Y-89743216D01*
X51666376Y-89907188D01*
X51701000Y-90081259D01*
X51701000Y-90258741D01*
X51666376Y-90432812D01*
X51598456Y-90596784D01*
X51499853Y-90744354D01*
X51374354Y-90869853D01*
X51226784Y-90968456D01*
X51062812Y-91036376D01*
X50913512Y-91066073D01*
X50888742Y-91071000D01*
X50711258Y-91071000D01*
X50686488Y-91066073D01*
X50537188Y-91036376D01*
X50373216Y-90968456D01*
X50225646Y-90869853D01*
X50100147Y-90744354D01*
X50001544Y-90596784D01*
X49933624Y-90432812D01*
X49899000Y-90258741D01*
X49899000Y-90081259D01*
X49933624Y-89907188D01*
X50001544Y-89743216D01*
X50100147Y-89595646D01*
X50225646Y-89470147D01*
X50373216Y-89371544D01*
X50537188Y-89303624D01*
X50686488Y-89273927D01*
X50711258Y-89269000D01*
X50888742Y-89269000D01*
X50913512Y-89273927D01*
X50913512Y-89273927D01*
G37*
G36*
X59803512Y-89273927D02*
G01*
X59952812Y-89303624D01*
X60116784Y-89371544D01*
X60264354Y-89470147D01*
X60389853Y-89595646D01*
X60488456Y-89743216D01*
X60556376Y-89907188D01*
X60591000Y-90081259D01*
X60591000Y-90258741D01*
X60556376Y-90432812D01*
X60488456Y-90596784D01*
X60389853Y-90744354D01*
X60264354Y-90869853D01*
X60116784Y-90968456D01*
X59952812Y-91036376D01*
X59803512Y-91066073D01*
X59778742Y-91071000D01*
X59601258Y-91071000D01*
X59576488Y-91066073D01*
X59427188Y-91036376D01*
X59263216Y-90968456D01*
X59115646Y-90869853D01*
X58990147Y-90744354D01*
X58891544Y-90596784D01*
X58823624Y-90432812D01*
X58789000Y-90258741D01*
X58789000Y-90081259D01*
X58823624Y-89907188D01*
X58891544Y-89743216D01*
X58990147Y-89595646D01*
X59115646Y-89470147D01*
X59263216Y-89371544D01*
X59427188Y-89303624D01*
X59576488Y-89273927D01*
X59601258Y-89269000D01*
X59778742Y-89269000D01*
X59803512Y-89273927D01*
X59803512Y-89273927D01*
G37*
G36*
X69963512Y-89273927D02*
G01*
X70112812Y-89303624D01*
X70276784Y-89371544D01*
X70424354Y-89470147D01*
X70549853Y-89595646D01*
X70648456Y-89743216D01*
X70716376Y-89907188D01*
X70751000Y-90081259D01*
X70751000Y-90258741D01*
X70716376Y-90432812D01*
X70648456Y-90596784D01*
X70549853Y-90744354D01*
X70424354Y-90869853D01*
X70276784Y-90968456D01*
X70112812Y-91036376D01*
X69963512Y-91066073D01*
X69938742Y-91071000D01*
X69761258Y-91071000D01*
X69736488Y-91066073D01*
X69587188Y-91036376D01*
X69423216Y-90968456D01*
X69275646Y-90869853D01*
X69150147Y-90744354D01*
X69051544Y-90596784D01*
X68983624Y-90432812D01*
X68949000Y-90258741D01*
X68949000Y-90081259D01*
X68983624Y-89907188D01*
X69051544Y-89743216D01*
X69150147Y-89595646D01*
X69275646Y-89470147D01*
X69423216Y-89371544D01*
X69587188Y-89303624D01*
X69736488Y-89273927D01*
X69761258Y-89269000D01*
X69938742Y-89269000D01*
X69963512Y-89273927D01*
X69963512Y-89273927D01*
G37*
G36*
X78853512Y-89273927D02*
G01*
X79002812Y-89303624D01*
X79166784Y-89371544D01*
X79314354Y-89470147D01*
X79439853Y-89595646D01*
X79538456Y-89743216D01*
X79606376Y-89907188D01*
X79641000Y-90081259D01*
X79641000Y-90258741D01*
X79606376Y-90432812D01*
X79538456Y-90596784D01*
X79439853Y-90744354D01*
X79314354Y-90869853D01*
X79166784Y-90968456D01*
X79002812Y-91036376D01*
X78853512Y-91066073D01*
X78828742Y-91071000D01*
X78651258Y-91071000D01*
X78626488Y-91066073D01*
X78477188Y-91036376D01*
X78313216Y-90968456D01*
X78165646Y-90869853D01*
X78040147Y-90744354D01*
X77941544Y-90596784D01*
X77873624Y-90432812D01*
X77839000Y-90258741D01*
X77839000Y-90081259D01*
X77873624Y-89907188D01*
X77941544Y-89743216D01*
X78040147Y-89595646D01*
X78165646Y-89470147D01*
X78313216Y-89371544D01*
X78477188Y-89303624D01*
X78626488Y-89273927D01*
X78651258Y-89269000D01*
X78828742Y-89269000D01*
X78853512Y-89273927D01*
X78853512Y-89273927D01*
G37*
G36*
X89013512Y-89273927D02*
G01*
X89162812Y-89303624D01*
X89326784Y-89371544D01*
X89474354Y-89470147D01*
X89599853Y-89595646D01*
X89698456Y-89743216D01*
X89766376Y-89907188D01*
X89801000Y-90081259D01*
X89801000Y-90258741D01*
X89766376Y-90432812D01*
X89698456Y-90596784D01*
X89599853Y-90744354D01*
X89474354Y-90869853D01*
X89326784Y-90968456D01*
X89162812Y-91036376D01*
X89013512Y-91066073D01*
X88988742Y-91071000D01*
X88811258Y-91071000D01*
X88786488Y-91066073D01*
X88637188Y-91036376D01*
X88473216Y-90968456D01*
X88325646Y-90869853D01*
X88200147Y-90744354D01*
X88101544Y-90596784D01*
X88033624Y-90432812D01*
X87999000Y-90258741D01*
X87999000Y-90081259D01*
X88033624Y-89907188D01*
X88101544Y-89743216D01*
X88200147Y-89595646D01*
X88325646Y-89470147D01*
X88473216Y-89371544D01*
X88637188Y-89303624D01*
X88786488Y-89273927D01*
X88811258Y-89269000D01*
X88988742Y-89269000D01*
X89013512Y-89273927D01*
X89013512Y-89273927D01*
G37*
G36*
X93126000Y-90586000D02*
G01*
X91024000Y-90586000D01*
X91024000Y-88484000D01*
X93126000Y-88484000D01*
X93126000Y-90586000D01*
X93126000Y-90586000D01*
G37*
G36*
X55026000Y-90586000D02*
G01*
X52924000Y-90586000D01*
X52924000Y-88484000D01*
X55026000Y-88484000D01*
X55026000Y-90586000D01*
X55026000Y-90586000D01*
G37*
G36*
X74076000Y-90586000D02*
G01*
X71974000Y-90586000D01*
X71974000Y-88484000D01*
X74076000Y-88484000D01*
X74076000Y-90586000D01*
X74076000Y-90586000D01*
G37*
G36*
X112030483Y-88008335D02*
G01*
X112199240Y-88078236D01*
X112351118Y-88179718D01*
X112480282Y-88308882D01*
X112581764Y-88460760D01*
X112651665Y-88629517D01*
X112687300Y-88808668D01*
X112687300Y-88991332D01*
X112651665Y-89170483D01*
X112581764Y-89339240D01*
X112480282Y-89491118D01*
X112351118Y-89620282D01*
X112199240Y-89721764D01*
X112030483Y-89791665D01*
X111851332Y-89827300D01*
X111668668Y-89827300D01*
X111489517Y-89791665D01*
X111320760Y-89721764D01*
X111168882Y-89620282D01*
X111039718Y-89491118D01*
X110938236Y-89339240D01*
X110868335Y-89170483D01*
X110832700Y-88991332D01*
X110832700Y-88808668D01*
X110868335Y-88629517D01*
X110938236Y-88460760D01*
X111039718Y-88308882D01*
X111168882Y-88179718D01*
X111320760Y-88078236D01*
X111489517Y-88008335D01*
X111668668Y-87972700D01*
X111851332Y-87972700D01*
X112030483Y-88008335D01*
X112030483Y-88008335D01*
G37*
G36*
X96790483Y-88008335D02*
G01*
X96959240Y-88078236D01*
X97111118Y-88179718D01*
X97240282Y-88308882D01*
X97341764Y-88460760D01*
X97411665Y-88629517D01*
X97447300Y-88808668D01*
X97447300Y-88991332D01*
X97411665Y-89170483D01*
X97341764Y-89339240D01*
X97240282Y-89491118D01*
X97111118Y-89620282D01*
X96959240Y-89721764D01*
X96790483Y-89791665D01*
X96611332Y-89827300D01*
X96428668Y-89827300D01*
X96249517Y-89791665D01*
X96080760Y-89721764D01*
X95928882Y-89620282D01*
X95799718Y-89491118D01*
X95698236Y-89339240D01*
X95628335Y-89170483D01*
X95592700Y-88991332D01*
X95592700Y-88808668D01*
X95628335Y-88629517D01*
X95698236Y-88460760D01*
X95799718Y-88308882D01*
X95928882Y-88179718D01*
X96080760Y-88078236D01*
X96249517Y-88008335D01*
X96428668Y-87972700D01*
X96611332Y-87972700D01*
X96790483Y-88008335D01*
X96790483Y-88008335D01*
G37*
G36*
X80234549Y-86501116D02*
G01*
X80345734Y-86523232D01*
X80555203Y-86609997D01*
X80743720Y-86735960D01*
X80904040Y-86896280D01*
X81030003Y-87084797D01*
X81113883Y-87287300D01*
X81116768Y-87294267D01*
X81161000Y-87516635D01*
X81161000Y-87743365D01*
X81138884Y-87854549D01*
X81116768Y-87965734D01*
X81030003Y-88175203D01*
X80904040Y-88363720D01*
X80743720Y-88524040D01*
X80555203Y-88650003D01*
X80345734Y-88736768D01*
X80234549Y-88758884D01*
X80123365Y-88781000D01*
X79896635Y-88781000D01*
X79785451Y-88758884D01*
X79674266Y-88736768D01*
X79464797Y-88650003D01*
X79276280Y-88524040D01*
X79115960Y-88363720D01*
X78989997Y-88175203D01*
X78903232Y-87965734D01*
X78881116Y-87854549D01*
X78859000Y-87743365D01*
X78859000Y-87516635D01*
X78903232Y-87294267D01*
X78906118Y-87287300D01*
X78989997Y-87084797D01*
X79115960Y-86896280D01*
X79276280Y-86735960D01*
X79464797Y-86609997D01*
X79674266Y-86523232D01*
X79785451Y-86501116D01*
X79896635Y-86479000D01*
X80123365Y-86479000D01*
X80234549Y-86501116D01*
X80234549Y-86501116D01*
G37*
G36*
X42134549Y-86501116D02*
G01*
X42245734Y-86523232D01*
X42455203Y-86609997D01*
X42643720Y-86735960D01*
X42804040Y-86896280D01*
X42930003Y-87084797D01*
X43013883Y-87287300D01*
X43016768Y-87294267D01*
X43061000Y-87516635D01*
X43061000Y-87743365D01*
X43038884Y-87854549D01*
X43016768Y-87965734D01*
X42930003Y-88175203D01*
X42804040Y-88363720D01*
X42643720Y-88524040D01*
X42455203Y-88650003D01*
X42245734Y-88736768D01*
X42134549Y-88758884D01*
X42023365Y-88781000D01*
X41796635Y-88781000D01*
X41685451Y-88758884D01*
X41574266Y-88736768D01*
X41364797Y-88650003D01*
X41176280Y-88524040D01*
X41015960Y-88363720D01*
X40889997Y-88175203D01*
X40803232Y-87965734D01*
X40781116Y-87854549D01*
X40759000Y-87743365D01*
X40759000Y-87516635D01*
X40803232Y-87294267D01*
X40806118Y-87287300D01*
X40889997Y-87084797D01*
X41015960Y-86896280D01*
X41176280Y-86735960D01*
X41364797Y-86609997D01*
X41574266Y-86523232D01*
X41685451Y-86501116D01*
X41796635Y-86479000D01*
X42023365Y-86479000D01*
X42134549Y-86501116D01*
X42134549Y-86501116D01*
G37*
G36*
X61184549Y-86501116D02*
G01*
X61295734Y-86523232D01*
X61505203Y-86609997D01*
X61693720Y-86735960D01*
X61854040Y-86896280D01*
X61980003Y-87084797D01*
X62063883Y-87287300D01*
X62066768Y-87294267D01*
X62111000Y-87516635D01*
X62111000Y-87743365D01*
X62088884Y-87854549D01*
X62066768Y-87965734D01*
X61980003Y-88175203D01*
X61854040Y-88363720D01*
X61693720Y-88524040D01*
X61505203Y-88650003D01*
X61295734Y-88736768D01*
X61184549Y-88758884D01*
X61073365Y-88781000D01*
X60846635Y-88781000D01*
X60735451Y-88758884D01*
X60624266Y-88736768D01*
X60414797Y-88650003D01*
X60226280Y-88524040D01*
X60065960Y-88363720D01*
X59939997Y-88175203D01*
X59853232Y-87965734D01*
X59831116Y-87854549D01*
X59809000Y-87743365D01*
X59809000Y-87516635D01*
X59853232Y-87294267D01*
X59856118Y-87287300D01*
X59939997Y-87084797D01*
X60065960Y-86896280D01*
X60226280Y-86735960D01*
X60414797Y-86609997D01*
X60624266Y-86523232D01*
X60735451Y-86501116D01*
X60846635Y-86479000D01*
X61073365Y-86479000D01*
X61184549Y-86501116D01*
X61184549Y-86501116D01*
G37*
G36*
X75813228Y-86176703D02*
G01*
X75968100Y-86240853D01*
X76107481Y-86333985D01*
X76226015Y-86452519D01*
X76319147Y-86591900D01*
X76383297Y-86746772D01*
X76416000Y-86911184D01*
X76416000Y-87078816D01*
X76383297Y-87243228D01*
X76319147Y-87398100D01*
X76226015Y-87537481D01*
X76107481Y-87656015D01*
X75968100Y-87749147D01*
X75813228Y-87813297D01*
X75648816Y-87846000D01*
X75481184Y-87846000D01*
X75316772Y-87813297D01*
X75161900Y-87749147D01*
X75022519Y-87656015D01*
X74903985Y-87537481D01*
X74810853Y-87398100D01*
X74746703Y-87243228D01*
X74714000Y-87078816D01*
X74714000Y-86911184D01*
X74746703Y-86746772D01*
X74810853Y-86591900D01*
X74903985Y-86452519D01*
X75022519Y-86333985D01*
X75161900Y-86240853D01*
X75316772Y-86176703D01*
X75481184Y-86144000D01*
X75648816Y-86144000D01*
X75813228Y-86176703D01*
X75813228Y-86176703D01*
G37*
G36*
X56763228Y-86176703D02*
G01*
X56918100Y-86240853D01*
X57057481Y-86333985D01*
X57176015Y-86452519D01*
X57269147Y-86591900D01*
X57333297Y-86746772D01*
X57366000Y-86911184D01*
X57366000Y-87078816D01*
X57333297Y-87243228D01*
X57269147Y-87398100D01*
X57176015Y-87537481D01*
X57057481Y-87656015D01*
X56918100Y-87749147D01*
X56763228Y-87813297D01*
X56598816Y-87846000D01*
X56431184Y-87846000D01*
X56266772Y-87813297D01*
X56111900Y-87749147D01*
X55972519Y-87656015D01*
X55853985Y-87537481D01*
X55760853Y-87398100D01*
X55696703Y-87243228D01*
X55664000Y-87078816D01*
X55664000Y-86911184D01*
X55696703Y-86746772D01*
X55760853Y-86591900D01*
X55853985Y-86452519D01*
X55972519Y-86333985D01*
X56111900Y-86240853D01*
X56266772Y-86176703D01*
X56431184Y-86144000D01*
X56598816Y-86144000D01*
X56763228Y-86176703D01*
X56763228Y-86176703D01*
G37*
G36*
X37713228Y-86176703D02*
G01*
X37868100Y-86240853D01*
X38007481Y-86333985D01*
X38126015Y-86452519D01*
X38219147Y-86591900D01*
X38283297Y-86746772D01*
X38316000Y-86911184D01*
X38316000Y-87078816D01*
X38283297Y-87243228D01*
X38219147Y-87398100D01*
X38126015Y-87537481D01*
X38007481Y-87656015D01*
X37868100Y-87749147D01*
X37713228Y-87813297D01*
X37548816Y-87846000D01*
X37381184Y-87846000D01*
X37216772Y-87813297D01*
X37061900Y-87749147D01*
X36922519Y-87656015D01*
X36803985Y-87537481D01*
X36710853Y-87398100D01*
X36646703Y-87243228D01*
X36614000Y-87078816D01*
X36614000Y-86911184D01*
X36646703Y-86746772D01*
X36710853Y-86591900D01*
X36803985Y-86452519D01*
X36922519Y-86333985D01*
X37061900Y-86240853D01*
X37216772Y-86176703D01*
X37381184Y-86144000D01*
X37548816Y-86144000D01*
X37713228Y-86176703D01*
X37713228Y-86176703D01*
G37*
G36*
X96790483Y-85468335D02*
G01*
X96959240Y-85538236D01*
X97111118Y-85639718D01*
X97240282Y-85768882D01*
X97341764Y-85920760D01*
X97411665Y-86089517D01*
X97447300Y-86268668D01*
X97447300Y-86451332D01*
X97411665Y-86630483D01*
X97341764Y-86799240D01*
X97240282Y-86951118D01*
X97111118Y-87080282D01*
X96959240Y-87181764D01*
X96790483Y-87251665D01*
X96611332Y-87287300D01*
X96428668Y-87287300D01*
X96249517Y-87251665D01*
X96080760Y-87181764D01*
X95928882Y-87080282D01*
X95799718Y-86951118D01*
X95698236Y-86799240D01*
X95628335Y-86630483D01*
X95592700Y-86451332D01*
X95592700Y-86268668D01*
X95628335Y-86089517D01*
X95698236Y-85920760D01*
X95799718Y-85768882D01*
X95928882Y-85639718D01*
X96080760Y-85538236D01*
X96249517Y-85468335D01*
X96428668Y-85432700D01*
X96611332Y-85432700D01*
X96790483Y-85468335D01*
X96790483Y-85468335D01*
G37*
G36*
X112030483Y-85468335D02*
G01*
X112199240Y-85538236D01*
X112351118Y-85639718D01*
X112480282Y-85768882D01*
X112581764Y-85920760D01*
X112651665Y-86089517D01*
X112687300Y-86268668D01*
X112687300Y-86451332D01*
X112651665Y-86630483D01*
X112581764Y-86799240D01*
X112480282Y-86951118D01*
X112351118Y-87080282D01*
X112199240Y-87181764D01*
X112030483Y-87251665D01*
X111851332Y-87287300D01*
X111668668Y-87287300D01*
X111489517Y-87251665D01*
X111320760Y-87181764D01*
X111168882Y-87080282D01*
X111039718Y-86951118D01*
X110938236Y-86799240D01*
X110868335Y-86630483D01*
X110832700Y-86451332D01*
X110832700Y-86268668D01*
X110868335Y-86089517D01*
X110938236Y-85920760D01*
X111039718Y-85768882D01*
X111168882Y-85639718D01*
X111320760Y-85538236D01*
X111489517Y-85468335D01*
X111668668Y-85432700D01*
X111851332Y-85432700D01*
X112030483Y-85468335D01*
X112030483Y-85468335D01*
G37*
G36*
X67534549Y-83961116D02*
G01*
X67645734Y-83983232D01*
X67855203Y-84069997D01*
X68043720Y-84195960D01*
X68204040Y-84356280D01*
X68330003Y-84544797D01*
X68413883Y-84747300D01*
X68416768Y-84754267D01*
X68461000Y-84976635D01*
X68461000Y-85203365D01*
X68438884Y-85314549D01*
X68416768Y-85425734D01*
X68330003Y-85635203D01*
X68204040Y-85823720D01*
X68043720Y-85984040D01*
X67855203Y-86110003D01*
X67645734Y-86196768D01*
X67534549Y-86218884D01*
X67423365Y-86241000D01*
X67196635Y-86241000D01*
X67085451Y-86218884D01*
X66974266Y-86196768D01*
X66764797Y-86110003D01*
X66576280Y-85984040D01*
X66415960Y-85823720D01*
X66289997Y-85635203D01*
X66203232Y-85425734D01*
X66181116Y-85314549D01*
X66159000Y-85203365D01*
X66159000Y-84976635D01*
X66203232Y-84754267D01*
X66206118Y-84747300D01*
X66289997Y-84544797D01*
X66415960Y-84356280D01*
X66576280Y-84195960D01*
X66764797Y-84069997D01*
X66974266Y-83983232D01*
X67085451Y-83961116D01*
X67196635Y-83939000D01*
X67423365Y-83939000D01*
X67534549Y-83961116D01*
X67534549Y-83961116D01*
G37*
G36*
X86584549Y-83961116D02*
G01*
X86695734Y-83983232D01*
X86905203Y-84069997D01*
X87093720Y-84195960D01*
X87254040Y-84356280D01*
X87380003Y-84544797D01*
X87463883Y-84747300D01*
X87466768Y-84754267D01*
X87511000Y-84976635D01*
X87511000Y-85203365D01*
X87488884Y-85314549D01*
X87466768Y-85425734D01*
X87380003Y-85635203D01*
X87254040Y-85823720D01*
X87093720Y-85984040D01*
X86905203Y-86110003D01*
X86695734Y-86196768D01*
X86584549Y-86218884D01*
X86473365Y-86241000D01*
X86246635Y-86241000D01*
X86135451Y-86218884D01*
X86024266Y-86196768D01*
X85814797Y-86110003D01*
X85626280Y-85984040D01*
X85465960Y-85823720D01*
X85339997Y-85635203D01*
X85253232Y-85425734D01*
X85231116Y-85314549D01*
X85209000Y-85203365D01*
X85209000Y-84976635D01*
X85253232Y-84754267D01*
X85256118Y-84747300D01*
X85339997Y-84544797D01*
X85465960Y-84356280D01*
X85626280Y-84195960D01*
X85814797Y-84069997D01*
X86024266Y-83983232D01*
X86135451Y-83961116D01*
X86246635Y-83939000D01*
X86473365Y-83939000D01*
X86584549Y-83961116D01*
X86584549Y-83961116D01*
G37*
G36*
X48484549Y-83961116D02*
G01*
X48595734Y-83983232D01*
X48805203Y-84069997D01*
X48993720Y-84195960D01*
X49154040Y-84356280D01*
X49280003Y-84544797D01*
X49363883Y-84747300D01*
X49366768Y-84754267D01*
X49411000Y-84976635D01*
X49411000Y-85203365D01*
X49388884Y-85314549D01*
X49366768Y-85425734D01*
X49280003Y-85635203D01*
X49154040Y-85823720D01*
X48993720Y-85984040D01*
X48805203Y-86110003D01*
X48595734Y-86196768D01*
X48484549Y-86218884D01*
X48373365Y-86241000D01*
X48146635Y-86241000D01*
X48035451Y-86218884D01*
X47924266Y-86196768D01*
X47714797Y-86110003D01*
X47526280Y-85984040D01*
X47365960Y-85823720D01*
X47239997Y-85635203D01*
X47153232Y-85425734D01*
X47131116Y-85314549D01*
X47109000Y-85203365D01*
X47109000Y-84976635D01*
X47153232Y-84754267D01*
X47156118Y-84747300D01*
X47239997Y-84544797D01*
X47365960Y-84356280D01*
X47526280Y-84195960D01*
X47714797Y-84069997D01*
X47924266Y-83983232D01*
X48035451Y-83961116D01*
X48146635Y-83939000D01*
X48373365Y-83939000D01*
X48484549Y-83961116D01*
X48484549Y-83961116D01*
G37*
G36*
X92178097Y-83409069D02*
G01*
X92281032Y-83419207D01*
X92479146Y-83479305D01*
X92479149Y-83479306D01*
X92575975Y-83531061D01*
X92661729Y-83576897D01*
X92821765Y-83708235D01*
X92953103Y-83868271D01*
X92976119Y-83911331D01*
X93050694Y-84050851D01*
X93050695Y-84050854D01*
X93110793Y-84248968D01*
X93131085Y-84455000D01*
X93110793Y-84661032D01*
X93074024Y-84782242D01*
X93050694Y-84859149D01*
X93012781Y-84930078D01*
X92953103Y-85041729D01*
X92821765Y-85201765D01*
X92661729Y-85333103D01*
X92575975Y-85378939D01*
X92479149Y-85430694D01*
X92479146Y-85430695D01*
X92281032Y-85490793D01*
X92178097Y-85500931D01*
X92126631Y-85506000D01*
X92023369Y-85506000D01*
X91971903Y-85500931D01*
X91868968Y-85490793D01*
X91670854Y-85430695D01*
X91670851Y-85430694D01*
X91574025Y-85378939D01*
X91488271Y-85333103D01*
X91328235Y-85201765D01*
X91196897Y-85041729D01*
X91137219Y-84930078D01*
X91099306Y-84859149D01*
X91075976Y-84782242D01*
X91039207Y-84661032D01*
X91018915Y-84455000D01*
X91039207Y-84248968D01*
X91099305Y-84050854D01*
X91099306Y-84050851D01*
X91173881Y-83911331D01*
X91196897Y-83868271D01*
X91328235Y-83708235D01*
X91488271Y-83576897D01*
X91574025Y-83531061D01*
X91670851Y-83479306D01*
X91670854Y-83479305D01*
X91868968Y-83419207D01*
X91971903Y-83409069D01*
X92023369Y-83404000D01*
X92126631Y-83404000D01*
X92178097Y-83409069D01*
X92178097Y-83409069D01*
G37*
G36*
X54078097Y-83409069D02*
G01*
X54181032Y-83419207D01*
X54379146Y-83479305D01*
X54379149Y-83479306D01*
X54475975Y-83531061D01*
X54561729Y-83576897D01*
X54721765Y-83708235D01*
X54853103Y-83868271D01*
X54876119Y-83911331D01*
X54950694Y-84050851D01*
X54950695Y-84050854D01*
X55010793Y-84248968D01*
X55031085Y-84455000D01*
X55010793Y-84661032D01*
X54974024Y-84782242D01*
X54950694Y-84859149D01*
X54912781Y-84930078D01*
X54853103Y-85041729D01*
X54721765Y-85201765D01*
X54561729Y-85333103D01*
X54475975Y-85378939D01*
X54379149Y-85430694D01*
X54379146Y-85430695D01*
X54181032Y-85490793D01*
X54078097Y-85500931D01*
X54026631Y-85506000D01*
X53923369Y-85506000D01*
X53871903Y-85500931D01*
X53768968Y-85490793D01*
X53570854Y-85430695D01*
X53570851Y-85430694D01*
X53474025Y-85378939D01*
X53388271Y-85333103D01*
X53228235Y-85201765D01*
X53096897Y-85041729D01*
X53037219Y-84930078D01*
X52999306Y-84859149D01*
X52975976Y-84782242D01*
X52939207Y-84661032D01*
X52918915Y-84455000D01*
X52939207Y-84248968D01*
X52999305Y-84050854D01*
X52999306Y-84050851D01*
X53073881Y-83911331D01*
X53096897Y-83868271D01*
X53228235Y-83708235D01*
X53388271Y-83576897D01*
X53474025Y-83531061D01*
X53570851Y-83479306D01*
X53570854Y-83479305D01*
X53768968Y-83419207D01*
X53871903Y-83409069D01*
X53923369Y-83404000D01*
X54026631Y-83404000D01*
X54078097Y-83409069D01*
X54078097Y-83409069D01*
G37*
G36*
X73128097Y-83409069D02*
G01*
X73231032Y-83419207D01*
X73429146Y-83479305D01*
X73429149Y-83479306D01*
X73525975Y-83531061D01*
X73611729Y-83576897D01*
X73771765Y-83708235D01*
X73903103Y-83868271D01*
X73926119Y-83911331D01*
X74000694Y-84050851D01*
X74000695Y-84050854D01*
X74060793Y-84248968D01*
X74081085Y-84455000D01*
X74060793Y-84661032D01*
X74024024Y-84782242D01*
X74000694Y-84859149D01*
X73962781Y-84930078D01*
X73903103Y-85041729D01*
X73771765Y-85201765D01*
X73611729Y-85333103D01*
X73525975Y-85378939D01*
X73429149Y-85430694D01*
X73429146Y-85430695D01*
X73231032Y-85490793D01*
X73128097Y-85500931D01*
X73076631Y-85506000D01*
X72973369Y-85506000D01*
X72921903Y-85500931D01*
X72818968Y-85490793D01*
X72620854Y-85430695D01*
X72620851Y-85430694D01*
X72524025Y-85378939D01*
X72438271Y-85333103D01*
X72278235Y-85201765D01*
X72146897Y-85041729D01*
X72087219Y-84930078D01*
X72049306Y-84859149D01*
X72025976Y-84782242D01*
X71989207Y-84661032D01*
X71968915Y-84455000D01*
X71989207Y-84248968D01*
X72049305Y-84050854D01*
X72049306Y-84050851D01*
X72123881Y-83911331D01*
X72146897Y-83868271D01*
X72278235Y-83708235D01*
X72438271Y-83576897D01*
X72524025Y-83531061D01*
X72620851Y-83479306D01*
X72620854Y-83479305D01*
X72818968Y-83419207D01*
X72921903Y-83409069D01*
X72973369Y-83404000D01*
X73076631Y-83404000D01*
X73128097Y-83409069D01*
X73128097Y-83409069D01*
G37*
G36*
X37631823Y-83616313D02*
G01*
X37792242Y-83664976D01*
X37911401Y-83728668D01*
X37940078Y-83743996D01*
X38069659Y-83850341D01*
X38176004Y-83979922D01*
X38176005Y-83979924D01*
X38255024Y-84127758D01*
X38303687Y-84288177D01*
X38320117Y-84455000D01*
X38303687Y-84621823D01*
X38255024Y-84782242D01*
X38213918Y-84859146D01*
X38176004Y-84930078D01*
X38069659Y-85059659D01*
X37940078Y-85166004D01*
X37940076Y-85166005D01*
X37792242Y-85245024D01*
X37631823Y-85293687D01*
X37506804Y-85306000D01*
X37423196Y-85306000D01*
X37298177Y-85293687D01*
X37137758Y-85245024D01*
X36989924Y-85166005D01*
X36989922Y-85166004D01*
X36860341Y-85059659D01*
X36753996Y-84930078D01*
X36716082Y-84859146D01*
X36674976Y-84782242D01*
X36626313Y-84621823D01*
X36609883Y-84455000D01*
X36626313Y-84288177D01*
X36674976Y-84127758D01*
X36753995Y-83979924D01*
X36753996Y-83979922D01*
X36860341Y-83850341D01*
X36989922Y-83743996D01*
X37018599Y-83728668D01*
X37137758Y-83664976D01*
X37298177Y-83616313D01*
X37423196Y-83604000D01*
X37506804Y-83604000D01*
X37631823Y-83616313D01*
X37631823Y-83616313D01*
G37*
G36*
X56681823Y-83616313D02*
G01*
X56842242Y-83664976D01*
X56961401Y-83728668D01*
X56990078Y-83743996D01*
X57119659Y-83850341D01*
X57226004Y-83979922D01*
X57226005Y-83979924D01*
X57305024Y-84127758D01*
X57353687Y-84288177D01*
X57370117Y-84455000D01*
X57353687Y-84621823D01*
X57305024Y-84782242D01*
X57263918Y-84859146D01*
X57226004Y-84930078D01*
X57119659Y-85059659D01*
X56990078Y-85166004D01*
X56990076Y-85166005D01*
X56842242Y-85245024D01*
X56681823Y-85293687D01*
X56556804Y-85306000D01*
X56473196Y-85306000D01*
X56348177Y-85293687D01*
X56187758Y-85245024D01*
X56039924Y-85166005D01*
X56039922Y-85166004D01*
X55910341Y-85059659D01*
X55803996Y-84930078D01*
X55766082Y-84859146D01*
X55724976Y-84782242D01*
X55676313Y-84621823D01*
X55659883Y-84455000D01*
X55676313Y-84288177D01*
X55724976Y-84127758D01*
X55803995Y-83979924D01*
X55803996Y-83979922D01*
X55910341Y-83850341D01*
X56039922Y-83743996D01*
X56068599Y-83728668D01*
X56187758Y-83664976D01*
X56348177Y-83616313D01*
X56473196Y-83604000D01*
X56556804Y-83604000D01*
X56681823Y-83616313D01*
X56681823Y-83616313D01*
G37*
G36*
X75731823Y-83616313D02*
G01*
X75892242Y-83664976D01*
X76011401Y-83728668D01*
X76040078Y-83743996D01*
X76169659Y-83850341D01*
X76276004Y-83979922D01*
X76276005Y-83979924D01*
X76355024Y-84127758D01*
X76403687Y-84288177D01*
X76420117Y-84455000D01*
X76403687Y-84621823D01*
X76355024Y-84782242D01*
X76313918Y-84859146D01*
X76276004Y-84930078D01*
X76169659Y-85059659D01*
X76040078Y-85166004D01*
X76040076Y-85166005D01*
X75892242Y-85245024D01*
X75731823Y-85293687D01*
X75606804Y-85306000D01*
X75523196Y-85306000D01*
X75398177Y-85293687D01*
X75237758Y-85245024D01*
X75089924Y-85166005D01*
X75089922Y-85166004D01*
X74960341Y-85059659D01*
X74853996Y-84930078D01*
X74816082Y-84859146D01*
X74774976Y-84782242D01*
X74726313Y-84621823D01*
X74709883Y-84455000D01*
X74726313Y-84288177D01*
X74774976Y-84127758D01*
X74853995Y-83979924D01*
X74853996Y-83979922D01*
X74960341Y-83850341D01*
X75089922Y-83743996D01*
X75118599Y-83728668D01*
X75237758Y-83664976D01*
X75398177Y-83616313D01*
X75523196Y-83604000D01*
X75606804Y-83604000D01*
X75731823Y-83616313D01*
X75731823Y-83616313D01*
G37*
G36*
X96790483Y-82928335D02*
G01*
X96959240Y-82998236D01*
X97111118Y-83099718D01*
X97240282Y-83228882D01*
X97341764Y-83380760D01*
X97411665Y-83549517D01*
X97447300Y-83728668D01*
X97447300Y-83911332D01*
X97411665Y-84090483D01*
X97341764Y-84259240D01*
X97240282Y-84411118D01*
X97111118Y-84540282D01*
X96959240Y-84641764D01*
X96790483Y-84711665D01*
X96611332Y-84747300D01*
X96428668Y-84747300D01*
X96249517Y-84711665D01*
X96080760Y-84641764D01*
X95928882Y-84540282D01*
X95799718Y-84411118D01*
X95698236Y-84259240D01*
X95628335Y-84090483D01*
X95592700Y-83911332D01*
X95592700Y-83728668D01*
X95628335Y-83549517D01*
X95698236Y-83380760D01*
X95799718Y-83228882D01*
X95928882Y-83099718D01*
X96080760Y-82998236D01*
X96249517Y-82928335D01*
X96428668Y-82892700D01*
X96611332Y-82892700D01*
X96790483Y-82928335D01*
X96790483Y-82928335D01*
G37*
G36*
X112030483Y-82928335D02*
G01*
X112199240Y-82998236D01*
X112351118Y-83099718D01*
X112480282Y-83228882D01*
X112581764Y-83380760D01*
X112651665Y-83549517D01*
X112687300Y-83728668D01*
X112687300Y-83911332D01*
X112651665Y-84090483D01*
X112581764Y-84259240D01*
X112480282Y-84411118D01*
X112351118Y-84540282D01*
X112199240Y-84641764D01*
X112030483Y-84711665D01*
X111851332Y-84747300D01*
X111668668Y-84747300D01*
X111489517Y-84711665D01*
X111320760Y-84641764D01*
X111168882Y-84540282D01*
X111039718Y-84411118D01*
X110938236Y-84259240D01*
X110868335Y-84090483D01*
X110832700Y-83911332D01*
X110832700Y-83728668D01*
X110868335Y-83549517D01*
X110938236Y-83380760D01*
X111039718Y-83228882D01*
X111168882Y-83099718D01*
X111320760Y-82998236D01*
X111489517Y-82928335D01*
X111668668Y-82892700D01*
X111851332Y-82892700D01*
X112030483Y-82928335D01*
X112030483Y-82928335D01*
G37*
G36*
X112030483Y-80388335D02*
G01*
X112199240Y-80458236D01*
X112351118Y-80559718D01*
X112480282Y-80688882D01*
X112581764Y-80840760D01*
X112651665Y-81009517D01*
X112687300Y-81188668D01*
X112687300Y-81371332D01*
X112651665Y-81550483D01*
X112581764Y-81719240D01*
X112480282Y-81871118D01*
X112351118Y-82000282D01*
X112199240Y-82101764D01*
X112030483Y-82171665D01*
X111851332Y-82207300D01*
X111668668Y-82207300D01*
X111489517Y-82171665D01*
X111320760Y-82101764D01*
X111168882Y-82000282D01*
X111039718Y-81871118D01*
X110938236Y-81719240D01*
X110868335Y-81550483D01*
X110832700Y-81371332D01*
X110832700Y-81188668D01*
X110868335Y-81009517D01*
X110938236Y-80840760D01*
X111039718Y-80688882D01*
X111168882Y-80559718D01*
X111320760Y-80458236D01*
X111489517Y-80388335D01*
X111668668Y-80352700D01*
X111851332Y-80352700D01*
X112030483Y-80388335D01*
X112030483Y-80388335D01*
G37*
G36*
X96790483Y-80388335D02*
G01*
X96959240Y-80458236D01*
X97111118Y-80559718D01*
X97240282Y-80688882D01*
X97341764Y-80840760D01*
X97411665Y-81009517D01*
X97447300Y-81188668D01*
X97447300Y-81371332D01*
X97411665Y-81550483D01*
X97341764Y-81719240D01*
X97240282Y-81871118D01*
X97111118Y-82000282D01*
X96959240Y-82101764D01*
X96790483Y-82171665D01*
X96611332Y-82207300D01*
X96428668Y-82207300D01*
X96249517Y-82171665D01*
X96080760Y-82101764D01*
X95928882Y-82000282D01*
X95799718Y-81871118D01*
X95698236Y-81719240D01*
X95628335Y-81550483D01*
X95592700Y-81371332D01*
X95592700Y-81188668D01*
X95628335Y-81009517D01*
X95698236Y-80840760D01*
X95799718Y-80688882D01*
X95928882Y-80559718D01*
X96080760Y-80458236D01*
X96249517Y-80388335D01*
X96428668Y-80352700D01*
X96611332Y-80352700D01*
X96790483Y-80388335D01*
X96790483Y-80388335D01*
G37*
G36*
X112030483Y-77848335D02*
G01*
X112199240Y-77918236D01*
X112351118Y-78019718D01*
X112480282Y-78148882D01*
X112581764Y-78300760D01*
X112651665Y-78469517D01*
X112687300Y-78648668D01*
X112687300Y-78831332D01*
X112651665Y-79010483D01*
X112581764Y-79179240D01*
X112480282Y-79331118D01*
X112351118Y-79460282D01*
X112199240Y-79561764D01*
X112030483Y-79631665D01*
X111851332Y-79667300D01*
X111668668Y-79667300D01*
X111489517Y-79631665D01*
X111320760Y-79561764D01*
X111168882Y-79460282D01*
X111039718Y-79331118D01*
X110938236Y-79179240D01*
X110868335Y-79010483D01*
X110832700Y-78831332D01*
X110832700Y-78648668D01*
X110868335Y-78469517D01*
X110938236Y-78300760D01*
X111039718Y-78148882D01*
X111168882Y-78019718D01*
X111320760Y-77918236D01*
X111489517Y-77848335D01*
X111668668Y-77812700D01*
X111851332Y-77812700D01*
X112030483Y-77848335D01*
X112030483Y-77848335D01*
G37*
G36*
X96790483Y-77848335D02*
G01*
X96959240Y-77918236D01*
X97111118Y-78019718D01*
X97240282Y-78148882D01*
X97341764Y-78300760D01*
X97411665Y-78469517D01*
X97447300Y-78648668D01*
X97447300Y-78831332D01*
X97411665Y-79010483D01*
X97341764Y-79179240D01*
X97240282Y-79331118D01*
X97111118Y-79460282D01*
X96959240Y-79561764D01*
X96790483Y-79631665D01*
X96611332Y-79667300D01*
X96428668Y-79667300D01*
X96249517Y-79631665D01*
X96080760Y-79561764D01*
X95928882Y-79460282D01*
X95799718Y-79331118D01*
X95698236Y-79179240D01*
X95628335Y-79010483D01*
X95592700Y-78831332D01*
X95592700Y-78648668D01*
X95628335Y-78469517D01*
X95698236Y-78300760D01*
X95799718Y-78148882D01*
X95928882Y-78019718D01*
X96080760Y-77918236D01*
X96249517Y-77848335D01*
X96428668Y-77812700D01*
X96611332Y-77812700D01*
X96790483Y-77848335D01*
X96790483Y-77848335D01*
G37*
G36*
X56763228Y-76016703D02*
G01*
X56918100Y-76080853D01*
X57057481Y-76173985D01*
X57176015Y-76292519D01*
X57269147Y-76431900D01*
X57333297Y-76586772D01*
X57366000Y-76751184D01*
X57366000Y-76918816D01*
X57333297Y-77083228D01*
X57269147Y-77238100D01*
X57176015Y-77377481D01*
X57057481Y-77496015D01*
X56918100Y-77589147D01*
X56763228Y-77653297D01*
X56598816Y-77686000D01*
X56431184Y-77686000D01*
X56266772Y-77653297D01*
X56111900Y-77589147D01*
X55972519Y-77496015D01*
X55853985Y-77377481D01*
X55760853Y-77238100D01*
X55696703Y-77083228D01*
X55664000Y-76918816D01*
X55664000Y-76751184D01*
X55696703Y-76586772D01*
X55760853Y-76431900D01*
X55853985Y-76292519D01*
X55972519Y-76173985D01*
X56111900Y-76080853D01*
X56266772Y-76016703D01*
X56431184Y-75984000D01*
X56598816Y-75984000D01*
X56763228Y-76016703D01*
X56763228Y-76016703D01*
G37*
G36*
X37713228Y-76016703D02*
G01*
X37868100Y-76080853D01*
X38007481Y-76173985D01*
X38126015Y-76292519D01*
X38219147Y-76431900D01*
X38283297Y-76586772D01*
X38316000Y-76751184D01*
X38316000Y-76918816D01*
X38283297Y-77083228D01*
X38219147Y-77238100D01*
X38126015Y-77377481D01*
X38007481Y-77496015D01*
X37868100Y-77589147D01*
X37713228Y-77653297D01*
X37548816Y-77686000D01*
X37381184Y-77686000D01*
X37216772Y-77653297D01*
X37061900Y-77589147D01*
X36922519Y-77496015D01*
X36803985Y-77377481D01*
X36710853Y-77238100D01*
X36646703Y-77083228D01*
X36614000Y-76918816D01*
X36614000Y-76751184D01*
X36646703Y-76586772D01*
X36710853Y-76431900D01*
X36803985Y-76292519D01*
X36922519Y-76173985D01*
X37061900Y-76080853D01*
X37216772Y-76016703D01*
X37381184Y-75984000D01*
X37548816Y-75984000D01*
X37713228Y-76016703D01*
X37713228Y-76016703D01*
G37*
G36*
X75813228Y-76016703D02*
G01*
X75968100Y-76080853D01*
X76107481Y-76173985D01*
X76226015Y-76292519D01*
X76319147Y-76431900D01*
X76383297Y-76586772D01*
X76416000Y-76751184D01*
X76416000Y-76918816D01*
X76383297Y-77083228D01*
X76319147Y-77238100D01*
X76226015Y-77377481D01*
X76107481Y-77496015D01*
X75968100Y-77589147D01*
X75813228Y-77653297D01*
X75648816Y-77686000D01*
X75481184Y-77686000D01*
X75316772Y-77653297D01*
X75161900Y-77589147D01*
X75022519Y-77496015D01*
X74903985Y-77377481D01*
X74810853Y-77238100D01*
X74746703Y-77083228D01*
X74714000Y-76918816D01*
X74714000Y-76751184D01*
X74746703Y-76586772D01*
X74810853Y-76431900D01*
X74903985Y-76292519D01*
X75022519Y-76173985D01*
X75161900Y-76080853D01*
X75316772Y-76016703D01*
X75481184Y-75984000D01*
X75648816Y-75984000D01*
X75813228Y-76016703D01*
X75813228Y-76016703D01*
G37*
G36*
X112030483Y-75308335D02*
G01*
X112199240Y-75378236D01*
X112351118Y-75479718D01*
X112480282Y-75608882D01*
X112581764Y-75760760D01*
X112651665Y-75929517D01*
X112687300Y-76108668D01*
X112687300Y-76291332D01*
X112651665Y-76470483D01*
X112581764Y-76639240D01*
X112480282Y-76791118D01*
X112351118Y-76920282D01*
X112199240Y-77021764D01*
X112030483Y-77091665D01*
X111851332Y-77127300D01*
X111668668Y-77127300D01*
X111489517Y-77091665D01*
X111320760Y-77021764D01*
X111168882Y-76920282D01*
X111039718Y-76791118D01*
X110938236Y-76639240D01*
X110868335Y-76470483D01*
X110832700Y-76291332D01*
X110832700Y-76108668D01*
X110868335Y-75929517D01*
X110938236Y-75760760D01*
X111039718Y-75608882D01*
X111168882Y-75479718D01*
X111320760Y-75378236D01*
X111489517Y-75308335D01*
X111668668Y-75272700D01*
X111851332Y-75272700D01*
X112030483Y-75308335D01*
X112030483Y-75308335D01*
G37*
G36*
X96790483Y-75308335D02*
G01*
X96959240Y-75378236D01*
X97111118Y-75479718D01*
X97240282Y-75608882D01*
X97341764Y-75760760D01*
X97411665Y-75929517D01*
X97447300Y-76108668D01*
X97447300Y-76291332D01*
X97411665Y-76470483D01*
X97341764Y-76639240D01*
X97240282Y-76791118D01*
X97111118Y-76920282D01*
X96959240Y-77021764D01*
X96790483Y-77091665D01*
X96611332Y-77127300D01*
X96428668Y-77127300D01*
X96249517Y-77091665D01*
X96080760Y-77021764D01*
X95928882Y-76920282D01*
X95799718Y-76791118D01*
X95698236Y-76639240D01*
X95628335Y-76470483D01*
X95592700Y-76291332D01*
X95592700Y-76108668D01*
X95628335Y-75929517D01*
X95698236Y-75760760D01*
X95799718Y-75608882D01*
X95928882Y-75479718D01*
X96080760Y-75378236D01*
X96249517Y-75308335D01*
X96428668Y-75272700D01*
X96611332Y-75272700D01*
X96790483Y-75308335D01*
X96790483Y-75308335D01*
G37*
G36*
X66789875Y-74622479D02*
G01*
X66863516Y-74644818D01*
X66900337Y-74655987D01*
X67002139Y-74710402D01*
X67059227Y-74757253D01*
X67091369Y-74783631D01*
X67164598Y-74872861D01*
X67164599Y-74872863D01*
X67219013Y-74974662D01*
X67230182Y-75011483D01*
X67252521Y-75085124D01*
X67261000Y-75171215D01*
X67261000Y-75958785D01*
X67252521Y-76044876D01*
X67241607Y-76080853D01*
X67219013Y-76155338D01*
X67164598Y-76257140D01*
X67091370Y-76346370D01*
X67002140Y-76419598D01*
X66900338Y-76474013D01*
X66863517Y-76485182D01*
X66789876Y-76507521D01*
X66675000Y-76518835D01*
X66560125Y-76507521D01*
X66486484Y-76485182D01*
X66449663Y-76474013D01*
X66347861Y-76419598D01*
X66258631Y-76346370D01*
X66185402Y-76257138D01*
X66150240Y-76191355D01*
X66136627Y-76170980D01*
X66119300Y-76153653D01*
X66098925Y-76140040D01*
X66076286Y-76130662D01*
X66052253Y-76125882D01*
X66027749Y-76125882D01*
X66003716Y-76130662D01*
X65981077Y-76140040D01*
X65960702Y-76153653D01*
X65943375Y-76170980D01*
X65929762Y-76191354D01*
X65894598Y-76257140D01*
X65821370Y-76346370D01*
X65732140Y-76419598D01*
X65630338Y-76474013D01*
X65593517Y-76485182D01*
X65519876Y-76507521D01*
X65405000Y-76518835D01*
X65290125Y-76507521D01*
X65216484Y-76485182D01*
X65179663Y-76474013D01*
X65077861Y-76419598D01*
X64988631Y-76346370D01*
X64915402Y-76257138D01*
X64880240Y-76191355D01*
X64866627Y-76170980D01*
X64849300Y-76153653D01*
X64828925Y-76140040D01*
X64806286Y-76130662D01*
X64782253Y-76125882D01*
X64757749Y-76125882D01*
X64733716Y-76130662D01*
X64711077Y-76140040D01*
X64690702Y-76153653D01*
X64673375Y-76170980D01*
X64659762Y-76191354D01*
X64624598Y-76257140D01*
X64551370Y-76346370D01*
X64462140Y-76419598D01*
X64360338Y-76474013D01*
X64323517Y-76485182D01*
X64249876Y-76507521D01*
X64135000Y-76518835D01*
X64020125Y-76507521D01*
X63946484Y-76485182D01*
X63909663Y-76474013D01*
X63807861Y-76419598D01*
X63718631Y-76346370D01*
X63672625Y-76290310D01*
X63655298Y-76272983D01*
X63634924Y-76259369D01*
X63612285Y-76249992D01*
X63588252Y-76245211D01*
X63563748Y-76245211D01*
X63539714Y-76249991D01*
X63517076Y-76259368D01*
X63496701Y-76272982D01*
X63479374Y-76290309D01*
X63465760Y-76310683D01*
X63456383Y-76333322D01*
X63451602Y-76357355D01*
X63451000Y-76369608D01*
X63451000Y-76516000D01*
X62279000Y-76516000D01*
X62279000Y-74614000D01*
X63451000Y-74614000D01*
X63451000Y-74760392D01*
X63453402Y-74784778D01*
X63460515Y-74808227D01*
X63472066Y-74829838D01*
X63487611Y-74848780D01*
X63506553Y-74864325D01*
X63528164Y-74875876D01*
X63551613Y-74882989D01*
X63575999Y-74885391D01*
X63600385Y-74882989D01*
X63623834Y-74875876D01*
X63645445Y-74864325D01*
X63664387Y-74848780D01*
X63672625Y-74839690D01*
X63718629Y-74783634D01*
X63718631Y-74783631D01*
X63807861Y-74710402D01*
X63819507Y-74704177D01*
X63909662Y-74655987D01*
X63946483Y-74644818D01*
X64020124Y-74622479D01*
X64135000Y-74611165D01*
X64249875Y-74622479D01*
X64323516Y-74644818D01*
X64360337Y-74655987D01*
X64462139Y-74710402D01*
X64519227Y-74757253D01*
X64551369Y-74783631D01*
X64624598Y-74872861D01*
X64624601Y-74872865D01*
X64659761Y-74938645D01*
X64673374Y-74959020D01*
X64690701Y-74976347D01*
X64711076Y-74989960D01*
X64733715Y-74999338D01*
X64757748Y-75004118D01*
X64782252Y-75004118D01*
X64806285Y-74999338D01*
X64828924Y-74989960D01*
X64849299Y-74976347D01*
X64866626Y-74959020D01*
X64880239Y-74938646D01*
X64915402Y-74872861D01*
X64988629Y-74783634D01*
X64988631Y-74783631D01*
X65077861Y-74710402D01*
X65089507Y-74704177D01*
X65179662Y-74655987D01*
X65216483Y-74644818D01*
X65290124Y-74622479D01*
X65405000Y-74611165D01*
X65519875Y-74622479D01*
X65593516Y-74644818D01*
X65630337Y-74655987D01*
X65732139Y-74710402D01*
X65789227Y-74757253D01*
X65821369Y-74783631D01*
X65894598Y-74872861D01*
X65894601Y-74872865D01*
X65929761Y-74938645D01*
X65943374Y-74959020D01*
X65960701Y-74976347D01*
X65981076Y-74989960D01*
X66003715Y-74999338D01*
X66027748Y-75004118D01*
X66052252Y-75004118D01*
X66076285Y-74999338D01*
X66098924Y-74989960D01*
X66119299Y-74976347D01*
X66136626Y-74959020D01*
X66150239Y-74938646D01*
X66185402Y-74872861D01*
X66258629Y-74783634D01*
X66258631Y-74783631D01*
X66347861Y-74710402D01*
X66359507Y-74704177D01*
X66449662Y-74655987D01*
X66486483Y-74644818D01*
X66560124Y-74622479D01*
X66675000Y-74611165D01*
X66789875Y-74622479D01*
X66789875Y-74622479D01*
G37*
G36*
X47739875Y-74622479D02*
G01*
X47813516Y-74644818D01*
X47850337Y-74655987D01*
X47952139Y-74710402D01*
X48009227Y-74757253D01*
X48041369Y-74783631D01*
X48114598Y-74872861D01*
X48114599Y-74872863D01*
X48169013Y-74974662D01*
X48180182Y-75011483D01*
X48202521Y-75085124D01*
X48211000Y-75171215D01*
X48211000Y-75958785D01*
X48202521Y-76044876D01*
X48191607Y-76080853D01*
X48169013Y-76155338D01*
X48114598Y-76257140D01*
X48041370Y-76346370D01*
X47952140Y-76419598D01*
X47850338Y-76474013D01*
X47813517Y-76485182D01*
X47739876Y-76507521D01*
X47625000Y-76518835D01*
X47510125Y-76507521D01*
X47436484Y-76485182D01*
X47399663Y-76474013D01*
X47297861Y-76419598D01*
X47208631Y-76346370D01*
X47135402Y-76257138D01*
X47100240Y-76191355D01*
X47086627Y-76170980D01*
X47069300Y-76153653D01*
X47048925Y-76140040D01*
X47026286Y-76130662D01*
X47002253Y-76125882D01*
X46977749Y-76125882D01*
X46953716Y-76130662D01*
X46931077Y-76140040D01*
X46910702Y-76153653D01*
X46893375Y-76170980D01*
X46879762Y-76191354D01*
X46844598Y-76257140D01*
X46771370Y-76346370D01*
X46682140Y-76419598D01*
X46580338Y-76474013D01*
X46543517Y-76485182D01*
X46469876Y-76507521D01*
X46355000Y-76518835D01*
X46240125Y-76507521D01*
X46166484Y-76485182D01*
X46129663Y-76474013D01*
X46027861Y-76419598D01*
X45938631Y-76346370D01*
X45865402Y-76257138D01*
X45830240Y-76191355D01*
X45816627Y-76170980D01*
X45799300Y-76153653D01*
X45778925Y-76140040D01*
X45756286Y-76130662D01*
X45732253Y-76125882D01*
X45707749Y-76125882D01*
X45683716Y-76130662D01*
X45661077Y-76140040D01*
X45640702Y-76153653D01*
X45623375Y-76170980D01*
X45609762Y-76191354D01*
X45574598Y-76257140D01*
X45501370Y-76346370D01*
X45412140Y-76419598D01*
X45310338Y-76474013D01*
X45273517Y-76485182D01*
X45199876Y-76507521D01*
X45085000Y-76518835D01*
X44970125Y-76507521D01*
X44896484Y-76485182D01*
X44859663Y-76474013D01*
X44757861Y-76419598D01*
X44668631Y-76346370D01*
X44622625Y-76290310D01*
X44605298Y-76272983D01*
X44584924Y-76259369D01*
X44562285Y-76249992D01*
X44538252Y-76245211D01*
X44513748Y-76245211D01*
X44489714Y-76249991D01*
X44467076Y-76259368D01*
X44446701Y-76272982D01*
X44429374Y-76290309D01*
X44415760Y-76310683D01*
X44406383Y-76333322D01*
X44401602Y-76357355D01*
X44401000Y-76369608D01*
X44401000Y-76516000D01*
X43229000Y-76516000D01*
X43229000Y-74614000D01*
X44401000Y-74614000D01*
X44401000Y-74760392D01*
X44403402Y-74784778D01*
X44410515Y-74808227D01*
X44422066Y-74829838D01*
X44437611Y-74848780D01*
X44456553Y-74864325D01*
X44478164Y-74875876D01*
X44501613Y-74882989D01*
X44525999Y-74885391D01*
X44550385Y-74882989D01*
X44573834Y-74875876D01*
X44595445Y-74864325D01*
X44614387Y-74848780D01*
X44622625Y-74839690D01*
X44668629Y-74783634D01*
X44668631Y-74783631D01*
X44757861Y-74710402D01*
X44769507Y-74704177D01*
X44859662Y-74655987D01*
X44896483Y-74644818D01*
X44970124Y-74622479D01*
X45085000Y-74611165D01*
X45199875Y-74622479D01*
X45273516Y-74644818D01*
X45310337Y-74655987D01*
X45412139Y-74710402D01*
X45469227Y-74757253D01*
X45501369Y-74783631D01*
X45574598Y-74872861D01*
X45574601Y-74872865D01*
X45609761Y-74938645D01*
X45623374Y-74959020D01*
X45640701Y-74976347D01*
X45661076Y-74989960D01*
X45683715Y-74999338D01*
X45707748Y-75004118D01*
X45732252Y-75004118D01*
X45756285Y-74999338D01*
X45778924Y-74989960D01*
X45799299Y-74976347D01*
X45816626Y-74959020D01*
X45830239Y-74938646D01*
X45865402Y-74872861D01*
X45938629Y-74783634D01*
X45938631Y-74783631D01*
X46027861Y-74710402D01*
X46039507Y-74704177D01*
X46129662Y-74655987D01*
X46166483Y-74644818D01*
X46240124Y-74622479D01*
X46355000Y-74611165D01*
X46469875Y-74622479D01*
X46543516Y-74644818D01*
X46580337Y-74655987D01*
X46682139Y-74710402D01*
X46739227Y-74757253D01*
X46771369Y-74783631D01*
X46844598Y-74872861D01*
X46844601Y-74872865D01*
X46879761Y-74938645D01*
X46893374Y-74959020D01*
X46910701Y-74976347D01*
X46931076Y-74989960D01*
X46953715Y-74999338D01*
X46977748Y-75004118D01*
X47002252Y-75004118D01*
X47026285Y-74999338D01*
X47048924Y-74989960D01*
X47069299Y-74976347D01*
X47086626Y-74959020D01*
X47100239Y-74938646D01*
X47135402Y-74872861D01*
X47208629Y-74783634D01*
X47208631Y-74783631D01*
X47297861Y-74710402D01*
X47309507Y-74704177D01*
X47399662Y-74655987D01*
X47436483Y-74644818D01*
X47510124Y-74622479D01*
X47625000Y-74611165D01*
X47739875Y-74622479D01*
X47739875Y-74622479D01*
G37*
G36*
X85839875Y-74622479D02*
G01*
X85913516Y-74644818D01*
X85950337Y-74655987D01*
X86052139Y-74710402D01*
X86109227Y-74757253D01*
X86141369Y-74783631D01*
X86214598Y-74872861D01*
X86214599Y-74872863D01*
X86269013Y-74974662D01*
X86280182Y-75011483D01*
X86302521Y-75085124D01*
X86311000Y-75171215D01*
X86311000Y-75958785D01*
X86302521Y-76044876D01*
X86291607Y-76080853D01*
X86269013Y-76155338D01*
X86214598Y-76257140D01*
X86141370Y-76346370D01*
X86052140Y-76419598D01*
X85950338Y-76474013D01*
X85913517Y-76485182D01*
X85839876Y-76507521D01*
X85725000Y-76518835D01*
X85610125Y-76507521D01*
X85536484Y-76485182D01*
X85499663Y-76474013D01*
X85397861Y-76419598D01*
X85308631Y-76346370D01*
X85235402Y-76257138D01*
X85200240Y-76191355D01*
X85186627Y-76170980D01*
X85169300Y-76153653D01*
X85148925Y-76140040D01*
X85126286Y-76130662D01*
X85102253Y-76125882D01*
X85077749Y-76125882D01*
X85053716Y-76130662D01*
X85031077Y-76140040D01*
X85010702Y-76153653D01*
X84993375Y-76170980D01*
X84979762Y-76191354D01*
X84944598Y-76257140D01*
X84871370Y-76346370D01*
X84782140Y-76419598D01*
X84680338Y-76474013D01*
X84643517Y-76485182D01*
X84569876Y-76507521D01*
X84455000Y-76518835D01*
X84340125Y-76507521D01*
X84266484Y-76485182D01*
X84229663Y-76474013D01*
X84127861Y-76419598D01*
X84038631Y-76346370D01*
X83965402Y-76257138D01*
X83930240Y-76191355D01*
X83916627Y-76170980D01*
X83899300Y-76153653D01*
X83878925Y-76140040D01*
X83856286Y-76130662D01*
X83832253Y-76125882D01*
X83807749Y-76125882D01*
X83783716Y-76130662D01*
X83761077Y-76140040D01*
X83740702Y-76153653D01*
X83723375Y-76170980D01*
X83709762Y-76191354D01*
X83674598Y-76257140D01*
X83601370Y-76346370D01*
X83512140Y-76419598D01*
X83410338Y-76474013D01*
X83373517Y-76485182D01*
X83299876Y-76507521D01*
X83185000Y-76518835D01*
X83070125Y-76507521D01*
X82996484Y-76485182D01*
X82959663Y-76474013D01*
X82857861Y-76419598D01*
X82768631Y-76346370D01*
X82722625Y-76290310D01*
X82705298Y-76272983D01*
X82684924Y-76259369D01*
X82662285Y-76249992D01*
X82638252Y-76245211D01*
X82613748Y-76245211D01*
X82589714Y-76249991D01*
X82567076Y-76259368D01*
X82546701Y-76272982D01*
X82529374Y-76290309D01*
X82515760Y-76310683D01*
X82506383Y-76333322D01*
X82501602Y-76357355D01*
X82501000Y-76369608D01*
X82501000Y-76516000D01*
X81329000Y-76516000D01*
X81329000Y-74614000D01*
X82501000Y-74614000D01*
X82501000Y-74760392D01*
X82503402Y-74784778D01*
X82510515Y-74808227D01*
X82522066Y-74829838D01*
X82537611Y-74848780D01*
X82556553Y-74864325D01*
X82578164Y-74875876D01*
X82601613Y-74882989D01*
X82625999Y-74885391D01*
X82650385Y-74882989D01*
X82673834Y-74875876D01*
X82695445Y-74864325D01*
X82714387Y-74848780D01*
X82722625Y-74839690D01*
X82768629Y-74783634D01*
X82768631Y-74783631D01*
X82857861Y-74710402D01*
X82869507Y-74704177D01*
X82959662Y-74655987D01*
X82996483Y-74644818D01*
X83070124Y-74622479D01*
X83185000Y-74611165D01*
X83299875Y-74622479D01*
X83373516Y-74644818D01*
X83410337Y-74655987D01*
X83512139Y-74710402D01*
X83569227Y-74757253D01*
X83601369Y-74783631D01*
X83674598Y-74872861D01*
X83674601Y-74872865D01*
X83709761Y-74938645D01*
X83723374Y-74959020D01*
X83740701Y-74976347D01*
X83761076Y-74989960D01*
X83783715Y-74999338D01*
X83807748Y-75004118D01*
X83832252Y-75004118D01*
X83856285Y-74999338D01*
X83878924Y-74989960D01*
X83899299Y-74976347D01*
X83916626Y-74959020D01*
X83930239Y-74938646D01*
X83965402Y-74872861D01*
X84038629Y-74783634D01*
X84038631Y-74783631D01*
X84127861Y-74710402D01*
X84139507Y-74704177D01*
X84229662Y-74655987D01*
X84266483Y-74644818D01*
X84340124Y-74622479D01*
X84455000Y-74611165D01*
X84569875Y-74622479D01*
X84643516Y-74644818D01*
X84680337Y-74655987D01*
X84782139Y-74710402D01*
X84839227Y-74757253D01*
X84871369Y-74783631D01*
X84944598Y-74872861D01*
X84944601Y-74872865D01*
X84979761Y-74938645D01*
X84993374Y-74959020D01*
X85010701Y-74976347D01*
X85031076Y-74989960D01*
X85053715Y-74999338D01*
X85077748Y-75004118D01*
X85102252Y-75004118D01*
X85126285Y-74999338D01*
X85148924Y-74989960D01*
X85169299Y-74976347D01*
X85186626Y-74959020D01*
X85200239Y-74938646D01*
X85235402Y-74872861D01*
X85308629Y-74783634D01*
X85308631Y-74783631D01*
X85397861Y-74710402D01*
X85409507Y-74704177D01*
X85499662Y-74655987D01*
X85536483Y-74644818D01*
X85610124Y-74622479D01*
X85725000Y-74611165D01*
X85839875Y-74622479D01*
X85839875Y-74622479D01*
G37*
G36*
X37631823Y-73456313D02*
G01*
X37792242Y-73504976D01*
X37911401Y-73568668D01*
X37940078Y-73583996D01*
X38069659Y-73690341D01*
X38176004Y-73819922D01*
X38176005Y-73819924D01*
X38255024Y-73967758D01*
X38303687Y-74128177D01*
X38320117Y-74295000D01*
X38303687Y-74461823D01*
X38255024Y-74622242D01*
X38207902Y-74710401D01*
X38176004Y-74770078D01*
X38069659Y-74899659D01*
X37940078Y-75006004D01*
X37940076Y-75006005D01*
X37792242Y-75085024D01*
X37792239Y-75085025D01*
X37791909Y-75085125D01*
X37631823Y-75133687D01*
X37506804Y-75146000D01*
X37423196Y-75146000D01*
X37298177Y-75133687D01*
X37138091Y-75085125D01*
X37137761Y-75085025D01*
X37137758Y-75085024D01*
X36989924Y-75006005D01*
X36989922Y-75006004D01*
X36860341Y-74899659D01*
X36753996Y-74770078D01*
X36722098Y-74710401D01*
X36674976Y-74622242D01*
X36626313Y-74461823D01*
X36609883Y-74295000D01*
X36626313Y-74128177D01*
X36674976Y-73967758D01*
X36753995Y-73819924D01*
X36753996Y-73819922D01*
X36860341Y-73690341D01*
X36989922Y-73583996D01*
X37018599Y-73568668D01*
X37137758Y-73504976D01*
X37298177Y-73456313D01*
X37423196Y-73444000D01*
X37506804Y-73444000D01*
X37631823Y-73456313D01*
X37631823Y-73456313D01*
G37*
G36*
X75731823Y-73456313D02*
G01*
X75892242Y-73504976D01*
X76011401Y-73568668D01*
X76040078Y-73583996D01*
X76169659Y-73690341D01*
X76276004Y-73819922D01*
X76276005Y-73819924D01*
X76355024Y-73967758D01*
X76403687Y-74128177D01*
X76420117Y-74295000D01*
X76403687Y-74461823D01*
X76355024Y-74622242D01*
X76307902Y-74710401D01*
X76276004Y-74770078D01*
X76169659Y-74899659D01*
X76040078Y-75006004D01*
X76040076Y-75006005D01*
X75892242Y-75085024D01*
X75892239Y-75085025D01*
X75891909Y-75085125D01*
X75731823Y-75133687D01*
X75606804Y-75146000D01*
X75523196Y-75146000D01*
X75398177Y-75133687D01*
X75238091Y-75085125D01*
X75237761Y-75085025D01*
X75237758Y-75085024D01*
X75089924Y-75006005D01*
X75089922Y-75006004D01*
X74960341Y-74899659D01*
X74853996Y-74770078D01*
X74822098Y-74710401D01*
X74774976Y-74622242D01*
X74726313Y-74461823D01*
X74709883Y-74295000D01*
X74726313Y-74128177D01*
X74774976Y-73967758D01*
X74853995Y-73819924D01*
X74853996Y-73819922D01*
X74960341Y-73690341D01*
X75089922Y-73583996D01*
X75118599Y-73568668D01*
X75237758Y-73504976D01*
X75398177Y-73456313D01*
X75523196Y-73444000D01*
X75606804Y-73444000D01*
X75731823Y-73456313D01*
X75731823Y-73456313D01*
G37*
G36*
X56681823Y-73456313D02*
G01*
X56842242Y-73504976D01*
X56961401Y-73568668D01*
X56990078Y-73583996D01*
X57119659Y-73690341D01*
X57226004Y-73819922D01*
X57226005Y-73819924D01*
X57305024Y-73967758D01*
X57353687Y-74128177D01*
X57370117Y-74295000D01*
X57353687Y-74461823D01*
X57305024Y-74622242D01*
X57257902Y-74710401D01*
X57226004Y-74770078D01*
X57119659Y-74899659D01*
X56990078Y-75006004D01*
X56990076Y-75006005D01*
X56842242Y-75085024D01*
X56842239Y-75085025D01*
X56841909Y-75085125D01*
X56681823Y-75133687D01*
X56556804Y-75146000D01*
X56473196Y-75146000D01*
X56348177Y-75133687D01*
X56188091Y-75085125D01*
X56187761Y-75085025D01*
X56187758Y-75085024D01*
X56039924Y-75006005D01*
X56039922Y-75006004D01*
X55910341Y-74899659D01*
X55803996Y-74770078D01*
X55772098Y-74710401D01*
X55724976Y-74622242D01*
X55676313Y-74461823D01*
X55659883Y-74295000D01*
X55676313Y-74128177D01*
X55724976Y-73967758D01*
X55803995Y-73819924D01*
X55803996Y-73819922D01*
X55910341Y-73690341D01*
X56039922Y-73583996D01*
X56068599Y-73568668D01*
X56187758Y-73504976D01*
X56348177Y-73456313D01*
X56473196Y-73444000D01*
X56556804Y-73444000D01*
X56681823Y-73456313D01*
X56681823Y-73456313D01*
G37*
G36*
X96790483Y-72768335D02*
G01*
X96959240Y-72838236D01*
X97111118Y-72939718D01*
X97240282Y-73068882D01*
X97341764Y-73220760D01*
X97411665Y-73389517D01*
X97447300Y-73568668D01*
X97447300Y-73751332D01*
X97411665Y-73930483D01*
X97341764Y-74099240D01*
X97240282Y-74251118D01*
X97111118Y-74380282D01*
X96959240Y-74481764D01*
X96790483Y-74551665D01*
X96611332Y-74587300D01*
X96428668Y-74587300D01*
X96249517Y-74551665D01*
X96080760Y-74481764D01*
X95928882Y-74380282D01*
X95799718Y-74251118D01*
X95698236Y-74099240D01*
X95628335Y-73930483D01*
X95592700Y-73751332D01*
X95592700Y-73568668D01*
X95628335Y-73389517D01*
X95698236Y-73220760D01*
X95799718Y-73068882D01*
X95928882Y-72939718D01*
X96080760Y-72838236D01*
X96249517Y-72768335D01*
X96428668Y-72732700D01*
X96611332Y-72732700D01*
X96790483Y-72768335D01*
X96790483Y-72768335D01*
G37*
G36*
X112030483Y-72768335D02*
G01*
X112199240Y-72838236D01*
X112351118Y-72939718D01*
X112480282Y-73068882D01*
X112581764Y-73220760D01*
X112651665Y-73389517D01*
X112687300Y-73568668D01*
X112687300Y-73751332D01*
X112651665Y-73930483D01*
X112581764Y-74099240D01*
X112480282Y-74251118D01*
X112351118Y-74380282D01*
X112199240Y-74481764D01*
X112030483Y-74551665D01*
X111851332Y-74587300D01*
X111668668Y-74587300D01*
X111489517Y-74551665D01*
X111320760Y-74481764D01*
X111168882Y-74380282D01*
X111039718Y-74251118D01*
X110938236Y-74099240D01*
X110868335Y-73930483D01*
X110832700Y-73751332D01*
X110832700Y-73568668D01*
X110868335Y-73389517D01*
X110938236Y-73220760D01*
X111039718Y-73068882D01*
X111168882Y-72939718D01*
X111320760Y-72838236D01*
X111489517Y-72768335D01*
X111668668Y-72732700D01*
X111851332Y-72732700D01*
X112030483Y-72768335D01*
X112030483Y-72768335D01*
G37*
G36*
X46318254Y-69147818D02*
G01*
X46691511Y-69302426D01*
X46691513Y-69302427D01*
X47001127Y-69509305D01*
X47027436Y-69526884D01*
X47313116Y-69812564D01*
X47537574Y-70148489D01*
X47692182Y-70521746D01*
X47771000Y-70917993D01*
X47771000Y-71322007D01*
X47692182Y-71718254D01*
X47555887Y-72047300D01*
X47537573Y-72091513D01*
X47313116Y-72427436D01*
X47027436Y-72713116D01*
X46691513Y-72937573D01*
X46691512Y-72937574D01*
X46691511Y-72937574D01*
X46318254Y-73092182D01*
X45922007Y-73171000D01*
X45517993Y-73171000D01*
X45121746Y-73092182D01*
X44748489Y-72937574D01*
X44748488Y-72937574D01*
X44748487Y-72937573D01*
X44412564Y-72713116D01*
X44126884Y-72427436D01*
X43902427Y-72091513D01*
X43884113Y-72047300D01*
X43747818Y-71718254D01*
X43669000Y-71322007D01*
X43669000Y-70917993D01*
X43747818Y-70521746D01*
X43902426Y-70148489D01*
X44126884Y-69812564D01*
X44412564Y-69526884D01*
X44438873Y-69509305D01*
X44748487Y-69302427D01*
X44748489Y-69302426D01*
X45121746Y-69147818D01*
X45517993Y-69069000D01*
X45922007Y-69069000D01*
X46318254Y-69147818D01*
X46318254Y-69147818D01*
G37*
G36*
X65368254Y-69147818D02*
G01*
X65741511Y-69302426D01*
X65741513Y-69302427D01*
X66051127Y-69509305D01*
X66077436Y-69526884D01*
X66363116Y-69812564D01*
X66587574Y-70148489D01*
X66742182Y-70521746D01*
X66821000Y-70917993D01*
X66821000Y-71322007D01*
X66742182Y-71718254D01*
X66605887Y-72047300D01*
X66587573Y-72091513D01*
X66363116Y-72427436D01*
X66077436Y-72713116D01*
X65741513Y-72937573D01*
X65741512Y-72937574D01*
X65741511Y-72937574D01*
X65368254Y-73092182D01*
X64972007Y-73171000D01*
X64567993Y-73171000D01*
X64171746Y-73092182D01*
X63798489Y-72937574D01*
X63798488Y-72937574D01*
X63798487Y-72937573D01*
X63462564Y-72713116D01*
X63176884Y-72427436D01*
X62952427Y-72091513D01*
X62934113Y-72047300D01*
X62797818Y-71718254D01*
X62719000Y-71322007D01*
X62719000Y-70917993D01*
X62797818Y-70521746D01*
X62952426Y-70148489D01*
X63176884Y-69812564D01*
X63462564Y-69526884D01*
X63488873Y-69509305D01*
X63798487Y-69302427D01*
X63798489Y-69302426D01*
X64171746Y-69147818D01*
X64567993Y-69069000D01*
X64972007Y-69069000D01*
X65368254Y-69147818D01*
X65368254Y-69147818D01*
G37*
G36*
X84418254Y-69147818D02*
G01*
X84791511Y-69302426D01*
X84791513Y-69302427D01*
X85101127Y-69509305D01*
X85127436Y-69526884D01*
X85413116Y-69812564D01*
X85637574Y-70148489D01*
X85792182Y-70521746D01*
X85871000Y-70917993D01*
X85871000Y-71322007D01*
X85792182Y-71718254D01*
X85655887Y-72047300D01*
X85637573Y-72091513D01*
X85413116Y-72427436D01*
X85127436Y-72713116D01*
X84791513Y-72937573D01*
X84791512Y-72937574D01*
X84791511Y-72937574D01*
X84418254Y-73092182D01*
X84022007Y-73171000D01*
X83617993Y-73171000D01*
X83221746Y-73092182D01*
X82848489Y-72937574D01*
X82848488Y-72937574D01*
X82848487Y-72937573D01*
X82512564Y-72713116D01*
X82226884Y-72427436D01*
X82002427Y-72091513D01*
X81984113Y-72047300D01*
X81847818Y-71718254D01*
X81769000Y-71322007D01*
X81769000Y-70917993D01*
X81847818Y-70521746D01*
X82002426Y-70148489D01*
X82226884Y-69812564D01*
X82512564Y-69526884D01*
X82538873Y-69509305D01*
X82848487Y-69302427D01*
X82848489Y-69302426D01*
X83221746Y-69147818D01*
X83617993Y-69069000D01*
X84022007Y-69069000D01*
X84418254Y-69147818D01*
X84418254Y-69147818D01*
G37*
G36*
X112030483Y-70228335D02*
G01*
X112199240Y-70298236D01*
X112351118Y-70399718D01*
X112480282Y-70528882D01*
X112581764Y-70680760D01*
X112651665Y-70849517D01*
X112687300Y-71028668D01*
X112687300Y-71211332D01*
X112651665Y-71390483D01*
X112581764Y-71559240D01*
X112480282Y-71711118D01*
X112351118Y-71840282D01*
X112199240Y-71941764D01*
X112030483Y-72011665D01*
X111851332Y-72047300D01*
X111668668Y-72047300D01*
X111489517Y-72011665D01*
X111320760Y-71941764D01*
X111168882Y-71840282D01*
X111039718Y-71711118D01*
X110938236Y-71559240D01*
X110868335Y-71390483D01*
X110832700Y-71211332D01*
X110832700Y-71028668D01*
X110868335Y-70849517D01*
X110938236Y-70680760D01*
X111039718Y-70528882D01*
X111168882Y-70399718D01*
X111320760Y-70298236D01*
X111489517Y-70228335D01*
X111668668Y-70192700D01*
X111851332Y-70192700D01*
X112030483Y-70228335D01*
X112030483Y-70228335D01*
G37*
G36*
X96790483Y-70228335D02*
G01*
X96959240Y-70298236D01*
X97111118Y-70399718D01*
X97240282Y-70528882D01*
X97341764Y-70680760D01*
X97411665Y-70849517D01*
X97447300Y-71028668D01*
X97447300Y-71211332D01*
X97411665Y-71390483D01*
X97341764Y-71559240D01*
X97240282Y-71711118D01*
X97111118Y-71840282D01*
X96959240Y-71941764D01*
X96790483Y-72011665D01*
X96611332Y-72047300D01*
X96428668Y-72047300D01*
X96249517Y-72011665D01*
X96080760Y-71941764D01*
X95928882Y-71840282D01*
X95799718Y-71711118D01*
X95698236Y-71559240D01*
X95628335Y-71390483D01*
X95592700Y-71211332D01*
X95592700Y-71028668D01*
X95628335Y-70849517D01*
X95698236Y-70680760D01*
X95799718Y-70528882D01*
X95928882Y-70399718D01*
X96080760Y-70298236D01*
X96249517Y-70228335D01*
X96428668Y-70192700D01*
X96611332Y-70192700D01*
X96790483Y-70228335D01*
X96790483Y-70228335D01*
G37*
G36*
X40753512Y-70223927D02*
G01*
X40902812Y-70253624D01*
X41066784Y-70321544D01*
X41214354Y-70420147D01*
X41339853Y-70545646D01*
X41438456Y-70693216D01*
X41506376Y-70857188D01*
X41541000Y-71031259D01*
X41541000Y-71208741D01*
X41506376Y-71382812D01*
X41438456Y-71546784D01*
X41339853Y-71694354D01*
X41214354Y-71819853D01*
X41066784Y-71918456D01*
X40902812Y-71986376D01*
X40775672Y-72011665D01*
X40728742Y-72021000D01*
X40551258Y-72021000D01*
X40504328Y-72011665D01*
X40377188Y-71986376D01*
X40213216Y-71918456D01*
X40065646Y-71819853D01*
X39940147Y-71694354D01*
X39841544Y-71546784D01*
X39773624Y-71382812D01*
X39739000Y-71208741D01*
X39739000Y-71031259D01*
X39773624Y-70857188D01*
X39841544Y-70693216D01*
X39940147Y-70545646D01*
X40065646Y-70420147D01*
X40213216Y-70321544D01*
X40377188Y-70253624D01*
X40526488Y-70223927D01*
X40551258Y-70219000D01*
X40728742Y-70219000D01*
X40753512Y-70223927D01*
X40753512Y-70223927D01*
G37*
G36*
X78853512Y-70223927D02*
G01*
X79002812Y-70253624D01*
X79166784Y-70321544D01*
X79314354Y-70420147D01*
X79439853Y-70545646D01*
X79538456Y-70693216D01*
X79606376Y-70857188D01*
X79641000Y-71031259D01*
X79641000Y-71208741D01*
X79606376Y-71382812D01*
X79538456Y-71546784D01*
X79439853Y-71694354D01*
X79314354Y-71819853D01*
X79166784Y-71918456D01*
X79002812Y-71986376D01*
X78875672Y-72011665D01*
X78828742Y-72021000D01*
X78651258Y-72021000D01*
X78604328Y-72011665D01*
X78477188Y-71986376D01*
X78313216Y-71918456D01*
X78165646Y-71819853D01*
X78040147Y-71694354D01*
X77941544Y-71546784D01*
X77873624Y-71382812D01*
X77839000Y-71208741D01*
X77839000Y-71031259D01*
X77873624Y-70857188D01*
X77941544Y-70693216D01*
X78040147Y-70545646D01*
X78165646Y-70420147D01*
X78313216Y-70321544D01*
X78477188Y-70253624D01*
X78626488Y-70223927D01*
X78651258Y-70219000D01*
X78828742Y-70219000D01*
X78853512Y-70223927D01*
X78853512Y-70223927D01*
G37*
G36*
X89013512Y-70223927D02*
G01*
X89162812Y-70253624D01*
X89326784Y-70321544D01*
X89474354Y-70420147D01*
X89599853Y-70545646D01*
X89698456Y-70693216D01*
X89766376Y-70857188D01*
X89801000Y-71031259D01*
X89801000Y-71208741D01*
X89766376Y-71382812D01*
X89698456Y-71546784D01*
X89599853Y-71694354D01*
X89474354Y-71819853D01*
X89326784Y-71918456D01*
X89162812Y-71986376D01*
X89035672Y-72011665D01*
X88988742Y-72021000D01*
X88811258Y-72021000D01*
X88764328Y-72011665D01*
X88637188Y-71986376D01*
X88473216Y-71918456D01*
X88325646Y-71819853D01*
X88200147Y-71694354D01*
X88101544Y-71546784D01*
X88033624Y-71382812D01*
X87999000Y-71208741D01*
X87999000Y-71031259D01*
X88033624Y-70857188D01*
X88101544Y-70693216D01*
X88200147Y-70545646D01*
X88325646Y-70420147D01*
X88473216Y-70321544D01*
X88637188Y-70253624D01*
X88786488Y-70223927D01*
X88811258Y-70219000D01*
X88988742Y-70219000D01*
X89013512Y-70223927D01*
X89013512Y-70223927D01*
G37*
G36*
X50913512Y-70223927D02*
G01*
X51062812Y-70253624D01*
X51226784Y-70321544D01*
X51374354Y-70420147D01*
X51499853Y-70545646D01*
X51598456Y-70693216D01*
X51666376Y-70857188D01*
X51701000Y-71031259D01*
X51701000Y-71208741D01*
X51666376Y-71382812D01*
X51598456Y-71546784D01*
X51499853Y-71694354D01*
X51374354Y-71819853D01*
X51226784Y-71918456D01*
X51062812Y-71986376D01*
X50935672Y-72011665D01*
X50888742Y-72021000D01*
X50711258Y-72021000D01*
X50664328Y-72011665D01*
X50537188Y-71986376D01*
X50373216Y-71918456D01*
X50225646Y-71819853D01*
X50100147Y-71694354D01*
X50001544Y-71546784D01*
X49933624Y-71382812D01*
X49899000Y-71208741D01*
X49899000Y-71031259D01*
X49933624Y-70857188D01*
X50001544Y-70693216D01*
X50100147Y-70545646D01*
X50225646Y-70420147D01*
X50373216Y-70321544D01*
X50537188Y-70253624D01*
X50686488Y-70223927D01*
X50711258Y-70219000D01*
X50888742Y-70219000D01*
X50913512Y-70223927D01*
X50913512Y-70223927D01*
G37*
G36*
X59803512Y-70223927D02*
G01*
X59952812Y-70253624D01*
X60116784Y-70321544D01*
X60264354Y-70420147D01*
X60389853Y-70545646D01*
X60488456Y-70693216D01*
X60556376Y-70857188D01*
X60591000Y-71031259D01*
X60591000Y-71208741D01*
X60556376Y-71382812D01*
X60488456Y-71546784D01*
X60389853Y-71694354D01*
X60264354Y-71819853D01*
X60116784Y-71918456D01*
X59952812Y-71986376D01*
X59825672Y-72011665D01*
X59778742Y-72021000D01*
X59601258Y-72021000D01*
X59554328Y-72011665D01*
X59427188Y-71986376D01*
X59263216Y-71918456D01*
X59115646Y-71819853D01*
X58990147Y-71694354D01*
X58891544Y-71546784D01*
X58823624Y-71382812D01*
X58789000Y-71208741D01*
X58789000Y-71031259D01*
X58823624Y-70857188D01*
X58891544Y-70693216D01*
X58990147Y-70545646D01*
X59115646Y-70420147D01*
X59263216Y-70321544D01*
X59427188Y-70253624D01*
X59576488Y-70223927D01*
X59601258Y-70219000D01*
X59778742Y-70219000D01*
X59803512Y-70223927D01*
X59803512Y-70223927D01*
G37*
G36*
X69963512Y-70223927D02*
G01*
X70112812Y-70253624D01*
X70276784Y-70321544D01*
X70424354Y-70420147D01*
X70549853Y-70545646D01*
X70648456Y-70693216D01*
X70716376Y-70857188D01*
X70751000Y-71031259D01*
X70751000Y-71208741D01*
X70716376Y-71382812D01*
X70648456Y-71546784D01*
X70549853Y-71694354D01*
X70424354Y-71819853D01*
X70276784Y-71918456D01*
X70112812Y-71986376D01*
X69985672Y-72011665D01*
X69938742Y-72021000D01*
X69761258Y-72021000D01*
X69714328Y-72011665D01*
X69587188Y-71986376D01*
X69423216Y-71918456D01*
X69275646Y-71819853D01*
X69150147Y-71694354D01*
X69051544Y-71546784D01*
X68983624Y-71382812D01*
X68949000Y-71208741D01*
X68949000Y-71031259D01*
X68983624Y-70857188D01*
X69051544Y-70693216D01*
X69150147Y-70545646D01*
X69275646Y-70420147D01*
X69423216Y-70321544D01*
X69587188Y-70253624D01*
X69736488Y-70223927D01*
X69761258Y-70219000D01*
X69938742Y-70219000D01*
X69963512Y-70223927D01*
X69963512Y-70223927D01*
G37*
G36*
X54078097Y-69439069D02*
G01*
X54181032Y-69449207D01*
X54372536Y-69507300D01*
X54379149Y-69509306D01*
X54475975Y-69561061D01*
X54561729Y-69606897D01*
X54721765Y-69738235D01*
X54853103Y-69898271D01*
X54898939Y-69984025D01*
X54950694Y-70080851D01*
X54950695Y-70080854D01*
X55010793Y-70278968D01*
X55031085Y-70485000D01*
X55010793Y-70691032D01*
X54962716Y-70849517D01*
X54950694Y-70889149D01*
X54935276Y-70917993D01*
X54853103Y-71071729D01*
X54721765Y-71231765D01*
X54561729Y-71363103D01*
X54510504Y-71390483D01*
X54379149Y-71460694D01*
X54379146Y-71460695D01*
X54181032Y-71520793D01*
X54078097Y-71530931D01*
X54026631Y-71536000D01*
X53923369Y-71536000D01*
X53871903Y-71530931D01*
X53768968Y-71520793D01*
X53570854Y-71460695D01*
X53570851Y-71460694D01*
X53439496Y-71390483D01*
X53388271Y-71363103D01*
X53228235Y-71231765D01*
X53096897Y-71071729D01*
X53014724Y-70917993D01*
X52999306Y-70889149D01*
X52987284Y-70849517D01*
X52939207Y-70691032D01*
X52918915Y-70485000D01*
X52939207Y-70278968D01*
X52999305Y-70080854D01*
X52999306Y-70080851D01*
X53051061Y-69984025D01*
X53096897Y-69898271D01*
X53228235Y-69738235D01*
X53388271Y-69606897D01*
X53474025Y-69561061D01*
X53570851Y-69509306D01*
X53577464Y-69507300D01*
X53768968Y-69449207D01*
X53871903Y-69439069D01*
X53923369Y-69434000D01*
X54026631Y-69434000D01*
X54078097Y-69439069D01*
X54078097Y-69439069D01*
G37*
G36*
X92178097Y-69439069D02*
G01*
X92281032Y-69449207D01*
X92472536Y-69507300D01*
X92479149Y-69509306D01*
X92575975Y-69561061D01*
X92661729Y-69606897D01*
X92821765Y-69738235D01*
X92953103Y-69898271D01*
X92998939Y-69984025D01*
X93050694Y-70080851D01*
X93050695Y-70080854D01*
X93110793Y-70278968D01*
X93131085Y-70485000D01*
X93110793Y-70691032D01*
X93062716Y-70849517D01*
X93050694Y-70889149D01*
X93035276Y-70917993D01*
X92953103Y-71071729D01*
X92821765Y-71231765D01*
X92661729Y-71363103D01*
X92610504Y-71390483D01*
X92479149Y-71460694D01*
X92479146Y-71460695D01*
X92281032Y-71520793D01*
X92178097Y-71530931D01*
X92126631Y-71536000D01*
X92023369Y-71536000D01*
X91971903Y-71530931D01*
X91868968Y-71520793D01*
X91670854Y-71460695D01*
X91670851Y-71460694D01*
X91539496Y-71390483D01*
X91488271Y-71363103D01*
X91328235Y-71231765D01*
X91196897Y-71071729D01*
X91114724Y-70917993D01*
X91099306Y-70889149D01*
X91087284Y-70849517D01*
X91039207Y-70691032D01*
X91018915Y-70485000D01*
X91039207Y-70278968D01*
X91099305Y-70080854D01*
X91099306Y-70080851D01*
X91151061Y-69984025D01*
X91196897Y-69898271D01*
X91328235Y-69738235D01*
X91488271Y-69606897D01*
X91574025Y-69561061D01*
X91670851Y-69509306D01*
X91677464Y-69507300D01*
X91868968Y-69449207D01*
X91971903Y-69439069D01*
X92023369Y-69434000D01*
X92126631Y-69434000D01*
X92178097Y-69439069D01*
X92178097Y-69439069D01*
G37*
G36*
X73128097Y-69439069D02*
G01*
X73231032Y-69449207D01*
X73422536Y-69507300D01*
X73429149Y-69509306D01*
X73525975Y-69561061D01*
X73611729Y-69606897D01*
X73771765Y-69738235D01*
X73903103Y-69898271D01*
X73948939Y-69984025D01*
X74000694Y-70080851D01*
X74000695Y-70080854D01*
X74060793Y-70278968D01*
X74081085Y-70485000D01*
X74060793Y-70691032D01*
X74012716Y-70849517D01*
X74000694Y-70889149D01*
X73985276Y-70917993D01*
X73903103Y-71071729D01*
X73771765Y-71231765D01*
X73611729Y-71363103D01*
X73560504Y-71390483D01*
X73429149Y-71460694D01*
X73429146Y-71460695D01*
X73231032Y-71520793D01*
X73128097Y-71530931D01*
X73076631Y-71536000D01*
X72973369Y-71536000D01*
X72921903Y-71530931D01*
X72818968Y-71520793D01*
X72620854Y-71460695D01*
X72620851Y-71460694D01*
X72489496Y-71390483D01*
X72438271Y-71363103D01*
X72278235Y-71231765D01*
X72146897Y-71071729D01*
X72064724Y-70917993D01*
X72049306Y-70889149D01*
X72037284Y-70849517D01*
X71989207Y-70691032D01*
X71968915Y-70485000D01*
X71989207Y-70278968D01*
X72049305Y-70080854D01*
X72049306Y-70080851D01*
X72101061Y-69984025D01*
X72146897Y-69898271D01*
X72278235Y-69738235D01*
X72438271Y-69606897D01*
X72524025Y-69561061D01*
X72620851Y-69509306D01*
X72627464Y-69507300D01*
X72818968Y-69449207D01*
X72921903Y-69439069D01*
X72973369Y-69434000D01*
X73076631Y-69434000D01*
X73128097Y-69439069D01*
X73128097Y-69439069D01*
G37*
G36*
X80234549Y-67451116D02*
G01*
X80345734Y-67473232D01*
X80555203Y-67559997D01*
X80743720Y-67685960D01*
X80904040Y-67846280D01*
X81030003Y-68034797D01*
X81116768Y-68244266D01*
X81161000Y-68466636D01*
X81161000Y-68693364D01*
X81116768Y-68915734D01*
X81030003Y-69125203D01*
X80904040Y-69313720D01*
X80743720Y-69474040D01*
X80555203Y-69600003D01*
X80555202Y-69600004D01*
X80555201Y-69600004D01*
X80493850Y-69625416D01*
X80345734Y-69686768D01*
X80234549Y-69708884D01*
X80123365Y-69731000D01*
X79896635Y-69731000D01*
X79785451Y-69708884D01*
X79674266Y-69686768D01*
X79526150Y-69625416D01*
X79464799Y-69600004D01*
X79464798Y-69600004D01*
X79464797Y-69600003D01*
X79276280Y-69474040D01*
X79115960Y-69313720D01*
X78989997Y-69125203D01*
X78903232Y-68915734D01*
X78859000Y-68693364D01*
X78859000Y-68466636D01*
X78903232Y-68244266D01*
X78989997Y-68034797D01*
X79115960Y-67846280D01*
X79276280Y-67685960D01*
X79464797Y-67559997D01*
X79674266Y-67473232D01*
X79785451Y-67451116D01*
X79896635Y-67429000D01*
X80123365Y-67429000D01*
X80234549Y-67451116D01*
X80234549Y-67451116D01*
G37*
G36*
X61184549Y-67451116D02*
G01*
X61295734Y-67473232D01*
X61505203Y-67559997D01*
X61693720Y-67685960D01*
X61854040Y-67846280D01*
X61980003Y-68034797D01*
X62066768Y-68244266D01*
X62111000Y-68466636D01*
X62111000Y-68693364D01*
X62066768Y-68915734D01*
X61980003Y-69125203D01*
X61854040Y-69313720D01*
X61693720Y-69474040D01*
X61505203Y-69600003D01*
X61505202Y-69600004D01*
X61505201Y-69600004D01*
X61443850Y-69625416D01*
X61295734Y-69686768D01*
X61184549Y-69708884D01*
X61073365Y-69731000D01*
X60846635Y-69731000D01*
X60735451Y-69708884D01*
X60624266Y-69686768D01*
X60476150Y-69625416D01*
X60414799Y-69600004D01*
X60414798Y-69600004D01*
X60414797Y-69600003D01*
X60226280Y-69474040D01*
X60065960Y-69313720D01*
X59939997Y-69125203D01*
X59853232Y-68915734D01*
X59809000Y-68693364D01*
X59809000Y-68466636D01*
X59853232Y-68244266D01*
X59939997Y-68034797D01*
X60065960Y-67846280D01*
X60226280Y-67685960D01*
X60414797Y-67559997D01*
X60624266Y-67473232D01*
X60735451Y-67451116D01*
X60846635Y-67429000D01*
X61073365Y-67429000D01*
X61184549Y-67451116D01*
X61184549Y-67451116D01*
G37*
G36*
X42134549Y-67451116D02*
G01*
X42245734Y-67473232D01*
X42455203Y-67559997D01*
X42643720Y-67685960D01*
X42804040Y-67846280D01*
X42930003Y-68034797D01*
X43016768Y-68244266D01*
X43061000Y-68466636D01*
X43061000Y-68693364D01*
X43016768Y-68915734D01*
X42930003Y-69125203D01*
X42804040Y-69313720D01*
X42643720Y-69474040D01*
X42455203Y-69600003D01*
X42455202Y-69600004D01*
X42455201Y-69600004D01*
X42393850Y-69625416D01*
X42245734Y-69686768D01*
X42134549Y-69708884D01*
X42023365Y-69731000D01*
X41796635Y-69731000D01*
X41685451Y-69708884D01*
X41574266Y-69686768D01*
X41426150Y-69625416D01*
X41364799Y-69600004D01*
X41364798Y-69600004D01*
X41364797Y-69600003D01*
X41176280Y-69474040D01*
X41015960Y-69313720D01*
X40889997Y-69125203D01*
X40803232Y-68915734D01*
X40759000Y-68693364D01*
X40759000Y-68466636D01*
X40803232Y-68244266D01*
X40889997Y-68034797D01*
X41015960Y-67846280D01*
X41176280Y-67685960D01*
X41364797Y-67559997D01*
X41574266Y-67473232D01*
X41685451Y-67451116D01*
X41796635Y-67429000D01*
X42023365Y-67429000D01*
X42134549Y-67451116D01*
X42134549Y-67451116D01*
G37*
G36*
X112030483Y-67688335D02*
G01*
X112199240Y-67758236D01*
X112351118Y-67859718D01*
X112480282Y-67988882D01*
X112581764Y-68140760D01*
X112651665Y-68309517D01*
X112687300Y-68488668D01*
X112687300Y-68671332D01*
X112651665Y-68850483D01*
X112581764Y-69019240D01*
X112480282Y-69171118D01*
X112351118Y-69300282D01*
X112199240Y-69401764D01*
X112030483Y-69471665D01*
X111851332Y-69507300D01*
X111668668Y-69507300D01*
X111489517Y-69471665D01*
X111320760Y-69401764D01*
X111168882Y-69300282D01*
X111039718Y-69171118D01*
X110938236Y-69019240D01*
X110868335Y-68850483D01*
X110832700Y-68671332D01*
X110832700Y-68488668D01*
X110868335Y-68309517D01*
X110938236Y-68140760D01*
X111039718Y-67988882D01*
X111168882Y-67859718D01*
X111320760Y-67758236D01*
X111489517Y-67688335D01*
X111668668Y-67652700D01*
X111851332Y-67652700D01*
X112030483Y-67688335D01*
X112030483Y-67688335D01*
G37*
G36*
X96790483Y-67688335D02*
G01*
X96959240Y-67758236D01*
X97111118Y-67859718D01*
X97240282Y-67988882D01*
X97341764Y-68140760D01*
X97411665Y-68309517D01*
X97447300Y-68488668D01*
X97447300Y-68671332D01*
X97411665Y-68850483D01*
X97341764Y-69019240D01*
X97240282Y-69171118D01*
X97111118Y-69300282D01*
X96959240Y-69401764D01*
X96790483Y-69471665D01*
X96611332Y-69507300D01*
X96428668Y-69507300D01*
X96249517Y-69471665D01*
X96080760Y-69401764D01*
X95928882Y-69300282D01*
X95799718Y-69171118D01*
X95698236Y-69019240D01*
X95628335Y-68850483D01*
X95592700Y-68671332D01*
X95592700Y-68488668D01*
X95628335Y-68309517D01*
X95698236Y-68140760D01*
X95799718Y-67988882D01*
X95928882Y-67859718D01*
X96080760Y-67758236D01*
X96249517Y-67688335D01*
X96428668Y-67652700D01*
X96611332Y-67652700D01*
X96790483Y-67688335D01*
X96790483Y-67688335D01*
G37*
G36*
X37713228Y-65856703D02*
G01*
X37868100Y-65920853D01*
X38007481Y-66013985D01*
X38126015Y-66132519D01*
X38219147Y-66271900D01*
X38283297Y-66426772D01*
X38316000Y-66591184D01*
X38316000Y-66758816D01*
X38283297Y-66923228D01*
X38219147Y-67078100D01*
X38126015Y-67217481D01*
X38007481Y-67336015D01*
X37868100Y-67429147D01*
X37713228Y-67493297D01*
X37548816Y-67526000D01*
X37381184Y-67526000D01*
X37216772Y-67493297D01*
X37061900Y-67429147D01*
X36922519Y-67336015D01*
X36803985Y-67217481D01*
X36710853Y-67078100D01*
X36646703Y-66923228D01*
X36614000Y-66758816D01*
X36614000Y-66591184D01*
X36646703Y-66426772D01*
X36710853Y-66271900D01*
X36803985Y-66132519D01*
X36922519Y-66013985D01*
X37061900Y-65920853D01*
X37216772Y-65856703D01*
X37381184Y-65824000D01*
X37548816Y-65824000D01*
X37713228Y-65856703D01*
X37713228Y-65856703D01*
G37*
G36*
X75813228Y-65856703D02*
G01*
X75968100Y-65920853D01*
X76107481Y-66013985D01*
X76226015Y-66132519D01*
X76319147Y-66271900D01*
X76383297Y-66426772D01*
X76416000Y-66591184D01*
X76416000Y-66758816D01*
X76383297Y-66923228D01*
X76319147Y-67078100D01*
X76226015Y-67217481D01*
X76107481Y-67336015D01*
X75968100Y-67429147D01*
X75813228Y-67493297D01*
X75648816Y-67526000D01*
X75481184Y-67526000D01*
X75316772Y-67493297D01*
X75161900Y-67429147D01*
X75022519Y-67336015D01*
X74903985Y-67217481D01*
X74810853Y-67078100D01*
X74746703Y-66923228D01*
X74714000Y-66758816D01*
X74714000Y-66591184D01*
X74746703Y-66426772D01*
X74810853Y-66271900D01*
X74903985Y-66132519D01*
X75022519Y-66013985D01*
X75161900Y-65920853D01*
X75316772Y-65856703D01*
X75481184Y-65824000D01*
X75648816Y-65824000D01*
X75813228Y-65856703D01*
X75813228Y-65856703D01*
G37*
G36*
X56763228Y-65856703D02*
G01*
X56918100Y-65920853D01*
X57057481Y-66013985D01*
X57176015Y-66132519D01*
X57269147Y-66271900D01*
X57333297Y-66426772D01*
X57366000Y-66591184D01*
X57366000Y-66758816D01*
X57333297Y-66923228D01*
X57269147Y-67078100D01*
X57176015Y-67217481D01*
X57057481Y-67336015D01*
X56918100Y-67429147D01*
X56763228Y-67493297D01*
X56598816Y-67526000D01*
X56431184Y-67526000D01*
X56266772Y-67493297D01*
X56111900Y-67429147D01*
X55972519Y-67336015D01*
X55853985Y-67217481D01*
X55760853Y-67078100D01*
X55696703Y-66923228D01*
X55664000Y-66758816D01*
X55664000Y-66591184D01*
X55696703Y-66426772D01*
X55760853Y-66271900D01*
X55853985Y-66132519D01*
X55972519Y-66013985D01*
X56111900Y-65920853D01*
X56266772Y-65856703D01*
X56431184Y-65824000D01*
X56598816Y-65824000D01*
X56763228Y-65856703D01*
X56763228Y-65856703D01*
G37*
G36*
X48484549Y-64911116D02*
G01*
X48595734Y-64933232D01*
X48805203Y-65019997D01*
X48993720Y-65145960D01*
X49154040Y-65306280D01*
X49280003Y-65494797D01*
X49280004Y-65494799D01*
X49366768Y-65704267D01*
X49409850Y-65920852D01*
X49411000Y-65926636D01*
X49411000Y-66153364D01*
X49366768Y-66375734D01*
X49280003Y-66585203D01*
X49154040Y-66773720D01*
X48993720Y-66934040D01*
X48805203Y-67060003D01*
X48595734Y-67146768D01*
X48484549Y-67168884D01*
X48373365Y-67191000D01*
X48146635Y-67191000D01*
X48035451Y-67168884D01*
X47924266Y-67146768D01*
X47714797Y-67060003D01*
X47526280Y-66934040D01*
X47365960Y-66773720D01*
X47239997Y-66585203D01*
X47153232Y-66375734D01*
X47109000Y-66153364D01*
X47109000Y-65926636D01*
X47110151Y-65920852D01*
X47153232Y-65704267D01*
X47239996Y-65494799D01*
X47239997Y-65494797D01*
X47365960Y-65306280D01*
X47526280Y-65145960D01*
X47714797Y-65019997D01*
X47924266Y-64933232D01*
X48035451Y-64911116D01*
X48146635Y-64889000D01*
X48373365Y-64889000D01*
X48484549Y-64911116D01*
X48484549Y-64911116D01*
G37*
G36*
X86584549Y-64911116D02*
G01*
X86695734Y-64933232D01*
X86905203Y-65019997D01*
X87093720Y-65145960D01*
X87254040Y-65306280D01*
X87380003Y-65494797D01*
X87380004Y-65494799D01*
X87466768Y-65704267D01*
X87509850Y-65920852D01*
X87511000Y-65926636D01*
X87511000Y-66153364D01*
X87466768Y-66375734D01*
X87380003Y-66585203D01*
X87254040Y-66773720D01*
X87093720Y-66934040D01*
X86905203Y-67060003D01*
X86695734Y-67146768D01*
X86584549Y-67168884D01*
X86473365Y-67191000D01*
X86246635Y-67191000D01*
X86135451Y-67168884D01*
X86024266Y-67146768D01*
X85814797Y-67060003D01*
X85626280Y-66934040D01*
X85465960Y-66773720D01*
X85339997Y-66585203D01*
X85253232Y-66375734D01*
X85209000Y-66153364D01*
X85209000Y-65926636D01*
X85210151Y-65920852D01*
X85253232Y-65704267D01*
X85339996Y-65494799D01*
X85339997Y-65494797D01*
X85465960Y-65306280D01*
X85626280Y-65145960D01*
X85814797Y-65019997D01*
X86024266Y-64933232D01*
X86135451Y-64911116D01*
X86246635Y-64889000D01*
X86473365Y-64889000D01*
X86584549Y-64911116D01*
X86584549Y-64911116D01*
G37*
G36*
X67534549Y-64911116D02*
G01*
X67645734Y-64933232D01*
X67855203Y-65019997D01*
X68043720Y-65145960D01*
X68204040Y-65306280D01*
X68330003Y-65494797D01*
X68330004Y-65494799D01*
X68416768Y-65704267D01*
X68459850Y-65920852D01*
X68461000Y-65926636D01*
X68461000Y-66153364D01*
X68416768Y-66375734D01*
X68330003Y-66585203D01*
X68204040Y-66773720D01*
X68043720Y-66934040D01*
X67855203Y-67060003D01*
X67645734Y-67146768D01*
X67534549Y-67168884D01*
X67423365Y-67191000D01*
X67196635Y-67191000D01*
X67085451Y-67168884D01*
X66974266Y-67146768D01*
X66764797Y-67060003D01*
X66576280Y-66934040D01*
X66415960Y-66773720D01*
X66289997Y-66585203D01*
X66203232Y-66375734D01*
X66159000Y-66153364D01*
X66159000Y-65926636D01*
X66160151Y-65920852D01*
X66203232Y-65704267D01*
X66289996Y-65494799D01*
X66289997Y-65494797D01*
X66415960Y-65306280D01*
X66576280Y-65145960D01*
X66764797Y-65019997D01*
X66974266Y-64933232D01*
X67085451Y-64911116D01*
X67196635Y-64889000D01*
X67423365Y-64889000D01*
X67534549Y-64911116D01*
X67534549Y-64911116D01*
G37*
G36*
X96790483Y-65148335D02*
G01*
X96959240Y-65218236D01*
X97111118Y-65319718D01*
X97240282Y-65448882D01*
X97341764Y-65600760D01*
X97411665Y-65769517D01*
X97447300Y-65948668D01*
X97447300Y-66131332D01*
X97411665Y-66310483D01*
X97341764Y-66479240D01*
X97240282Y-66631118D01*
X97111118Y-66760282D01*
X96959240Y-66861764D01*
X96790483Y-66931665D01*
X96611332Y-66967300D01*
X96428668Y-66967300D01*
X96249517Y-66931665D01*
X96080760Y-66861764D01*
X95928882Y-66760282D01*
X95799718Y-66631118D01*
X95698236Y-66479240D01*
X95628335Y-66310483D01*
X95592700Y-66131332D01*
X95592700Y-65948668D01*
X95628335Y-65769517D01*
X95698236Y-65600760D01*
X95799718Y-65448882D01*
X95928882Y-65319718D01*
X96080760Y-65218236D01*
X96249517Y-65148335D01*
X96428668Y-65112700D01*
X96611332Y-65112700D01*
X96790483Y-65148335D01*
X96790483Y-65148335D01*
G37*
G36*
X112030483Y-65148335D02*
G01*
X112199240Y-65218236D01*
X112351118Y-65319718D01*
X112480282Y-65448882D01*
X112581764Y-65600760D01*
X112651665Y-65769517D01*
X112687300Y-65948668D01*
X112687300Y-66131332D01*
X112651665Y-66310483D01*
X112581764Y-66479240D01*
X112480282Y-66631118D01*
X112351118Y-66760282D01*
X112199240Y-66861764D01*
X112030483Y-66931665D01*
X111851332Y-66967300D01*
X111668668Y-66967300D01*
X111489517Y-66931665D01*
X111320760Y-66861764D01*
X111168882Y-66760282D01*
X111039718Y-66631118D01*
X110938236Y-66479240D01*
X110868335Y-66310483D01*
X110832700Y-66131332D01*
X110832700Y-65948668D01*
X110868335Y-65769517D01*
X110938236Y-65600760D01*
X111039718Y-65448882D01*
X111168882Y-65319718D01*
X111320760Y-65218236D01*
X111489517Y-65148335D01*
X111668668Y-65112700D01*
X111851332Y-65112700D01*
X112030483Y-65148335D01*
X112030483Y-65148335D01*
G37*
G36*
X93126000Y-66456000D02*
G01*
X91024000Y-66456000D01*
X91024000Y-64354000D01*
X93126000Y-64354000D01*
X93126000Y-66456000D01*
X93126000Y-66456000D01*
G37*
G36*
X74076000Y-66456000D02*
G01*
X71974000Y-66456000D01*
X71974000Y-64354000D01*
X74076000Y-64354000D01*
X74076000Y-66456000D01*
X74076000Y-66456000D01*
G37*
G36*
X55026000Y-66456000D02*
G01*
X52924000Y-66456000D01*
X52924000Y-64354000D01*
X55026000Y-64354000D01*
X55026000Y-66456000D01*
X55026000Y-66456000D01*
G37*
G36*
X112030483Y-62608335D02*
G01*
X112199240Y-62678236D01*
X112351118Y-62779718D01*
X112480282Y-62908882D01*
X112581764Y-63060760D01*
X112651665Y-63229517D01*
X112687300Y-63408668D01*
X112687300Y-63591332D01*
X112651665Y-63770483D01*
X112581764Y-63939240D01*
X112480282Y-64091118D01*
X112351118Y-64220282D01*
X112199240Y-64321764D01*
X112030483Y-64391665D01*
X111851332Y-64427300D01*
X111668668Y-64427300D01*
X111489517Y-64391665D01*
X111320760Y-64321764D01*
X111168882Y-64220282D01*
X111039718Y-64091118D01*
X110938236Y-63939240D01*
X110868335Y-63770483D01*
X110832700Y-63591332D01*
X110832700Y-63408668D01*
X110868335Y-63229517D01*
X110938236Y-63060760D01*
X111039718Y-62908882D01*
X111168882Y-62779718D01*
X111320760Y-62678236D01*
X111489517Y-62608335D01*
X111668668Y-62572700D01*
X111851332Y-62572700D01*
X112030483Y-62608335D01*
X112030483Y-62608335D01*
G37*
G36*
X97447300Y-64427300D02*
G01*
X95592700Y-64427300D01*
X95592700Y-62572700D01*
X97447300Y-62572700D01*
X97447300Y-64427300D01*
X97447300Y-64427300D01*
G37*
M02*
