G04 #@! TF.GenerationSoftware,KiCad,Pcbnew,(5.1.4)-1*
G04 #@! TF.CreationDate,2019-10-31T20:11:05+00:00*
G04 #@! TF.ProjectId,rgb,7267622e-6b69-4636-9164-5f7063625858,rev?*
G04 #@! TF.SameCoordinates,Original*
G04 #@! TF.FileFunction,Copper,L1,Top*
G04 #@! TF.FilePolarity,Positive*
%FSLAX46Y46*%
G04 Gerber Fmt 4.6, Leading zero omitted, Abs format (unit mm)*
G04 Created by KiCad (PCBNEW (5.1.4)-1) date 2019-10-31 20:11:05*
%MOMM*%
%LPD*%
G04 APERTURE LIST*
%ADD10C,2.200000*%
%ADD11R,1.752600X1.752600*%
%ADD12C,1.752600*%
%ADD13R,1.050000X1.500000*%
%ADD14O,1.050000X1.500000*%
%ADD15O,2.000000X2.000000*%
%ADD16R,2.000000X2.000000*%
%ADD17O,1.600000X1.600000*%
%ADD18C,1.600000*%
%ADD19O,1.070000X1.800000*%
%ADD20R,1.070000X1.800000*%
%ADD21C,0.250000*%
%ADD22C,0.254000*%
G04 APERTURE END LIST*
D10*
X80010000Y-68580000D03*
X86360000Y-66040000D03*
D11*
X96520000Y-63500000D03*
D12*
X96520000Y-66040000D03*
X96520000Y-68580000D03*
X96520000Y-71120000D03*
X96520000Y-73660000D03*
X96520000Y-76200000D03*
X96520000Y-78740000D03*
X96520000Y-81280000D03*
X96520000Y-83820000D03*
X96520000Y-86360000D03*
X96520000Y-88900000D03*
X96520000Y-91440000D03*
X111760000Y-63500000D03*
X111760000Y-66040000D03*
X111760000Y-68580000D03*
X111760000Y-71120000D03*
X111760000Y-73660000D03*
X111760000Y-76200000D03*
X111760000Y-78740000D03*
X111760000Y-81280000D03*
X111760000Y-83820000D03*
X111760000Y-86360000D03*
X111760000Y-88900000D03*
X111760000Y-91440000D03*
D10*
X80010000Y-87630000D03*
X86360000Y-85090000D03*
X60960000Y-87630000D03*
X67310000Y-85090000D03*
X41910000Y-87630000D03*
X48260000Y-85090000D03*
X60960000Y-68580000D03*
X67310000Y-66040000D03*
X41910000Y-68580000D03*
X48260000Y-66040000D03*
D13*
X99060000Y-96520000D03*
D14*
X101600000Y-96520000D03*
X100330000Y-96520000D03*
D13*
X106680000Y-96520000D03*
D14*
X109220000Y-96520000D03*
X107950000Y-96520000D03*
D15*
X53975000Y-70485000D03*
D16*
X53975000Y-65405000D03*
D15*
X53975000Y-84455000D03*
D16*
X53975000Y-89535000D03*
X73025000Y-65405000D03*
D15*
X73025000Y-70485000D03*
D16*
X73025000Y-89535000D03*
D15*
X73025000Y-84455000D03*
X92075000Y-70485000D03*
D16*
X92075000Y-65405000D03*
X92075000Y-89535000D03*
D15*
X92075000Y-84455000D03*
D17*
X37465000Y-74295000D03*
D18*
X37465000Y-66675000D03*
X37465000Y-76835000D03*
D17*
X37465000Y-84455000D03*
X37465000Y-94615000D03*
D18*
X37465000Y-86995000D03*
X56515000Y-66675000D03*
D17*
X56515000Y-74295000D03*
X56515000Y-84455000D03*
D18*
X56515000Y-76835000D03*
X56515000Y-86995000D03*
D17*
X56515000Y-94615000D03*
X75565000Y-74295000D03*
D18*
X75565000Y-66675000D03*
X75565000Y-76835000D03*
D17*
X75565000Y-84455000D03*
X75565000Y-94615000D03*
D18*
X75565000Y-86995000D03*
D19*
X47625000Y-75565000D03*
X46355000Y-75565000D03*
X45085000Y-75565000D03*
D20*
X43815000Y-75565000D03*
X43815000Y-94615000D03*
D19*
X45085000Y-94615000D03*
X46355000Y-94615000D03*
X47625000Y-94615000D03*
D20*
X62865000Y-75565000D03*
D19*
X64135000Y-75565000D03*
X65405000Y-75565000D03*
X66675000Y-75565000D03*
D20*
X62865000Y-94615000D03*
D19*
X64135000Y-94615000D03*
X65405000Y-94615000D03*
X66675000Y-94615000D03*
X85725000Y-75565000D03*
X84455000Y-75565000D03*
X83185000Y-75565000D03*
D20*
X81915000Y-75565000D03*
D19*
X85725000Y-94615000D03*
X84455000Y-94615000D03*
X83185000Y-94615000D03*
D20*
X81915000Y-94615000D03*
D21*
X112636299Y-74536299D02*
X111760000Y-73660000D01*
X112961301Y-94205794D02*
X112961301Y-74861301D01*
X109572085Y-97595010D02*
X112961301Y-94205794D01*
X101180010Y-97595010D02*
X109572085Y-97595010D01*
X100330000Y-96745000D02*
X101180010Y-97595010D01*
X112961301Y-74861301D02*
X112636299Y-74536299D01*
X100330000Y-96520000D02*
X100330000Y-96745000D01*
X52705000Y-70485000D02*
X53905990Y-70485000D01*
X48260000Y-66040000D02*
X52705000Y-70485000D01*
X53340000Y-85090000D02*
X53975000Y-84455000D01*
X48260000Y-85090000D02*
X53340000Y-85090000D01*
X107950000Y-95250000D02*
X111760000Y-91440000D01*
X107950000Y-96520000D02*
X107950000Y-95250000D01*
X71755000Y-70485000D02*
X73025000Y-70485000D01*
X67310000Y-66040000D02*
X71755000Y-70485000D01*
X72390000Y-85090000D02*
X73025000Y-84455000D01*
X67310000Y-85090000D02*
X72390000Y-85090000D01*
X90805000Y-70485000D02*
X92075000Y-70485000D01*
X86360000Y-66040000D02*
X90805000Y-70485000D01*
X94488000Y-84328000D02*
X96520000Y-86360000D01*
X94488000Y-83634178D02*
X94488000Y-84328000D01*
X92768822Y-81915000D02*
X94488000Y-83634178D01*
X41910000Y-87630000D02*
X47625000Y-81915000D01*
X47625000Y-81915000D02*
X92768822Y-81915000D01*
X100398699Y-72458699D02*
X110883701Y-82943701D01*
X95943375Y-72458699D02*
X100398699Y-72458699D01*
X60960000Y-68580000D02*
X65644998Y-68580000D01*
X65644998Y-68580000D02*
X75169998Y-78105000D01*
X93978590Y-78105000D02*
X94799990Y-77283600D01*
X110883701Y-82943701D02*
X111760000Y-83820000D01*
X94799990Y-77283600D02*
X94799990Y-73602084D01*
X75169998Y-78105000D02*
X93978590Y-78105000D01*
X94799990Y-73602084D02*
X95943375Y-72458699D01*
X100398699Y-64838699D02*
X110883701Y-75323701D01*
X93400001Y-67254999D02*
X95816301Y-64838699D01*
X110883701Y-75323701D02*
X111760000Y-76200000D01*
X93400001Y-71121001D02*
X93400001Y-67254999D01*
X93345000Y-71176002D02*
X93400001Y-71121001D01*
X93345000Y-76200000D02*
X93345000Y-71176002D01*
X88901410Y-76200000D02*
X93345000Y-76200000D01*
X86145001Y-73443591D02*
X88901410Y-76200000D01*
X86145001Y-70003999D02*
X86145001Y-73443591D01*
X84936001Y-68794999D02*
X86145001Y-70003999D01*
X95816301Y-64838699D02*
X100398699Y-64838699D01*
X80224999Y-68794999D02*
X84936001Y-68794999D01*
X80010000Y-68580000D02*
X80224999Y-68794999D01*
X91440000Y-85090000D02*
X92075000Y-84455000D01*
X86360000Y-85090000D02*
X91440000Y-85090000D01*
X95250000Y-80010000D02*
X96520000Y-78740000D01*
X37465000Y-66675000D02*
X40734999Y-69944999D01*
X41165997Y-69944999D02*
X45065988Y-73844990D01*
X45065988Y-73844990D02*
X51223578Y-73844990D01*
X51223578Y-73844990D02*
X57388588Y-80010000D01*
X40734999Y-69944999D02*
X41165997Y-69944999D01*
X57388588Y-80010000D02*
X95250000Y-80010000D01*
X95250000Y-81280000D02*
X96520000Y-81280000D01*
X94615000Y-80645000D02*
X95250000Y-81280000D01*
X37465000Y-76835000D02*
X41275000Y-80645000D01*
X41275000Y-80645000D02*
X94615000Y-80645000D01*
X93980000Y-81280000D02*
X96520000Y-83820000D01*
X38974998Y-81280000D02*
X93980000Y-81280000D01*
X36339999Y-83914999D02*
X38974998Y-81280000D01*
X36339999Y-84995001D02*
X36339999Y-83914999D01*
X37465000Y-86995000D02*
X37465000Y-86120002D01*
X37465000Y-86120002D02*
X36339999Y-84995001D01*
X110883701Y-88023701D02*
X111760000Y-88900000D01*
X100398699Y-77538699D02*
X110883701Y-88023701D01*
X55389999Y-67800001D02*
X55389999Y-77375001D01*
X57389998Y-79375000D02*
X94107074Y-79375000D01*
X55389999Y-77375001D02*
X57389998Y-79375000D01*
X94107074Y-79375000D02*
X95943375Y-77538699D01*
X56515000Y-66675000D02*
X55389999Y-67800001D01*
X95943375Y-77538699D02*
X100398699Y-77538699D01*
X100398699Y-74998699D02*
X110883701Y-85483701D01*
X110883701Y-85483701D02*
X111760000Y-86360000D01*
X56515000Y-76835000D02*
X58420000Y-78740000D01*
X58420000Y-78740000D02*
X93980000Y-78740000D01*
X93980000Y-78740000D02*
X95250000Y-77470000D01*
X95250000Y-77470000D02*
X95250000Y-75692074D01*
X95250000Y-75692074D02*
X95943375Y-74998699D01*
X95943375Y-74998699D02*
X100398699Y-74998699D01*
X94616410Y-88900000D02*
X96520000Y-88900000D01*
X93980000Y-88263590D02*
X94616410Y-88900000D01*
X93980000Y-83762588D02*
X93980000Y-88263590D01*
X56515000Y-86995000D02*
X56515000Y-86120002D01*
X55389999Y-84995001D02*
X55389999Y-83675001D01*
X55389999Y-83675001D02*
X56515000Y-82550000D01*
X56515000Y-82550000D02*
X92767412Y-82550000D01*
X56515000Y-86120002D02*
X55389999Y-84995001D01*
X92767412Y-82550000D02*
X93980000Y-83762588D01*
X100398699Y-67378699D02*
X110883701Y-77863701D01*
X95943375Y-67378699D02*
X100398699Y-67378699D01*
X75565000Y-66675000D02*
X75565000Y-69684002D01*
X75565000Y-69684002D02*
X79725988Y-73844990D01*
X93899970Y-69422104D02*
X95943375Y-67378699D01*
X79725988Y-73844990D02*
X85909990Y-73844990D01*
X85909990Y-73844990D02*
X88900000Y-76835000D01*
X88900000Y-76835000D02*
X93899970Y-76835000D01*
X110883701Y-77863701D02*
X111760000Y-78740000D01*
X93899970Y-76835000D02*
X93899970Y-69422104D01*
X100398699Y-69918699D02*
X110883701Y-80403701D01*
X95943375Y-69918699D02*
X100398699Y-69918699D01*
X110883701Y-80403701D02*
X111760000Y-81280000D01*
X75565000Y-76835000D02*
X76835000Y-76835000D01*
X77470000Y-77470000D02*
X93977180Y-77470000D01*
X93977180Y-77470000D02*
X94349980Y-77097200D01*
X94349980Y-77097200D02*
X94349980Y-71512094D01*
X76835000Y-76835000D02*
X77470000Y-77470000D01*
X94349980Y-71512094D02*
X95943375Y-69918699D01*
X92711001Y-83129999D02*
X93472000Y-83890998D01*
X93472000Y-88392000D02*
X96520000Y-91440000D01*
X91438999Y-83129999D02*
X92711001Y-83129999D01*
X75565000Y-86120002D02*
X74439999Y-84995001D01*
X93472000Y-83890998D02*
X93472000Y-88392000D01*
X75565000Y-86995000D02*
X75565000Y-86120002D01*
X74439999Y-84995001D02*
X74439999Y-83914999D01*
X74439999Y-83914999D02*
X75169998Y-83185000D01*
X75169998Y-83185000D02*
X91383998Y-83185000D01*
X91383998Y-83185000D02*
X91438999Y-83129999D01*
X45085000Y-74415000D02*
X45085000Y-75565000D01*
X44965000Y-74295000D02*
X45085000Y-74415000D01*
X37465000Y-74295000D02*
X44965000Y-74295000D01*
X46355000Y-94303763D02*
X46355000Y-94615000D01*
X46355000Y-94250000D02*
X46355000Y-94615000D01*
X45494990Y-93389990D02*
X46355000Y-94250000D01*
X42120988Y-93389990D02*
X45494990Y-93389990D01*
X39464999Y-90734001D02*
X42120988Y-93389990D01*
X39464999Y-86454999D02*
X39464999Y-90734001D01*
X37465000Y-84455000D02*
X39464999Y-86454999D01*
X47625000Y-94980000D02*
X47625000Y-94615000D01*
X46764990Y-95840010D02*
X47625000Y-94980000D01*
X37465000Y-94615000D02*
X38690010Y-95840010D01*
X38690010Y-95840010D02*
X46764990Y-95840010D01*
X66675000Y-94980000D02*
X66675000Y-94615000D01*
X65814990Y-95840010D02*
X66675000Y-94980000D01*
X57740010Y-95840010D02*
X65814990Y-95840010D01*
X56515000Y-94615000D02*
X57740010Y-95840010D01*
X65405000Y-94250000D02*
X65405000Y-94615000D01*
X64544990Y-93389990D02*
X65405000Y-94250000D01*
X61170988Y-93389990D02*
X64544990Y-93389990D01*
X58420000Y-90639002D02*
X61170988Y-93389990D01*
X58420000Y-86360000D02*
X58420000Y-90639002D01*
X56515000Y-84455000D02*
X58420000Y-86360000D01*
X57646370Y-74295000D02*
X56515000Y-74295000D01*
X64015000Y-74295000D02*
X57646370Y-74295000D01*
X64135000Y-74415000D02*
X64015000Y-74295000D01*
X64135000Y-75565000D02*
X64135000Y-74415000D01*
X76696370Y-74295000D02*
X75565000Y-74295000D01*
X83065000Y-74295000D02*
X76696370Y-74295000D01*
X83185000Y-74415000D02*
X83065000Y-74295000D01*
X83185000Y-75565000D02*
X83185000Y-74415000D01*
X84455000Y-94250000D02*
X84455000Y-94615000D01*
X83594990Y-93389990D02*
X84455000Y-94250000D01*
X80220988Y-93389990D02*
X83594990Y-93389990D01*
X77564999Y-90734001D02*
X80220988Y-93389990D01*
X77564999Y-86454999D02*
X77564999Y-90734001D01*
X75565000Y-84455000D02*
X77564999Y-86454999D01*
X85725000Y-94980000D02*
X85725000Y-94615000D01*
X84864990Y-95840010D02*
X85725000Y-94980000D01*
X76790010Y-95840010D02*
X84864990Y-95840010D01*
X75565000Y-94615000D02*
X76790010Y-95840010D01*
D22*
G36*
X113147869Y-61634722D02*
G01*
X113261246Y-61668953D01*
X113365819Y-61724555D01*
X113457596Y-61799407D01*
X113533091Y-61890664D01*
X113589419Y-61994844D01*
X113624440Y-62107976D01*
X113640001Y-62256031D01*
X113640001Y-79883000D01*
X112754302Y-79883000D01*
X112933904Y-79703398D01*
X113099297Y-79455869D01*
X113213222Y-79180830D01*
X113271300Y-78888850D01*
X113271300Y-78591150D01*
X113213222Y-78299170D01*
X113099297Y-78024131D01*
X112933904Y-77776602D01*
X112723398Y-77566096D01*
X112579580Y-77470000D01*
X112723398Y-77373904D01*
X112933904Y-77163398D01*
X113099297Y-76915869D01*
X113213222Y-76640830D01*
X113271300Y-76348850D01*
X113271300Y-76051150D01*
X113213222Y-75759170D01*
X113099297Y-75484131D01*
X112933904Y-75236602D01*
X112723398Y-75026096D01*
X112560191Y-74917045D01*
X112627563Y-74707169D01*
X111760000Y-73839605D01*
X111745858Y-73853748D01*
X111566252Y-73674142D01*
X111580395Y-73660000D01*
X111939605Y-73660000D01*
X112807169Y-74527563D01*
X113058929Y-74446746D01*
X113187457Y-74178221D01*
X113261129Y-73889781D01*
X113277113Y-73592509D01*
X113234796Y-73297833D01*
X113135802Y-73017073D01*
X113058929Y-72873254D01*
X112807169Y-72792437D01*
X111939605Y-73660000D01*
X111580395Y-73660000D01*
X110712831Y-72792437D01*
X110461071Y-72873254D01*
X110332543Y-73141779D01*
X110258871Y-73430219D01*
X110248980Y-73614178D01*
X100962503Y-64327702D01*
X100938700Y-64298698D01*
X100822975Y-64203725D01*
X100690946Y-64133153D01*
X100547685Y-64089696D01*
X100436032Y-64078699D01*
X100436021Y-64078699D01*
X100398699Y-64075023D01*
X100361377Y-64078699D01*
X98034372Y-64078699D01*
X98034372Y-63351150D01*
X110248700Y-63351150D01*
X110248700Y-63648850D01*
X110306778Y-63940830D01*
X110420703Y-64215869D01*
X110586096Y-64463398D01*
X110796602Y-64673904D01*
X110940420Y-64770000D01*
X110796602Y-64866096D01*
X110586096Y-65076602D01*
X110420703Y-65324131D01*
X110306778Y-65599170D01*
X110248700Y-65891150D01*
X110248700Y-66188850D01*
X110306778Y-66480830D01*
X110420703Y-66755869D01*
X110586096Y-67003398D01*
X110796602Y-67213904D01*
X110940420Y-67310000D01*
X110796602Y-67406096D01*
X110586096Y-67616602D01*
X110420703Y-67864131D01*
X110306778Y-68139170D01*
X110248700Y-68431150D01*
X110248700Y-68728850D01*
X110306778Y-69020830D01*
X110420703Y-69295869D01*
X110586096Y-69543398D01*
X110796602Y-69753904D01*
X110940420Y-69850000D01*
X110796602Y-69946096D01*
X110586096Y-70156602D01*
X110420703Y-70404131D01*
X110306778Y-70679170D01*
X110248700Y-70971150D01*
X110248700Y-71268850D01*
X110306778Y-71560830D01*
X110420703Y-71835869D01*
X110586096Y-72083398D01*
X110796602Y-72293904D01*
X110959809Y-72402955D01*
X110892437Y-72612831D01*
X111760000Y-73480395D01*
X112627563Y-72612831D01*
X112560191Y-72402955D01*
X112723398Y-72293904D01*
X112933904Y-72083398D01*
X113099297Y-71835869D01*
X113213222Y-71560830D01*
X113271300Y-71268850D01*
X113271300Y-70971150D01*
X113213222Y-70679170D01*
X113099297Y-70404131D01*
X112933904Y-70156602D01*
X112723398Y-69946096D01*
X112579580Y-69850000D01*
X112723398Y-69753904D01*
X112933904Y-69543398D01*
X113099297Y-69295869D01*
X113213222Y-69020830D01*
X113271300Y-68728850D01*
X113271300Y-68431150D01*
X113213222Y-68139170D01*
X113099297Y-67864131D01*
X112933904Y-67616602D01*
X112723398Y-67406096D01*
X112579580Y-67310000D01*
X112723398Y-67213904D01*
X112933904Y-67003398D01*
X113099297Y-66755869D01*
X113213222Y-66480830D01*
X113271300Y-66188850D01*
X113271300Y-65891150D01*
X113213222Y-65599170D01*
X113099297Y-65324131D01*
X112933904Y-65076602D01*
X112723398Y-64866096D01*
X112579580Y-64770000D01*
X112723398Y-64673904D01*
X112933904Y-64463398D01*
X113099297Y-64215869D01*
X113213222Y-63940830D01*
X113271300Y-63648850D01*
X113271300Y-63351150D01*
X113213222Y-63059170D01*
X113099297Y-62784131D01*
X112933904Y-62536602D01*
X112723398Y-62326096D01*
X112475869Y-62160703D01*
X112200830Y-62046778D01*
X111908850Y-61988700D01*
X111611150Y-61988700D01*
X111319170Y-62046778D01*
X111044131Y-62160703D01*
X110796602Y-62326096D01*
X110586096Y-62536602D01*
X110420703Y-62784131D01*
X110306778Y-63059170D01*
X110248700Y-63351150D01*
X98034372Y-63351150D01*
X98034372Y-62623700D01*
X98022112Y-62499218D01*
X97985802Y-62379520D01*
X97926837Y-62269206D01*
X97847485Y-62172515D01*
X97750794Y-62093163D01*
X97640480Y-62034198D01*
X97520782Y-61997888D01*
X97396300Y-61985628D01*
X95643700Y-61985628D01*
X95519218Y-61997888D01*
X95399520Y-62034198D01*
X95289206Y-62093163D01*
X95192515Y-62172515D01*
X95113163Y-62269206D01*
X95054198Y-62379520D01*
X95017888Y-62499218D01*
X95005628Y-62623700D01*
X95005628Y-64376300D01*
X95017888Y-64500782D01*
X95032208Y-64547990D01*
X93710769Y-65869430D01*
X93710000Y-65690750D01*
X93551250Y-65532000D01*
X92202000Y-65532000D01*
X92202000Y-66881250D01*
X92360750Y-67040000D01*
X92670619Y-67041333D01*
X92667687Y-67050998D01*
X92656933Y-67086453D01*
X92650999Y-67106014D01*
X92636325Y-67254999D01*
X92640002Y-67292331D01*
X92640002Y-68947821D01*
X92395516Y-68873657D01*
X92155322Y-68850000D01*
X91994678Y-68850000D01*
X91754484Y-68873657D01*
X91446285Y-68967148D01*
X91162248Y-69118969D01*
X90913286Y-69323286D01*
X90825300Y-69430498D01*
X88002714Y-66607912D01*
X88028325Y-66546081D01*
X88056387Y-66405000D01*
X90436928Y-66405000D01*
X90449188Y-66529482D01*
X90485498Y-66649180D01*
X90544463Y-66759494D01*
X90623815Y-66856185D01*
X90720506Y-66935537D01*
X90830820Y-66994502D01*
X90950518Y-67030812D01*
X91075000Y-67043072D01*
X91789250Y-67040000D01*
X91948000Y-66881250D01*
X91948000Y-65532000D01*
X90598750Y-65532000D01*
X90440000Y-65690750D01*
X90436928Y-66405000D01*
X88056387Y-66405000D01*
X88095000Y-66210883D01*
X88095000Y-65869117D01*
X88028325Y-65533919D01*
X87897537Y-65218169D01*
X87707663Y-64934002D01*
X87465998Y-64692337D01*
X87181831Y-64502463D01*
X86946535Y-64405000D01*
X90436928Y-64405000D01*
X90440000Y-65119250D01*
X90598750Y-65278000D01*
X91948000Y-65278000D01*
X91948000Y-63928750D01*
X92202000Y-63928750D01*
X92202000Y-65278000D01*
X93551250Y-65278000D01*
X93710000Y-65119250D01*
X93713072Y-64405000D01*
X93700812Y-64280518D01*
X93664502Y-64160820D01*
X93605537Y-64050506D01*
X93526185Y-63953815D01*
X93429494Y-63874463D01*
X93319180Y-63815498D01*
X93199482Y-63779188D01*
X93075000Y-63766928D01*
X92360750Y-63770000D01*
X92202000Y-63928750D01*
X91948000Y-63928750D01*
X91789250Y-63770000D01*
X91075000Y-63766928D01*
X90950518Y-63779188D01*
X90830820Y-63815498D01*
X90720506Y-63874463D01*
X90623815Y-63953815D01*
X90544463Y-64050506D01*
X90485498Y-64160820D01*
X90449188Y-64280518D01*
X90436928Y-64405000D01*
X86946535Y-64405000D01*
X86866081Y-64371675D01*
X86530883Y-64305000D01*
X86189117Y-64305000D01*
X85853919Y-64371675D01*
X85538169Y-64502463D01*
X85254002Y-64692337D01*
X85012337Y-64934002D01*
X84822463Y-65218169D01*
X84691675Y-65533919D01*
X84625000Y-65869117D01*
X84625000Y-66210883D01*
X84691675Y-66546081D01*
X84822463Y-66861831D01*
X85012337Y-67145998D01*
X85254002Y-67387663D01*
X85538169Y-67577537D01*
X85853919Y-67708325D01*
X86189117Y-67775000D01*
X86530883Y-67775000D01*
X86866081Y-67708325D01*
X86927912Y-67682714D01*
X88880198Y-69635000D01*
X88753740Y-69635000D01*
X88466842Y-69692068D01*
X88196589Y-69804010D01*
X87953368Y-69966525D01*
X87746525Y-70173368D01*
X87584010Y-70416589D01*
X87472068Y-70686842D01*
X87415000Y-70973740D01*
X87415000Y-71266260D01*
X87472068Y-71553158D01*
X87584010Y-71823411D01*
X87746525Y-72066632D01*
X87953368Y-72273475D01*
X88196589Y-72435990D01*
X88466842Y-72547932D01*
X88753740Y-72605000D01*
X89046260Y-72605000D01*
X89333158Y-72547932D01*
X89603411Y-72435990D01*
X89846632Y-72273475D01*
X90053475Y-72066632D01*
X90215990Y-71823411D01*
X90327932Y-71553158D01*
X90385000Y-71266260D01*
X90385000Y-71122260D01*
X90512753Y-71190546D01*
X90614753Y-71221487D01*
X90708969Y-71397752D01*
X90913286Y-71646714D01*
X91162248Y-71851031D01*
X91446285Y-72002852D01*
X91754484Y-72096343D01*
X91994678Y-72120000D01*
X92155322Y-72120000D01*
X92395516Y-72096343D01*
X92585001Y-72038863D01*
X92585000Y-75440000D01*
X89216212Y-75440000D01*
X86905001Y-73128790D01*
X86905001Y-70041321D01*
X86908677Y-70003998D01*
X86905001Y-69966675D01*
X86905001Y-69966666D01*
X86894004Y-69855013D01*
X86850547Y-69711752D01*
X86779975Y-69579723D01*
X86685002Y-69463998D01*
X86656005Y-69440201D01*
X85499805Y-68284002D01*
X85476002Y-68254998D01*
X85360277Y-68160025D01*
X85228248Y-68089453D01*
X85084987Y-68045996D01*
X84973334Y-68034999D01*
X84973323Y-68034999D01*
X84936001Y-68031323D01*
X84898679Y-68034999D01*
X81662204Y-68034999D01*
X81547537Y-67758169D01*
X81357663Y-67474002D01*
X81115998Y-67232337D01*
X80831831Y-67042463D01*
X80516081Y-66911675D01*
X80180883Y-66845000D01*
X79839117Y-66845000D01*
X79503919Y-66911675D01*
X79188169Y-67042463D01*
X78904002Y-67232337D01*
X78662337Y-67474002D01*
X78472463Y-67758169D01*
X78341675Y-68073919D01*
X78275000Y-68409117D01*
X78275000Y-68750883D01*
X78341675Y-69086081D01*
X78472463Y-69401831D01*
X78628261Y-69635000D01*
X78593740Y-69635000D01*
X78306842Y-69692068D01*
X78036589Y-69804010D01*
X77793368Y-69966525D01*
X77586525Y-70173368D01*
X77424010Y-70416589D01*
X77408890Y-70453091D01*
X76325000Y-69369201D01*
X76325000Y-67893043D01*
X76479759Y-67789637D01*
X76679637Y-67589759D01*
X76836680Y-67354727D01*
X76944853Y-67093574D01*
X77000000Y-66816335D01*
X77000000Y-66533665D01*
X76944853Y-66256426D01*
X76836680Y-65995273D01*
X76679637Y-65760241D01*
X76479759Y-65560363D01*
X76244727Y-65403320D01*
X75983574Y-65295147D01*
X75706335Y-65240000D01*
X75423665Y-65240000D01*
X75146426Y-65295147D01*
X74885273Y-65403320D01*
X74650241Y-65560363D01*
X74589927Y-65620677D01*
X74501250Y-65532000D01*
X73152000Y-65532000D01*
X73152000Y-66881250D01*
X73310750Y-67040000D01*
X74025000Y-67043072D01*
X74149482Y-67030812D01*
X74171344Y-67024180D01*
X74185147Y-67093574D01*
X74293320Y-67354727D01*
X74450363Y-67589759D01*
X74650241Y-67789637D01*
X74805000Y-67893044D01*
X74805001Y-69646670D01*
X74801324Y-69684002D01*
X74805001Y-69721335D01*
X74815998Y-69832988D01*
X74823065Y-69856285D01*
X74859454Y-69976248D01*
X74930026Y-70108278D01*
X74983445Y-70173368D01*
X75025000Y-70224003D01*
X75053998Y-70247801D01*
X78341196Y-73535000D01*
X76785901Y-73535000D01*
X76763932Y-73493899D01*
X76584608Y-73275392D01*
X76366101Y-73096068D01*
X76116808Y-72962818D01*
X75846309Y-72880764D01*
X75635492Y-72860000D01*
X75494508Y-72860000D01*
X75283691Y-72880764D01*
X75013192Y-72962818D01*
X74763899Y-73096068D01*
X74545392Y-73275392D01*
X74366068Y-73493899D01*
X74232818Y-73743192D01*
X74150764Y-74013691D01*
X74123057Y-74295000D01*
X74150764Y-74576309D01*
X74232818Y-74846808D01*
X74366068Y-75096101D01*
X74545392Y-75314608D01*
X74763899Y-75493932D01*
X74890029Y-75561350D01*
X74885273Y-75563320D01*
X74650241Y-75720363D01*
X74450363Y-75920241D01*
X74294022Y-76154222D01*
X70566826Y-72427026D01*
X70796632Y-72273475D01*
X71003475Y-72066632D01*
X71165990Y-71823411D01*
X71277932Y-71553158D01*
X71335000Y-71266260D01*
X71335000Y-71122260D01*
X71462753Y-71190546D01*
X71564753Y-71221487D01*
X71658969Y-71397752D01*
X71863286Y-71646714D01*
X72112248Y-71851031D01*
X72396285Y-72002852D01*
X72704484Y-72096343D01*
X72944678Y-72120000D01*
X73105322Y-72120000D01*
X73345516Y-72096343D01*
X73653715Y-72002852D01*
X73937752Y-71851031D01*
X74186714Y-71646714D01*
X74391031Y-71397752D01*
X74542852Y-71113715D01*
X74636343Y-70805516D01*
X74667911Y-70485000D01*
X74636343Y-70164484D01*
X74542852Y-69856285D01*
X74391031Y-69572248D01*
X74186714Y-69323286D01*
X73937752Y-69118969D01*
X73653715Y-68967148D01*
X73345516Y-68873657D01*
X73105322Y-68850000D01*
X72944678Y-68850000D01*
X72704484Y-68873657D01*
X72396285Y-68967148D01*
X72112248Y-69118969D01*
X71863286Y-69323286D01*
X71775300Y-69430498D01*
X68952714Y-66607912D01*
X68978325Y-66546081D01*
X69006387Y-66405000D01*
X71386928Y-66405000D01*
X71399188Y-66529482D01*
X71435498Y-66649180D01*
X71494463Y-66759494D01*
X71573815Y-66856185D01*
X71670506Y-66935537D01*
X71780820Y-66994502D01*
X71900518Y-67030812D01*
X72025000Y-67043072D01*
X72739250Y-67040000D01*
X72898000Y-66881250D01*
X72898000Y-65532000D01*
X71548750Y-65532000D01*
X71390000Y-65690750D01*
X71386928Y-66405000D01*
X69006387Y-66405000D01*
X69045000Y-66210883D01*
X69045000Y-65869117D01*
X68978325Y-65533919D01*
X68847537Y-65218169D01*
X68657663Y-64934002D01*
X68415998Y-64692337D01*
X68131831Y-64502463D01*
X67896535Y-64405000D01*
X71386928Y-64405000D01*
X71390000Y-65119250D01*
X71548750Y-65278000D01*
X72898000Y-65278000D01*
X72898000Y-63928750D01*
X73152000Y-63928750D01*
X73152000Y-65278000D01*
X74501250Y-65278000D01*
X74660000Y-65119250D01*
X74663072Y-64405000D01*
X74650812Y-64280518D01*
X74614502Y-64160820D01*
X74555537Y-64050506D01*
X74476185Y-63953815D01*
X74379494Y-63874463D01*
X74269180Y-63815498D01*
X74149482Y-63779188D01*
X74025000Y-63766928D01*
X73310750Y-63770000D01*
X73152000Y-63928750D01*
X72898000Y-63928750D01*
X72739250Y-63770000D01*
X72025000Y-63766928D01*
X71900518Y-63779188D01*
X71780820Y-63815498D01*
X71670506Y-63874463D01*
X71573815Y-63953815D01*
X71494463Y-64050506D01*
X71435498Y-64160820D01*
X71399188Y-64280518D01*
X71386928Y-64405000D01*
X67896535Y-64405000D01*
X67816081Y-64371675D01*
X67480883Y-64305000D01*
X67139117Y-64305000D01*
X66803919Y-64371675D01*
X66488169Y-64502463D01*
X66204002Y-64692337D01*
X65962337Y-64934002D01*
X65772463Y-65218169D01*
X65641675Y-65533919D01*
X65575000Y-65869117D01*
X65575000Y-66210883D01*
X65641675Y-66546081D01*
X65772463Y-66861831D01*
X65962337Y-67145998D01*
X66204002Y-67387663D01*
X66488169Y-67577537D01*
X66803919Y-67708325D01*
X67139117Y-67775000D01*
X67480883Y-67775000D01*
X67816081Y-67708325D01*
X67877912Y-67682714D01*
X69830198Y-69635000D01*
X69703740Y-69635000D01*
X69416842Y-69692068D01*
X69146589Y-69804010D01*
X68903368Y-69966525D01*
X68696525Y-70173368D01*
X68542973Y-70403174D01*
X66208802Y-68069003D01*
X66184999Y-68039999D01*
X66069274Y-67945026D01*
X65937245Y-67874454D01*
X65793984Y-67830997D01*
X65682331Y-67820000D01*
X65682320Y-67820000D01*
X65644998Y-67816324D01*
X65607676Y-67820000D01*
X62523148Y-67820000D01*
X62497537Y-67758169D01*
X62307663Y-67474002D01*
X62065998Y-67232337D01*
X61781831Y-67042463D01*
X61466081Y-66911675D01*
X61130883Y-66845000D01*
X60789117Y-66845000D01*
X60453919Y-66911675D01*
X60138169Y-67042463D01*
X59854002Y-67232337D01*
X59612337Y-67474002D01*
X59422463Y-67758169D01*
X59291675Y-68073919D01*
X59225000Y-68409117D01*
X59225000Y-68750883D01*
X59291675Y-69086081D01*
X59422463Y-69401831D01*
X59578261Y-69635000D01*
X59543740Y-69635000D01*
X59256842Y-69692068D01*
X58986589Y-69804010D01*
X58743368Y-69966525D01*
X58536525Y-70173368D01*
X58374010Y-70416589D01*
X58262068Y-70686842D01*
X58205000Y-70973740D01*
X58205000Y-71266260D01*
X58262068Y-71553158D01*
X58374010Y-71823411D01*
X58536525Y-72066632D01*
X58743368Y-72273475D01*
X58986589Y-72435990D01*
X59256842Y-72547932D01*
X59543740Y-72605000D01*
X59836260Y-72605000D01*
X60123158Y-72547932D01*
X60393411Y-72435990D01*
X60636632Y-72273475D01*
X60843475Y-72066632D01*
X61005990Y-71823411D01*
X61117932Y-71553158D01*
X61175000Y-71266260D01*
X61175000Y-70973740D01*
X61117932Y-70686842D01*
X61005990Y-70416589D01*
X60938110Y-70315000D01*
X61130883Y-70315000D01*
X61466081Y-70248325D01*
X61781831Y-70117537D01*
X62065998Y-69927663D01*
X62307663Y-69685998D01*
X62497537Y-69401831D01*
X62523148Y-69340000D01*
X62823547Y-69340000D01*
X62723262Y-69440285D01*
X62434893Y-69871859D01*
X62236261Y-70351399D01*
X62135000Y-70860475D01*
X62135000Y-71379525D01*
X62236261Y-71888601D01*
X62434893Y-72368141D01*
X62723262Y-72799715D01*
X63090285Y-73166738D01*
X63521859Y-73455107D01*
X63714738Y-73535000D01*
X57735901Y-73535000D01*
X57713932Y-73493899D01*
X57534608Y-73275392D01*
X57316101Y-73096068D01*
X57066808Y-72962818D01*
X56796309Y-72880764D01*
X56585492Y-72860000D01*
X56444508Y-72860000D01*
X56233691Y-72880764D01*
X56149999Y-72906151D01*
X56149999Y-68114802D01*
X56191113Y-68073688D01*
X56373665Y-68110000D01*
X56656335Y-68110000D01*
X56933574Y-68054853D01*
X57194727Y-67946680D01*
X57429759Y-67789637D01*
X57629637Y-67589759D01*
X57786680Y-67354727D01*
X57894853Y-67093574D01*
X57950000Y-66816335D01*
X57950000Y-66533665D01*
X57894853Y-66256426D01*
X57786680Y-65995273D01*
X57629637Y-65760241D01*
X57429759Y-65560363D01*
X57194727Y-65403320D01*
X56933574Y-65295147D01*
X56656335Y-65240000D01*
X56373665Y-65240000D01*
X56096426Y-65295147D01*
X55835273Y-65403320D01*
X55600241Y-65560363D01*
X55539927Y-65620677D01*
X55451250Y-65532000D01*
X54102000Y-65532000D01*
X54102000Y-66881250D01*
X54260750Y-67040000D01*
X54975000Y-67043072D01*
X55082738Y-67032461D01*
X54879001Y-67236197D01*
X54849998Y-67260000D01*
X54794870Y-67327175D01*
X54755025Y-67375725D01*
X54692221Y-67493222D01*
X54684453Y-67507755D01*
X54640996Y-67651016D01*
X54629999Y-67762669D01*
X54629999Y-67762679D01*
X54626323Y-67800001D01*
X54629999Y-67837323D01*
X54629999Y-68981197D01*
X54603715Y-68967148D01*
X54295516Y-68873657D01*
X54055322Y-68850000D01*
X53894678Y-68850000D01*
X53654484Y-68873657D01*
X53346285Y-68967148D01*
X53062248Y-69118969D01*
X52813286Y-69323286D01*
X52725300Y-69430498D01*
X49902714Y-66607912D01*
X49928325Y-66546081D01*
X49956387Y-66405000D01*
X52336928Y-66405000D01*
X52349188Y-66529482D01*
X52385498Y-66649180D01*
X52444463Y-66759494D01*
X52523815Y-66856185D01*
X52620506Y-66935537D01*
X52730820Y-66994502D01*
X52850518Y-67030812D01*
X52975000Y-67043072D01*
X53689250Y-67040000D01*
X53848000Y-66881250D01*
X53848000Y-65532000D01*
X52498750Y-65532000D01*
X52340000Y-65690750D01*
X52336928Y-66405000D01*
X49956387Y-66405000D01*
X49995000Y-66210883D01*
X49995000Y-65869117D01*
X49928325Y-65533919D01*
X49797537Y-65218169D01*
X49607663Y-64934002D01*
X49365998Y-64692337D01*
X49081831Y-64502463D01*
X48846535Y-64405000D01*
X52336928Y-64405000D01*
X52340000Y-65119250D01*
X52498750Y-65278000D01*
X53848000Y-65278000D01*
X53848000Y-63928750D01*
X54102000Y-63928750D01*
X54102000Y-65278000D01*
X55451250Y-65278000D01*
X55610000Y-65119250D01*
X55613072Y-64405000D01*
X55600812Y-64280518D01*
X55564502Y-64160820D01*
X55505537Y-64050506D01*
X55426185Y-63953815D01*
X55329494Y-63874463D01*
X55219180Y-63815498D01*
X55099482Y-63779188D01*
X54975000Y-63766928D01*
X54260750Y-63770000D01*
X54102000Y-63928750D01*
X53848000Y-63928750D01*
X53689250Y-63770000D01*
X52975000Y-63766928D01*
X52850518Y-63779188D01*
X52730820Y-63815498D01*
X52620506Y-63874463D01*
X52523815Y-63953815D01*
X52444463Y-64050506D01*
X52385498Y-64160820D01*
X52349188Y-64280518D01*
X52336928Y-64405000D01*
X48846535Y-64405000D01*
X48766081Y-64371675D01*
X48430883Y-64305000D01*
X48089117Y-64305000D01*
X47753919Y-64371675D01*
X47438169Y-64502463D01*
X47154002Y-64692337D01*
X46912337Y-64934002D01*
X46722463Y-65218169D01*
X46591675Y-65533919D01*
X46525000Y-65869117D01*
X46525000Y-66210883D01*
X46591675Y-66546081D01*
X46722463Y-66861831D01*
X46912337Y-67145998D01*
X47154002Y-67387663D01*
X47438169Y-67577537D01*
X47753919Y-67708325D01*
X48089117Y-67775000D01*
X48430883Y-67775000D01*
X48766081Y-67708325D01*
X48827912Y-67682714D01*
X50780198Y-69635000D01*
X50653740Y-69635000D01*
X50366842Y-69692068D01*
X50096589Y-69804010D01*
X49853368Y-69966525D01*
X49646525Y-70173368D01*
X49484010Y-70416589D01*
X49372068Y-70686842D01*
X49315000Y-70973740D01*
X49315000Y-71266260D01*
X49372068Y-71553158D01*
X49484010Y-71823411D01*
X49646525Y-72066632D01*
X49853368Y-72273475D01*
X50096589Y-72435990D01*
X50366842Y-72547932D01*
X50653740Y-72605000D01*
X50946260Y-72605000D01*
X51233158Y-72547932D01*
X51503411Y-72435990D01*
X51746632Y-72273475D01*
X51953475Y-72066632D01*
X52115990Y-71823411D01*
X52227932Y-71553158D01*
X52285000Y-71266260D01*
X52285000Y-71122260D01*
X52412753Y-71190546D01*
X52514753Y-71221487D01*
X52608969Y-71397752D01*
X52813286Y-71646714D01*
X53062248Y-71851031D01*
X53346285Y-72002852D01*
X53654484Y-72096343D01*
X53894678Y-72120000D01*
X54055322Y-72120000D01*
X54295516Y-72096343D01*
X54603715Y-72002852D01*
X54629999Y-71988803D01*
X54630000Y-76176610D01*
X51787382Y-73333993D01*
X51763579Y-73304989D01*
X51647854Y-73210016D01*
X51515825Y-73139444D01*
X51372564Y-73095987D01*
X51260911Y-73084990D01*
X51260900Y-73084990D01*
X51223578Y-73081314D01*
X51186256Y-73084990D01*
X47481463Y-73084990D01*
X47766738Y-72799715D01*
X48055107Y-72368141D01*
X48253739Y-71888601D01*
X48355000Y-71379525D01*
X48355000Y-70860475D01*
X48253739Y-70351399D01*
X48055107Y-69871859D01*
X47766738Y-69440285D01*
X47399715Y-69073262D01*
X46968141Y-68784893D01*
X46488601Y-68586261D01*
X45979525Y-68485000D01*
X45460475Y-68485000D01*
X44951399Y-68586261D01*
X44471859Y-68784893D01*
X44040285Y-69073262D01*
X43673262Y-69440285D01*
X43384893Y-69871859D01*
X43186261Y-70351399D01*
X43096825Y-70801026D01*
X42506621Y-70210822D01*
X42731831Y-70117537D01*
X43015998Y-69927663D01*
X43257663Y-69685998D01*
X43447537Y-69401831D01*
X43578325Y-69086081D01*
X43645000Y-68750883D01*
X43645000Y-68409117D01*
X43578325Y-68073919D01*
X43447537Y-67758169D01*
X43257663Y-67474002D01*
X43015998Y-67232337D01*
X42731831Y-67042463D01*
X42416081Y-66911675D01*
X42080883Y-66845000D01*
X41739117Y-66845000D01*
X41403919Y-66911675D01*
X41088169Y-67042463D01*
X40804002Y-67232337D01*
X40562337Y-67474002D01*
X40372463Y-67758169D01*
X40241675Y-68073919D01*
X40191412Y-68326610D01*
X38863688Y-66998886D01*
X38900000Y-66816335D01*
X38900000Y-66533665D01*
X38844853Y-66256426D01*
X38736680Y-65995273D01*
X38579637Y-65760241D01*
X38379759Y-65560363D01*
X38144727Y-65403320D01*
X37883574Y-65295147D01*
X37606335Y-65240000D01*
X37323665Y-65240000D01*
X37046426Y-65295147D01*
X36785273Y-65403320D01*
X36550241Y-65560363D01*
X36350363Y-65760241D01*
X36220000Y-65955343D01*
X36220000Y-62262279D01*
X36234722Y-62112131D01*
X36268953Y-61998754D01*
X36324555Y-61894181D01*
X36399407Y-61802404D01*
X36490664Y-61726909D01*
X36594844Y-61670581D01*
X36707976Y-61635560D01*
X36856022Y-61620000D01*
X112997721Y-61620000D01*
X113147869Y-61634722D01*
X113147869Y-61634722D01*
G37*
X113147869Y-61634722D02*
X113261246Y-61668953D01*
X113365819Y-61724555D01*
X113457596Y-61799407D01*
X113533091Y-61890664D01*
X113589419Y-61994844D01*
X113624440Y-62107976D01*
X113640001Y-62256031D01*
X113640001Y-79883000D01*
X112754302Y-79883000D01*
X112933904Y-79703398D01*
X113099297Y-79455869D01*
X113213222Y-79180830D01*
X113271300Y-78888850D01*
X113271300Y-78591150D01*
X113213222Y-78299170D01*
X113099297Y-78024131D01*
X112933904Y-77776602D01*
X112723398Y-77566096D01*
X112579580Y-77470000D01*
X112723398Y-77373904D01*
X112933904Y-77163398D01*
X113099297Y-76915869D01*
X113213222Y-76640830D01*
X113271300Y-76348850D01*
X113271300Y-76051150D01*
X113213222Y-75759170D01*
X113099297Y-75484131D01*
X112933904Y-75236602D01*
X112723398Y-75026096D01*
X112560191Y-74917045D01*
X112627563Y-74707169D01*
X111760000Y-73839605D01*
X111745858Y-73853748D01*
X111566252Y-73674142D01*
X111580395Y-73660000D01*
X111939605Y-73660000D01*
X112807169Y-74527563D01*
X113058929Y-74446746D01*
X113187457Y-74178221D01*
X113261129Y-73889781D01*
X113277113Y-73592509D01*
X113234796Y-73297833D01*
X113135802Y-73017073D01*
X113058929Y-72873254D01*
X112807169Y-72792437D01*
X111939605Y-73660000D01*
X111580395Y-73660000D01*
X110712831Y-72792437D01*
X110461071Y-72873254D01*
X110332543Y-73141779D01*
X110258871Y-73430219D01*
X110248980Y-73614178D01*
X100962503Y-64327702D01*
X100938700Y-64298698D01*
X100822975Y-64203725D01*
X100690946Y-64133153D01*
X100547685Y-64089696D01*
X100436032Y-64078699D01*
X100436021Y-64078699D01*
X100398699Y-64075023D01*
X100361377Y-64078699D01*
X98034372Y-64078699D01*
X98034372Y-63351150D01*
X110248700Y-63351150D01*
X110248700Y-63648850D01*
X110306778Y-63940830D01*
X110420703Y-64215869D01*
X110586096Y-64463398D01*
X110796602Y-64673904D01*
X110940420Y-64770000D01*
X110796602Y-64866096D01*
X110586096Y-65076602D01*
X110420703Y-65324131D01*
X110306778Y-65599170D01*
X110248700Y-65891150D01*
X110248700Y-66188850D01*
X110306778Y-66480830D01*
X110420703Y-66755869D01*
X110586096Y-67003398D01*
X110796602Y-67213904D01*
X110940420Y-67310000D01*
X110796602Y-67406096D01*
X110586096Y-67616602D01*
X110420703Y-67864131D01*
X110306778Y-68139170D01*
X110248700Y-68431150D01*
X110248700Y-68728850D01*
X110306778Y-69020830D01*
X110420703Y-69295869D01*
X110586096Y-69543398D01*
X110796602Y-69753904D01*
X110940420Y-69850000D01*
X110796602Y-69946096D01*
X110586096Y-70156602D01*
X110420703Y-70404131D01*
X110306778Y-70679170D01*
X110248700Y-70971150D01*
X110248700Y-71268850D01*
X110306778Y-71560830D01*
X110420703Y-71835869D01*
X110586096Y-72083398D01*
X110796602Y-72293904D01*
X110959809Y-72402955D01*
X110892437Y-72612831D01*
X111760000Y-73480395D01*
X112627563Y-72612831D01*
X112560191Y-72402955D01*
X112723398Y-72293904D01*
X112933904Y-72083398D01*
X113099297Y-71835869D01*
X113213222Y-71560830D01*
X113271300Y-71268850D01*
X113271300Y-70971150D01*
X113213222Y-70679170D01*
X113099297Y-70404131D01*
X112933904Y-70156602D01*
X112723398Y-69946096D01*
X112579580Y-69850000D01*
X112723398Y-69753904D01*
X112933904Y-69543398D01*
X113099297Y-69295869D01*
X113213222Y-69020830D01*
X113271300Y-68728850D01*
X113271300Y-68431150D01*
X113213222Y-68139170D01*
X113099297Y-67864131D01*
X112933904Y-67616602D01*
X112723398Y-67406096D01*
X112579580Y-67310000D01*
X112723398Y-67213904D01*
X112933904Y-67003398D01*
X113099297Y-66755869D01*
X113213222Y-66480830D01*
X113271300Y-66188850D01*
X113271300Y-65891150D01*
X113213222Y-65599170D01*
X113099297Y-65324131D01*
X112933904Y-65076602D01*
X112723398Y-64866096D01*
X112579580Y-64770000D01*
X112723398Y-64673904D01*
X112933904Y-64463398D01*
X113099297Y-64215869D01*
X113213222Y-63940830D01*
X113271300Y-63648850D01*
X113271300Y-63351150D01*
X113213222Y-63059170D01*
X113099297Y-62784131D01*
X112933904Y-62536602D01*
X112723398Y-62326096D01*
X112475869Y-62160703D01*
X112200830Y-62046778D01*
X111908850Y-61988700D01*
X111611150Y-61988700D01*
X111319170Y-62046778D01*
X111044131Y-62160703D01*
X110796602Y-62326096D01*
X110586096Y-62536602D01*
X110420703Y-62784131D01*
X110306778Y-63059170D01*
X110248700Y-63351150D01*
X98034372Y-63351150D01*
X98034372Y-62623700D01*
X98022112Y-62499218D01*
X97985802Y-62379520D01*
X97926837Y-62269206D01*
X97847485Y-62172515D01*
X97750794Y-62093163D01*
X97640480Y-62034198D01*
X97520782Y-61997888D01*
X97396300Y-61985628D01*
X95643700Y-61985628D01*
X95519218Y-61997888D01*
X95399520Y-62034198D01*
X95289206Y-62093163D01*
X95192515Y-62172515D01*
X95113163Y-62269206D01*
X95054198Y-62379520D01*
X95017888Y-62499218D01*
X95005628Y-62623700D01*
X95005628Y-64376300D01*
X95017888Y-64500782D01*
X95032208Y-64547990D01*
X93710769Y-65869430D01*
X93710000Y-65690750D01*
X93551250Y-65532000D01*
X92202000Y-65532000D01*
X92202000Y-66881250D01*
X92360750Y-67040000D01*
X92670619Y-67041333D01*
X92667687Y-67050998D01*
X92656933Y-67086453D01*
X92650999Y-67106014D01*
X92636325Y-67254999D01*
X92640002Y-67292331D01*
X92640002Y-68947821D01*
X92395516Y-68873657D01*
X92155322Y-68850000D01*
X91994678Y-68850000D01*
X91754484Y-68873657D01*
X91446285Y-68967148D01*
X91162248Y-69118969D01*
X90913286Y-69323286D01*
X90825300Y-69430498D01*
X88002714Y-66607912D01*
X88028325Y-66546081D01*
X88056387Y-66405000D01*
X90436928Y-66405000D01*
X90449188Y-66529482D01*
X90485498Y-66649180D01*
X90544463Y-66759494D01*
X90623815Y-66856185D01*
X90720506Y-66935537D01*
X90830820Y-66994502D01*
X90950518Y-67030812D01*
X91075000Y-67043072D01*
X91789250Y-67040000D01*
X91948000Y-66881250D01*
X91948000Y-65532000D01*
X90598750Y-65532000D01*
X90440000Y-65690750D01*
X90436928Y-66405000D01*
X88056387Y-66405000D01*
X88095000Y-66210883D01*
X88095000Y-65869117D01*
X88028325Y-65533919D01*
X87897537Y-65218169D01*
X87707663Y-64934002D01*
X87465998Y-64692337D01*
X87181831Y-64502463D01*
X86946535Y-64405000D01*
X90436928Y-64405000D01*
X90440000Y-65119250D01*
X90598750Y-65278000D01*
X91948000Y-65278000D01*
X91948000Y-63928750D01*
X92202000Y-63928750D01*
X92202000Y-65278000D01*
X93551250Y-65278000D01*
X93710000Y-65119250D01*
X93713072Y-64405000D01*
X93700812Y-64280518D01*
X93664502Y-64160820D01*
X93605537Y-64050506D01*
X93526185Y-63953815D01*
X93429494Y-63874463D01*
X93319180Y-63815498D01*
X93199482Y-63779188D01*
X93075000Y-63766928D01*
X92360750Y-63770000D01*
X92202000Y-63928750D01*
X91948000Y-63928750D01*
X91789250Y-63770000D01*
X91075000Y-63766928D01*
X90950518Y-63779188D01*
X90830820Y-63815498D01*
X90720506Y-63874463D01*
X90623815Y-63953815D01*
X90544463Y-64050506D01*
X90485498Y-64160820D01*
X90449188Y-64280518D01*
X90436928Y-64405000D01*
X86946535Y-64405000D01*
X86866081Y-64371675D01*
X86530883Y-64305000D01*
X86189117Y-64305000D01*
X85853919Y-64371675D01*
X85538169Y-64502463D01*
X85254002Y-64692337D01*
X85012337Y-64934002D01*
X84822463Y-65218169D01*
X84691675Y-65533919D01*
X84625000Y-65869117D01*
X84625000Y-66210883D01*
X84691675Y-66546081D01*
X84822463Y-66861831D01*
X85012337Y-67145998D01*
X85254002Y-67387663D01*
X85538169Y-67577537D01*
X85853919Y-67708325D01*
X86189117Y-67775000D01*
X86530883Y-67775000D01*
X86866081Y-67708325D01*
X86927912Y-67682714D01*
X88880198Y-69635000D01*
X88753740Y-69635000D01*
X88466842Y-69692068D01*
X88196589Y-69804010D01*
X87953368Y-69966525D01*
X87746525Y-70173368D01*
X87584010Y-70416589D01*
X87472068Y-70686842D01*
X87415000Y-70973740D01*
X87415000Y-71266260D01*
X87472068Y-71553158D01*
X87584010Y-71823411D01*
X87746525Y-72066632D01*
X87953368Y-72273475D01*
X88196589Y-72435990D01*
X88466842Y-72547932D01*
X88753740Y-72605000D01*
X89046260Y-72605000D01*
X89333158Y-72547932D01*
X89603411Y-72435990D01*
X89846632Y-72273475D01*
X90053475Y-72066632D01*
X90215990Y-71823411D01*
X90327932Y-71553158D01*
X90385000Y-71266260D01*
X90385000Y-71122260D01*
X90512753Y-71190546D01*
X90614753Y-71221487D01*
X90708969Y-71397752D01*
X90913286Y-71646714D01*
X91162248Y-71851031D01*
X91446285Y-72002852D01*
X91754484Y-72096343D01*
X91994678Y-72120000D01*
X92155322Y-72120000D01*
X92395516Y-72096343D01*
X92585001Y-72038863D01*
X92585000Y-75440000D01*
X89216212Y-75440000D01*
X86905001Y-73128790D01*
X86905001Y-70041321D01*
X86908677Y-70003998D01*
X86905001Y-69966675D01*
X86905001Y-69966666D01*
X86894004Y-69855013D01*
X86850547Y-69711752D01*
X86779975Y-69579723D01*
X86685002Y-69463998D01*
X86656005Y-69440201D01*
X85499805Y-68284002D01*
X85476002Y-68254998D01*
X85360277Y-68160025D01*
X85228248Y-68089453D01*
X85084987Y-68045996D01*
X84973334Y-68034999D01*
X84973323Y-68034999D01*
X84936001Y-68031323D01*
X84898679Y-68034999D01*
X81662204Y-68034999D01*
X81547537Y-67758169D01*
X81357663Y-67474002D01*
X81115998Y-67232337D01*
X80831831Y-67042463D01*
X80516081Y-66911675D01*
X80180883Y-66845000D01*
X79839117Y-66845000D01*
X79503919Y-66911675D01*
X79188169Y-67042463D01*
X78904002Y-67232337D01*
X78662337Y-67474002D01*
X78472463Y-67758169D01*
X78341675Y-68073919D01*
X78275000Y-68409117D01*
X78275000Y-68750883D01*
X78341675Y-69086081D01*
X78472463Y-69401831D01*
X78628261Y-69635000D01*
X78593740Y-69635000D01*
X78306842Y-69692068D01*
X78036589Y-69804010D01*
X77793368Y-69966525D01*
X77586525Y-70173368D01*
X77424010Y-70416589D01*
X77408890Y-70453091D01*
X76325000Y-69369201D01*
X76325000Y-67893043D01*
X76479759Y-67789637D01*
X76679637Y-67589759D01*
X76836680Y-67354727D01*
X76944853Y-67093574D01*
X77000000Y-66816335D01*
X77000000Y-66533665D01*
X76944853Y-66256426D01*
X76836680Y-65995273D01*
X76679637Y-65760241D01*
X76479759Y-65560363D01*
X76244727Y-65403320D01*
X75983574Y-65295147D01*
X75706335Y-65240000D01*
X75423665Y-65240000D01*
X75146426Y-65295147D01*
X74885273Y-65403320D01*
X74650241Y-65560363D01*
X74589927Y-65620677D01*
X74501250Y-65532000D01*
X73152000Y-65532000D01*
X73152000Y-66881250D01*
X73310750Y-67040000D01*
X74025000Y-67043072D01*
X74149482Y-67030812D01*
X74171344Y-67024180D01*
X74185147Y-67093574D01*
X74293320Y-67354727D01*
X74450363Y-67589759D01*
X74650241Y-67789637D01*
X74805000Y-67893044D01*
X74805001Y-69646670D01*
X74801324Y-69684002D01*
X74805001Y-69721335D01*
X74815998Y-69832988D01*
X74823065Y-69856285D01*
X74859454Y-69976248D01*
X74930026Y-70108278D01*
X74983445Y-70173368D01*
X75025000Y-70224003D01*
X75053998Y-70247801D01*
X78341196Y-73535000D01*
X76785901Y-73535000D01*
X76763932Y-73493899D01*
X76584608Y-73275392D01*
X76366101Y-73096068D01*
X76116808Y-72962818D01*
X75846309Y-72880764D01*
X75635492Y-72860000D01*
X75494508Y-72860000D01*
X75283691Y-72880764D01*
X75013192Y-72962818D01*
X74763899Y-73096068D01*
X74545392Y-73275392D01*
X74366068Y-73493899D01*
X74232818Y-73743192D01*
X74150764Y-74013691D01*
X74123057Y-74295000D01*
X74150764Y-74576309D01*
X74232818Y-74846808D01*
X74366068Y-75096101D01*
X74545392Y-75314608D01*
X74763899Y-75493932D01*
X74890029Y-75561350D01*
X74885273Y-75563320D01*
X74650241Y-75720363D01*
X74450363Y-75920241D01*
X74294022Y-76154222D01*
X70566826Y-72427026D01*
X70796632Y-72273475D01*
X71003475Y-72066632D01*
X71165990Y-71823411D01*
X71277932Y-71553158D01*
X71335000Y-71266260D01*
X71335000Y-71122260D01*
X71462753Y-71190546D01*
X71564753Y-71221487D01*
X71658969Y-71397752D01*
X71863286Y-71646714D01*
X72112248Y-71851031D01*
X72396285Y-72002852D01*
X72704484Y-72096343D01*
X72944678Y-72120000D01*
X73105322Y-72120000D01*
X73345516Y-72096343D01*
X73653715Y-72002852D01*
X73937752Y-71851031D01*
X74186714Y-71646714D01*
X74391031Y-71397752D01*
X74542852Y-71113715D01*
X74636343Y-70805516D01*
X74667911Y-70485000D01*
X74636343Y-70164484D01*
X74542852Y-69856285D01*
X74391031Y-69572248D01*
X74186714Y-69323286D01*
X73937752Y-69118969D01*
X73653715Y-68967148D01*
X73345516Y-68873657D01*
X73105322Y-68850000D01*
X72944678Y-68850000D01*
X72704484Y-68873657D01*
X72396285Y-68967148D01*
X72112248Y-69118969D01*
X71863286Y-69323286D01*
X71775300Y-69430498D01*
X68952714Y-66607912D01*
X68978325Y-66546081D01*
X69006387Y-66405000D01*
X71386928Y-66405000D01*
X71399188Y-66529482D01*
X71435498Y-66649180D01*
X71494463Y-66759494D01*
X71573815Y-66856185D01*
X71670506Y-66935537D01*
X71780820Y-66994502D01*
X71900518Y-67030812D01*
X72025000Y-67043072D01*
X72739250Y-67040000D01*
X72898000Y-66881250D01*
X72898000Y-65532000D01*
X71548750Y-65532000D01*
X71390000Y-65690750D01*
X71386928Y-66405000D01*
X69006387Y-66405000D01*
X69045000Y-66210883D01*
X69045000Y-65869117D01*
X68978325Y-65533919D01*
X68847537Y-65218169D01*
X68657663Y-64934002D01*
X68415998Y-64692337D01*
X68131831Y-64502463D01*
X67896535Y-64405000D01*
X71386928Y-64405000D01*
X71390000Y-65119250D01*
X71548750Y-65278000D01*
X72898000Y-65278000D01*
X72898000Y-63928750D01*
X73152000Y-63928750D01*
X73152000Y-65278000D01*
X74501250Y-65278000D01*
X74660000Y-65119250D01*
X74663072Y-64405000D01*
X74650812Y-64280518D01*
X74614502Y-64160820D01*
X74555537Y-64050506D01*
X74476185Y-63953815D01*
X74379494Y-63874463D01*
X74269180Y-63815498D01*
X74149482Y-63779188D01*
X74025000Y-63766928D01*
X73310750Y-63770000D01*
X73152000Y-63928750D01*
X72898000Y-63928750D01*
X72739250Y-63770000D01*
X72025000Y-63766928D01*
X71900518Y-63779188D01*
X71780820Y-63815498D01*
X71670506Y-63874463D01*
X71573815Y-63953815D01*
X71494463Y-64050506D01*
X71435498Y-64160820D01*
X71399188Y-64280518D01*
X71386928Y-64405000D01*
X67896535Y-64405000D01*
X67816081Y-64371675D01*
X67480883Y-64305000D01*
X67139117Y-64305000D01*
X66803919Y-64371675D01*
X66488169Y-64502463D01*
X66204002Y-64692337D01*
X65962337Y-64934002D01*
X65772463Y-65218169D01*
X65641675Y-65533919D01*
X65575000Y-65869117D01*
X65575000Y-66210883D01*
X65641675Y-66546081D01*
X65772463Y-66861831D01*
X65962337Y-67145998D01*
X66204002Y-67387663D01*
X66488169Y-67577537D01*
X66803919Y-67708325D01*
X67139117Y-67775000D01*
X67480883Y-67775000D01*
X67816081Y-67708325D01*
X67877912Y-67682714D01*
X69830198Y-69635000D01*
X69703740Y-69635000D01*
X69416842Y-69692068D01*
X69146589Y-69804010D01*
X68903368Y-69966525D01*
X68696525Y-70173368D01*
X68542973Y-70403174D01*
X66208802Y-68069003D01*
X66184999Y-68039999D01*
X66069274Y-67945026D01*
X65937245Y-67874454D01*
X65793984Y-67830997D01*
X65682331Y-67820000D01*
X65682320Y-67820000D01*
X65644998Y-67816324D01*
X65607676Y-67820000D01*
X62523148Y-67820000D01*
X62497537Y-67758169D01*
X62307663Y-67474002D01*
X62065998Y-67232337D01*
X61781831Y-67042463D01*
X61466081Y-66911675D01*
X61130883Y-66845000D01*
X60789117Y-66845000D01*
X60453919Y-66911675D01*
X60138169Y-67042463D01*
X59854002Y-67232337D01*
X59612337Y-67474002D01*
X59422463Y-67758169D01*
X59291675Y-68073919D01*
X59225000Y-68409117D01*
X59225000Y-68750883D01*
X59291675Y-69086081D01*
X59422463Y-69401831D01*
X59578261Y-69635000D01*
X59543740Y-69635000D01*
X59256842Y-69692068D01*
X58986589Y-69804010D01*
X58743368Y-69966525D01*
X58536525Y-70173368D01*
X58374010Y-70416589D01*
X58262068Y-70686842D01*
X58205000Y-70973740D01*
X58205000Y-71266260D01*
X58262068Y-71553158D01*
X58374010Y-71823411D01*
X58536525Y-72066632D01*
X58743368Y-72273475D01*
X58986589Y-72435990D01*
X59256842Y-72547932D01*
X59543740Y-72605000D01*
X59836260Y-72605000D01*
X60123158Y-72547932D01*
X60393411Y-72435990D01*
X60636632Y-72273475D01*
X60843475Y-72066632D01*
X61005990Y-71823411D01*
X61117932Y-71553158D01*
X61175000Y-71266260D01*
X61175000Y-70973740D01*
X61117932Y-70686842D01*
X61005990Y-70416589D01*
X60938110Y-70315000D01*
X61130883Y-70315000D01*
X61466081Y-70248325D01*
X61781831Y-70117537D01*
X62065998Y-69927663D01*
X62307663Y-69685998D01*
X62497537Y-69401831D01*
X62523148Y-69340000D01*
X62823547Y-69340000D01*
X62723262Y-69440285D01*
X62434893Y-69871859D01*
X62236261Y-70351399D01*
X62135000Y-70860475D01*
X62135000Y-71379525D01*
X62236261Y-71888601D01*
X62434893Y-72368141D01*
X62723262Y-72799715D01*
X63090285Y-73166738D01*
X63521859Y-73455107D01*
X63714738Y-73535000D01*
X57735901Y-73535000D01*
X57713932Y-73493899D01*
X57534608Y-73275392D01*
X57316101Y-73096068D01*
X57066808Y-72962818D01*
X56796309Y-72880764D01*
X56585492Y-72860000D01*
X56444508Y-72860000D01*
X56233691Y-72880764D01*
X56149999Y-72906151D01*
X56149999Y-68114802D01*
X56191113Y-68073688D01*
X56373665Y-68110000D01*
X56656335Y-68110000D01*
X56933574Y-68054853D01*
X57194727Y-67946680D01*
X57429759Y-67789637D01*
X57629637Y-67589759D01*
X57786680Y-67354727D01*
X57894853Y-67093574D01*
X57950000Y-66816335D01*
X57950000Y-66533665D01*
X57894853Y-66256426D01*
X57786680Y-65995273D01*
X57629637Y-65760241D01*
X57429759Y-65560363D01*
X57194727Y-65403320D01*
X56933574Y-65295147D01*
X56656335Y-65240000D01*
X56373665Y-65240000D01*
X56096426Y-65295147D01*
X55835273Y-65403320D01*
X55600241Y-65560363D01*
X55539927Y-65620677D01*
X55451250Y-65532000D01*
X54102000Y-65532000D01*
X54102000Y-66881250D01*
X54260750Y-67040000D01*
X54975000Y-67043072D01*
X55082738Y-67032461D01*
X54879001Y-67236197D01*
X54849998Y-67260000D01*
X54794870Y-67327175D01*
X54755025Y-67375725D01*
X54692221Y-67493222D01*
X54684453Y-67507755D01*
X54640996Y-67651016D01*
X54629999Y-67762669D01*
X54629999Y-67762679D01*
X54626323Y-67800001D01*
X54629999Y-67837323D01*
X54629999Y-68981197D01*
X54603715Y-68967148D01*
X54295516Y-68873657D01*
X54055322Y-68850000D01*
X53894678Y-68850000D01*
X53654484Y-68873657D01*
X53346285Y-68967148D01*
X53062248Y-69118969D01*
X52813286Y-69323286D01*
X52725300Y-69430498D01*
X49902714Y-66607912D01*
X49928325Y-66546081D01*
X49956387Y-66405000D01*
X52336928Y-66405000D01*
X52349188Y-66529482D01*
X52385498Y-66649180D01*
X52444463Y-66759494D01*
X52523815Y-66856185D01*
X52620506Y-66935537D01*
X52730820Y-66994502D01*
X52850518Y-67030812D01*
X52975000Y-67043072D01*
X53689250Y-67040000D01*
X53848000Y-66881250D01*
X53848000Y-65532000D01*
X52498750Y-65532000D01*
X52340000Y-65690750D01*
X52336928Y-66405000D01*
X49956387Y-66405000D01*
X49995000Y-66210883D01*
X49995000Y-65869117D01*
X49928325Y-65533919D01*
X49797537Y-65218169D01*
X49607663Y-64934002D01*
X49365998Y-64692337D01*
X49081831Y-64502463D01*
X48846535Y-64405000D01*
X52336928Y-64405000D01*
X52340000Y-65119250D01*
X52498750Y-65278000D01*
X53848000Y-65278000D01*
X53848000Y-63928750D01*
X54102000Y-63928750D01*
X54102000Y-65278000D01*
X55451250Y-65278000D01*
X55610000Y-65119250D01*
X55613072Y-64405000D01*
X55600812Y-64280518D01*
X55564502Y-64160820D01*
X55505537Y-64050506D01*
X55426185Y-63953815D01*
X55329494Y-63874463D01*
X55219180Y-63815498D01*
X55099482Y-63779188D01*
X54975000Y-63766928D01*
X54260750Y-63770000D01*
X54102000Y-63928750D01*
X53848000Y-63928750D01*
X53689250Y-63770000D01*
X52975000Y-63766928D01*
X52850518Y-63779188D01*
X52730820Y-63815498D01*
X52620506Y-63874463D01*
X52523815Y-63953815D01*
X52444463Y-64050506D01*
X52385498Y-64160820D01*
X52349188Y-64280518D01*
X52336928Y-64405000D01*
X48846535Y-64405000D01*
X48766081Y-64371675D01*
X48430883Y-64305000D01*
X48089117Y-64305000D01*
X47753919Y-64371675D01*
X47438169Y-64502463D01*
X47154002Y-64692337D01*
X46912337Y-64934002D01*
X46722463Y-65218169D01*
X46591675Y-65533919D01*
X46525000Y-65869117D01*
X46525000Y-66210883D01*
X46591675Y-66546081D01*
X46722463Y-66861831D01*
X46912337Y-67145998D01*
X47154002Y-67387663D01*
X47438169Y-67577537D01*
X47753919Y-67708325D01*
X48089117Y-67775000D01*
X48430883Y-67775000D01*
X48766081Y-67708325D01*
X48827912Y-67682714D01*
X50780198Y-69635000D01*
X50653740Y-69635000D01*
X50366842Y-69692068D01*
X50096589Y-69804010D01*
X49853368Y-69966525D01*
X49646525Y-70173368D01*
X49484010Y-70416589D01*
X49372068Y-70686842D01*
X49315000Y-70973740D01*
X49315000Y-71266260D01*
X49372068Y-71553158D01*
X49484010Y-71823411D01*
X49646525Y-72066632D01*
X49853368Y-72273475D01*
X50096589Y-72435990D01*
X50366842Y-72547932D01*
X50653740Y-72605000D01*
X50946260Y-72605000D01*
X51233158Y-72547932D01*
X51503411Y-72435990D01*
X51746632Y-72273475D01*
X51953475Y-72066632D01*
X52115990Y-71823411D01*
X52227932Y-71553158D01*
X52285000Y-71266260D01*
X52285000Y-71122260D01*
X52412753Y-71190546D01*
X52514753Y-71221487D01*
X52608969Y-71397752D01*
X52813286Y-71646714D01*
X53062248Y-71851031D01*
X53346285Y-72002852D01*
X53654484Y-72096343D01*
X53894678Y-72120000D01*
X54055322Y-72120000D01*
X54295516Y-72096343D01*
X54603715Y-72002852D01*
X54629999Y-71988803D01*
X54630000Y-76176610D01*
X51787382Y-73333993D01*
X51763579Y-73304989D01*
X51647854Y-73210016D01*
X51515825Y-73139444D01*
X51372564Y-73095987D01*
X51260911Y-73084990D01*
X51260900Y-73084990D01*
X51223578Y-73081314D01*
X51186256Y-73084990D01*
X47481463Y-73084990D01*
X47766738Y-72799715D01*
X48055107Y-72368141D01*
X48253739Y-71888601D01*
X48355000Y-71379525D01*
X48355000Y-70860475D01*
X48253739Y-70351399D01*
X48055107Y-69871859D01*
X47766738Y-69440285D01*
X47399715Y-69073262D01*
X46968141Y-68784893D01*
X46488601Y-68586261D01*
X45979525Y-68485000D01*
X45460475Y-68485000D01*
X44951399Y-68586261D01*
X44471859Y-68784893D01*
X44040285Y-69073262D01*
X43673262Y-69440285D01*
X43384893Y-69871859D01*
X43186261Y-70351399D01*
X43096825Y-70801026D01*
X42506621Y-70210822D01*
X42731831Y-70117537D01*
X43015998Y-69927663D01*
X43257663Y-69685998D01*
X43447537Y-69401831D01*
X43578325Y-69086081D01*
X43645000Y-68750883D01*
X43645000Y-68409117D01*
X43578325Y-68073919D01*
X43447537Y-67758169D01*
X43257663Y-67474002D01*
X43015998Y-67232337D01*
X42731831Y-67042463D01*
X42416081Y-66911675D01*
X42080883Y-66845000D01*
X41739117Y-66845000D01*
X41403919Y-66911675D01*
X41088169Y-67042463D01*
X40804002Y-67232337D01*
X40562337Y-67474002D01*
X40372463Y-67758169D01*
X40241675Y-68073919D01*
X40191412Y-68326610D01*
X38863688Y-66998886D01*
X38900000Y-66816335D01*
X38900000Y-66533665D01*
X38844853Y-66256426D01*
X38736680Y-65995273D01*
X38579637Y-65760241D01*
X38379759Y-65560363D01*
X38144727Y-65403320D01*
X37883574Y-65295147D01*
X37606335Y-65240000D01*
X37323665Y-65240000D01*
X37046426Y-65295147D01*
X36785273Y-65403320D01*
X36550241Y-65560363D01*
X36350363Y-65760241D01*
X36220000Y-65955343D01*
X36220000Y-62262279D01*
X36234722Y-62112131D01*
X36268953Y-61998754D01*
X36324555Y-61894181D01*
X36399407Y-61802404D01*
X36490664Y-61726909D01*
X36594844Y-61670581D01*
X36707976Y-61635560D01*
X36856022Y-61620000D01*
X112997721Y-61620000D01*
X113147869Y-61634722D01*
G36*
X110296424Y-88511226D02*
G01*
X110248700Y-88751150D01*
X110248700Y-89048850D01*
X110306778Y-89340830D01*
X110420703Y-89615869D01*
X110586096Y-89863398D01*
X110796602Y-90073904D01*
X110959809Y-90182955D01*
X110892437Y-90392831D01*
X111760000Y-91260395D01*
X111774142Y-91246252D01*
X111953748Y-91425858D01*
X111939605Y-91440000D01*
X111953748Y-91454143D01*
X111774142Y-91633748D01*
X111760000Y-91619605D01*
X110892437Y-92487169D01*
X110973254Y-92738929D01*
X111241779Y-92867457D01*
X111530219Y-92941129D01*
X111827491Y-92957113D01*
X112122167Y-92914796D01*
X112201301Y-92886894D01*
X112201301Y-93890992D01*
X110278239Y-95814055D01*
X110189171Y-95647421D01*
X110044212Y-95470788D01*
X109867578Y-95325829D01*
X109666059Y-95218115D01*
X109447399Y-95151785D01*
X109220000Y-95129388D01*
X108992600Y-95151785D01*
X108773940Y-95218115D01*
X108585331Y-95318929D01*
X108526882Y-95277725D01*
X108317337Y-95184728D01*
X108255810Y-95176036D01*
X108077000Y-95301837D01*
X108077000Y-96066892D01*
X108076785Y-96067601D01*
X108060000Y-96238022D01*
X108060000Y-96667000D01*
X107843072Y-96667000D01*
X107843072Y-95770000D01*
X107830812Y-95645518D01*
X107823000Y-95619765D01*
X107823000Y-95301837D01*
X107644190Y-95176036D01*
X107582663Y-95184728D01*
X107514057Y-95215176D01*
X107449180Y-95180498D01*
X107329482Y-95144188D01*
X107205000Y-95131928D01*
X106155000Y-95131928D01*
X106030518Y-95144188D01*
X105910820Y-95180498D01*
X105800506Y-95239463D01*
X105703815Y-95318815D01*
X105624463Y-95415506D01*
X105565498Y-95525820D01*
X105529188Y-95645518D01*
X105516928Y-95770000D01*
X105516928Y-96835010D01*
X102756747Y-96835010D01*
X102760000Y-96801978D01*
X102760000Y-96238021D01*
X102743215Y-96067600D01*
X102676885Y-95848940D01*
X102569171Y-95647421D01*
X102424212Y-95470788D01*
X102247578Y-95325829D01*
X102046059Y-95218115D01*
X101827399Y-95151785D01*
X101600000Y-95129388D01*
X101372600Y-95151785D01*
X101153940Y-95218115D01*
X100965000Y-95319106D01*
X100776059Y-95218115D01*
X100557399Y-95151785D01*
X100330000Y-95129388D01*
X100102600Y-95151785D01*
X99893902Y-95215093D01*
X99829180Y-95180498D01*
X99709482Y-95144188D01*
X99585000Y-95131928D01*
X98535000Y-95131928D01*
X98410518Y-95144188D01*
X98290820Y-95180498D01*
X98180506Y-95239463D01*
X98083815Y-95318815D01*
X98004463Y-95415506D01*
X97945498Y-95525820D01*
X97909188Y-95645518D01*
X97896928Y-95770000D01*
X97896928Y-97270000D01*
X97909188Y-97394482D01*
X97945498Y-97514180D01*
X98004463Y-97624494D01*
X98083815Y-97721185D01*
X98180506Y-97800537D01*
X98290820Y-97859502D01*
X98410518Y-97895812D01*
X98535000Y-97908072D01*
X99585000Y-97908072D01*
X99709482Y-97895812D01*
X99829180Y-97859502D01*
X99893902Y-97824907D01*
X100102601Y-97888215D01*
X100330000Y-97910612D01*
X100412668Y-97902470D01*
X100616211Y-98106013D01*
X100640009Y-98135011D01*
X100755734Y-98229984D01*
X100887763Y-98300556D01*
X101031024Y-98344013D01*
X101142677Y-98355010D01*
X101142685Y-98355010D01*
X101180010Y-98358686D01*
X101217335Y-98355010D01*
X109534763Y-98355010D01*
X109572085Y-98358686D01*
X109609407Y-98355010D01*
X109609418Y-98355010D01*
X109721071Y-98344013D01*
X109864332Y-98300556D01*
X109996361Y-98229984D01*
X110112086Y-98135011D01*
X110135889Y-98106007D01*
X113472305Y-94769592D01*
X113501302Y-94745795D01*
X113596275Y-94630070D01*
X113640000Y-94548267D01*
X113640000Y-99027721D01*
X113625278Y-99177869D01*
X113591047Y-99291246D01*
X113535446Y-99395817D01*
X113460594Y-99487595D01*
X113369335Y-99563091D01*
X113265160Y-99619419D01*
X113152024Y-99654440D01*
X113003979Y-99670000D01*
X36862279Y-99670000D01*
X36712131Y-99655278D01*
X36598754Y-99621047D01*
X36494183Y-99565446D01*
X36402405Y-99490594D01*
X36326909Y-99399335D01*
X36270581Y-99295160D01*
X36235560Y-99182024D01*
X36220000Y-99033979D01*
X36220000Y-95329914D01*
X36266068Y-95416101D01*
X36445392Y-95634608D01*
X36663899Y-95813932D01*
X36913192Y-95947182D01*
X37183691Y-96029236D01*
X37394508Y-96050000D01*
X37535492Y-96050000D01*
X37746309Y-96029236D01*
X37790906Y-96015708D01*
X38126211Y-96351013D01*
X38150009Y-96380011D01*
X38265734Y-96474984D01*
X38397763Y-96545556D01*
X38541024Y-96589013D01*
X38652677Y-96600010D01*
X38652685Y-96600010D01*
X38690010Y-96603686D01*
X38727335Y-96600010D01*
X46727668Y-96600010D01*
X46764990Y-96603686D01*
X46802312Y-96600010D01*
X46802323Y-96600010D01*
X46913976Y-96589013D01*
X47057237Y-96545556D01*
X47189266Y-96474984D01*
X47304991Y-96380011D01*
X47328793Y-96351008D01*
X47533183Y-96146618D01*
X47625000Y-96155661D01*
X47854360Y-96133071D01*
X48074906Y-96066169D01*
X48278162Y-95957526D01*
X48456318Y-95811318D01*
X48602526Y-95633162D01*
X48711169Y-95429906D01*
X48778071Y-95209359D01*
X48795000Y-95037476D01*
X48795000Y-94192523D01*
X48778071Y-94020640D01*
X48711169Y-93800094D01*
X48602526Y-93596838D01*
X48456318Y-93418682D01*
X48278161Y-93272474D01*
X48074905Y-93163831D01*
X47854359Y-93096929D01*
X47625000Y-93074339D01*
X47395640Y-93096929D01*
X47175094Y-93163831D01*
X46990000Y-93262766D01*
X46804905Y-93163831D01*
X46584359Y-93096929D01*
X46355000Y-93074339D01*
X46263183Y-93083382D01*
X46058793Y-92878992D01*
X46034991Y-92849989D01*
X45980046Y-92804896D01*
X46488601Y-92703739D01*
X46968141Y-92505107D01*
X47399715Y-92216738D01*
X47766738Y-91849715D01*
X48055107Y-91418141D01*
X48253739Y-90938601D01*
X48355000Y-90429525D01*
X48355000Y-90023740D01*
X49315000Y-90023740D01*
X49315000Y-90316260D01*
X49372068Y-90603158D01*
X49484010Y-90873411D01*
X49646525Y-91116632D01*
X49853368Y-91323475D01*
X50096589Y-91485990D01*
X50366842Y-91597932D01*
X50653740Y-91655000D01*
X50946260Y-91655000D01*
X51233158Y-91597932D01*
X51503411Y-91485990D01*
X51746632Y-91323475D01*
X51953475Y-91116632D01*
X52115990Y-90873411D01*
X52227932Y-90603158D01*
X52241489Y-90535000D01*
X52336928Y-90535000D01*
X52349188Y-90659482D01*
X52385498Y-90779180D01*
X52444463Y-90889494D01*
X52523815Y-90986185D01*
X52620506Y-91065537D01*
X52730820Y-91124502D01*
X52850518Y-91160812D01*
X52975000Y-91173072D01*
X53689250Y-91170000D01*
X53848000Y-91011250D01*
X53848000Y-89662000D01*
X54102000Y-89662000D01*
X54102000Y-91011250D01*
X54260750Y-91170000D01*
X54975000Y-91173072D01*
X55099482Y-91160812D01*
X55219180Y-91124502D01*
X55329494Y-91065537D01*
X55426185Y-90986185D01*
X55505537Y-90889494D01*
X55564502Y-90779180D01*
X55600812Y-90659482D01*
X55613072Y-90535000D01*
X55610000Y-89820750D01*
X55451250Y-89662000D01*
X54102000Y-89662000D01*
X53848000Y-89662000D01*
X52498750Y-89662000D01*
X52340000Y-89820750D01*
X52336928Y-90535000D01*
X52241489Y-90535000D01*
X52285000Y-90316260D01*
X52285000Y-90023740D01*
X52227932Y-89736842D01*
X52115990Y-89466589D01*
X51953475Y-89223368D01*
X51746632Y-89016525D01*
X51503411Y-88854010D01*
X51233158Y-88742068D01*
X50946260Y-88685000D01*
X50653740Y-88685000D01*
X50366842Y-88742068D01*
X50096589Y-88854010D01*
X49853368Y-89016525D01*
X49646525Y-89223368D01*
X49484010Y-89466589D01*
X49372068Y-89736842D01*
X49315000Y-90023740D01*
X48355000Y-90023740D01*
X48355000Y-89910475D01*
X48253739Y-89401399D01*
X48055107Y-88921859D01*
X47796616Y-88535000D01*
X52336928Y-88535000D01*
X52340000Y-89249250D01*
X52498750Y-89408000D01*
X53848000Y-89408000D01*
X53848000Y-88058750D01*
X54102000Y-88058750D01*
X54102000Y-89408000D01*
X55451250Y-89408000D01*
X55610000Y-89249250D01*
X55613072Y-88535000D01*
X55600812Y-88410518D01*
X55564502Y-88290820D01*
X55505537Y-88180506D01*
X55426185Y-88083815D01*
X55329494Y-88004463D01*
X55219180Y-87945498D01*
X55099482Y-87909188D01*
X54975000Y-87896928D01*
X54260750Y-87900000D01*
X54102000Y-88058750D01*
X53848000Y-88058750D01*
X53689250Y-87900000D01*
X52975000Y-87896928D01*
X52850518Y-87909188D01*
X52730820Y-87945498D01*
X52620506Y-88004463D01*
X52523815Y-88083815D01*
X52444463Y-88180506D01*
X52385498Y-88290820D01*
X52349188Y-88410518D01*
X52336928Y-88535000D01*
X47796616Y-88535000D01*
X47766738Y-88490285D01*
X47399715Y-88123262D01*
X46968141Y-87834893D01*
X46488601Y-87636261D01*
X45979525Y-87535000D01*
X45460475Y-87535000D01*
X44951399Y-87636261D01*
X44471859Y-87834893D01*
X44040285Y-88123262D01*
X43673262Y-88490285D01*
X43384893Y-88921859D01*
X43186261Y-89401399D01*
X43085000Y-89910475D01*
X43085000Y-90429525D01*
X43186261Y-90938601D01*
X43384893Y-91418141D01*
X43673262Y-91849715D01*
X44040285Y-92216738D01*
X44471859Y-92505107D01*
X44773353Y-92629990D01*
X42435790Y-92629990D01*
X41306909Y-91501110D01*
X41343411Y-91485990D01*
X41586632Y-91323475D01*
X41793475Y-91116632D01*
X41955990Y-90873411D01*
X42067932Y-90603158D01*
X42125000Y-90316260D01*
X42125000Y-90023740D01*
X42067932Y-89736842D01*
X41955990Y-89466589D01*
X41888110Y-89365000D01*
X42080883Y-89365000D01*
X42416081Y-89298325D01*
X42731831Y-89167537D01*
X43015998Y-88977663D01*
X43257663Y-88735998D01*
X43447537Y-88451831D01*
X43578325Y-88136081D01*
X43645000Y-87800883D01*
X43645000Y-87459117D01*
X43578325Y-87123919D01*
X43552714Y-87062088D01*
X47939802Y-82675000D01*
X55315199Y-82675000D01*
X54895155Y-83095044D01*
X54887752Y-83088969D01*
X54603715Y-82937148D01*
X54295516Y-82843657D01*
X54055322Y-82820000D01*
X53894678Y-82820000D01*
X53654484Y-82843657D01*
X53346285Y-82937148D01*
X53062248Y-83088969D01*
X52813286Y-83293286D01*
X52608969Y-83542248D01*
X52457148Y-83826285D01*
X52363657Y-84134484D01*
X52344400Y-84330000D01*
X49823148Y-84330000D01*
X49797537Y-84268169D01*
X49607663Y-83984002D01*
X49365998Y-83742337D01*
X49081831Y-83552463D01*
X48766081Y-83421675D01*
X48430883Y-83355000D01*
X48089117Y-83355000D01*
X47753919Y-83421675D01*
X47438169Y-83552463D01*
X47154002Y-83742337D01*
X46912337Y-83984002D01*
X46722463Y-84268169D01*
X46591675Y-84583919D01*
X46525000Y-84919117D01*
X46525000Y-85260883D01*
X46591675Y-85596081D01*
X46722463Y-85911831D01*
X46912337Y-86195998D01*
X47154002Y-86437663D01*
X47438169Y-86627537D01*
X47753919Y-86758325D01*
X48089117Y-86825000D01*
X48430883Y-86825000D01*
X48766081Y-86758325D01*
X49081831Y-86627537D01*
X49365998Y-86437663D01*
X49607663Y-86195998D01*
X49797537Y-85911831D01*
X49823148Y-85850000D01*
X53116445Y-85850000D01*
X53346285Y-85972852D01*
X53654484Y-86066343D01*
X53894678Y-86090000D01*
X54055322Y-86090000D01*
X54295516Y-86066343D01*
X54603715Y-85972852D01*
X54887752Y-85821031D01*
X55026973Y-85706776D01*
X55400400Y-86080204D01*
X55400363Y-86080241D01*
X55243320Y-86315273D01*
X55135147Y-86576426D01*
X55080000Y-86853665D01*
X55080000Y-87136335D01*
X55135147Y-87413574D01*
X55243320Y-87674727D01*
X55400363Y-87909759D01*
X55600241Y-88109637D01*
X55835273Y-88266680D01*
X56096426Y-88374853D01*
X56373665Y-88430000D01*
X56656335Y-88430000D01*
X56933574Y-88374853D01*
X57194727Y-88266680D01*
X57429759Y-88109637D01*
X57629637Y-87909759D01*
X57660000Y-87864317D01*
X57660001Y-90601670D01*
X57656324Y-90639002D01*
X57660001Y-90676335D01*
X57670131Y-90779180D01*
X57670998Y-90787987D01*
X57714454Y-90931248D01*
X57785026Y-91063278D01*
X57828813Y-91116632D01*
X57880000Y-91179003D01*
X57908998Y-91202801D01*
X60607188Y-93900992D01*
X60630987Y-93929991D01*
X60659985Y-93953789D01*
X60746712Y-94024964D01*
X60878741Y-94095536D01*
X61022002Y-94138993D01*
X61170988Y-94153667D01*
X61208321Y-94149990D01*
X61691928Y-94149990D01*
X61691928Y-95080010D01*
X58054812Y-95080010D01*
X57915708Y-94940906D01*
X57929236Y-94896309D01*
X57956943Y-94615000D01*
X57929236Y-94333691D01*
X57847182Y-94063192D01*
X57713932Y-93813899D01*
X57534608Y-93595392D01*
X57316101Y-93416068D01*
X57066808Y-93282818D01*
X56796309Y-93200764D01*
X56585492Y-93180000D01*
X56444508Y-93180000D01*
X56233691Y-93200764D01*
X55963192Y-93282818D01*
X55713899Y-93416068D01*
X55495392Y-93595392D01*
X55316068Y-93813899D01*
X55182818Y-94063192D01*
X55100764Y-94333691D01*
X55073057Y-94615000D01*
X55100764Y-94896309D01*
X55182818Y-95166808D01*
X55316068Y-95416101D01*
X55495392Y-95634608D01*
X55713899Y-95813932D01*
X55963192Y-95947182D01*
X56233691Y-96029236D01*
X56444508Y-96050000D01*
X56585492Y-96050000D01*
X56796309Y-96029236D01*
X56840906Y-96015708D01*
X57176211Y-96351013D01*
X57200009Y-96380011D01*
X57315734Y-96474984D01*
X57447763Y-96545556D01*
X57591024Y-96589013D01*
X57702677Y-96600010D01*
X57702685Y-96600010D01*
X57740010Y-96603686D01*
X57777335Y-96600010D01*
X65777668Y-96600010D01*
X65814990Y-96603686D01*
X65852312Y-96600010D01*
X65852323Y-96600010D01*
X65963976Y-96589013D01*
X66107237Y-96545556D01*
X66239266Y-96474984D01*
X66354991Y-96380011D01*
X66378793Y-96351008D01*
X66583183Y-96146618D01*
X66675000Y-96155661D01*
X66904360Y-96133071D01*
X67124906Y-96066169D01*
X67328162Y-95957526D01*
X67506318Y-95811318D01*
X67652526Y-95633162D01*
X67761169Y-95429906D01*
X67828071Y-95209359D01*
X67845000Y-95037476D01*
X67845000Y-94192523D01*
X67828071Y-94020640D01*
X67761169Y-93800094D01*
X67652526Y-93596838D01*
X67506318Y-93418682D01*
X67328161Y-93272474D01*
X67124905Y-93163831D01*
X66904359Y-93096929D01*
X66675000Y-93074339D01*
X66445640Y-93096929D01*
X66225094Y-93163831D01*
X66040000Y-93262766D01*
X65854905Y-93163831D01*
X65634359Y-93096929D01*
X65405000Y-93074339D01*
X65313183Y-93083382D01*
X65108793Y-92878992D01*
X65084991Y-92849989D01*
X65030046Y-92804896D01*
X65538601Y-92703739D01*
X66018141Y-92505107D01*
X66449715Y-92216738D01*
X66816738Y-91849715D01*
X67105107Y-91418141D01*
X67303739Y-90938601D01*
X67405000Y-90429525D01*
X67405000Y-90023740D01*
X68365000Y-90023740D01*
X68365000Y-90316260D01*
X68422068Y-90603158D01*
X68534010Y-90873411D01*
X68696525Y-91116632D01*
X68903368Y-91323475D01*
X69146589Y-91485990D01*
X69416842Y-91597932D01*
X69703740Y-91655000D01*
X69996260Y-91655000D01*
X70283158Y-91597932D01*
X70553411Y-91485990D01*
X70796632Y-91323475D01*
X71003475Y-91116632D01*
X71165990Y-90873411D01*
X71277932Y-90603158D01*
X71291489Y-90535000D01*
X71386928Y-90535000D01*
X71399188Y-90659482D01*
X71435498Y-90779180D01*
X71494463Y-90889494D01*
X71573815Y-90986185D01*
X71670506Y-91065537D01*
X71780820Y-91124502D01*
X71900518Y-91160812D01*
X72025000Y-91173072D01*
X72739250Y-91170000D01*
X72898000Y-91011250D01*
X72898000Y-89662000D01*
X73152000Y-89662000D01*
X73152000Y-91011250D01*
X73310750Y-91170000D01*
X74025000Y-91173072D01*
X74149482Y-91160812D01*
X74269180Y-91124502D01*
X74379494Y-91065537D01*
X74476185Y-90986185D01*
X74555537Y-90889494D01*
X74614502Y-90779180D01*
X74650812Y-90659482D01*
X74663072Y-90535000D01*
X74660000Y-89820750D01*
X74501250Y-89662000D01*
X73152000Y-89662000D01*
X72898000Y-89662000D01*
X71548750Y-89662000D01*
X71390000Y-89820750D01*
X71386928Y-90535000D01*
X71291489Y-90535000D01*
X71335000Y-90316260D01*
X71335000Y-90023740D01*
X71277932Y-89736842D01*
X71165990Y-89466589D01*
X71003475Y-89223368D01*
X70796632Y-89016525D01*
X70553411Y-88854010D01*
X70283158Y-88742068D01*
X69996260Y-88685000D01*
X69703740Y-88685000D01*
X69416842Y-88742068D01*
X69146589Y-88854010D01*
X68903368Y-89016525D01*
X68696525Y-89223368D01*
X68534010Y-89466589D01*
X68422068Y-89736842D01*
X68365000Y-90023740D01*
X67405000Y-90023740D01*
X67405000Y-89910475D01*
X67303739Y-89401399D01*
X67105107Y-88921859D01*
X66846616Y-88535000D01*
X71386928Y-88535000D01*
X71390000Y-89249250D01*
X71548750Y-89408000D01*
X72898000Y-89408000D01*
X72898000Y-88058750D01*
X73152000Y-88058750D01*
X73152000Y-89408000D01*
X74501250Y-89408000D01*
X74660000Y-89249250D01*
X74663072Y-88535000D01*
X74650812Y-88410518D01*
X74614502Y-88290820D01*
X74555537Y-88180506D01*
X74476185Y-88083815D01*
X74379494Y-88004463D01*
X74269180Y-87945498D01*
X74149482Y-87909188D01*
X74025000Y-87896928D01*
X73310750Y-87900000D01*
X73152000Y-88058750D01*
X72898000Y-88058750D01*
X72739250Y-87900000D01*
X72025000Y-87896928D01*
X71900518Y-87909188D01*
X71780820Y-87945498D01*
X71670506Y-88004463D01*
X71573815Y-88083815D01*
X71494463Y-88180506D01*
X71435498Y-88290820D01*
X71399188Y-88410518D01*
X71386928Y-88535000D01*
X66846616Y-88535000D01*
X66816738Y-88490285D01*
X66449715Y-88123262D01*
X66018141Y-87834893D01*
X65538601Y-87636261D01*
X65029525Y-87535000D01*
X64510475Y-87535000D01*
X64001399Y-87636261D01*
X63521859Y-87834893D01*
X63090285Y-88123262D01*
X62723262Y-88490285D01*
X62434893Y-88921859D01*
X62236261Y-89401399D01*
X62135000Y-89910475D01*
X62135000Y-90429525D01*
X62236261Y-90938601D01*
X62434893Y-91418141D01*
X62723262Y-91849715D01*
X63090285Y-92216738D01*
X63521859Y-92505107D01*
X63823353Y-92629990D01*
X61485790Y-92629990D01*
X60356909Y-91501110D01*
X60393411Y-91485990D01*
X60636632Y-91323475D01*
X60843475Y-91116632D01*
X61005990Y-90873411D01*
X61117932Y-90603158D01*
X61175000Y-90316260D01*
X61175000Y-90023740D01*
X61117932Y-89736842D01*
X61005990Y-89466589D01*
X60938110Y-89365000D01*
X61130883Y-89365000D01*
X61466081Y-89298325D01*
X61781831Y-89167537D01*
X62065998Y-88977663D01*
X62307663Y-88735998D01*
X62497537Y-88451831D01*
X62628325Y-88136081D01*
X62695000Y-87800883D01*
X62695000Y-87459117D01*
X62628325Y-87123919D01*
X62497537Y-86808169D01*
X62307663Y-86524002D01*
X62065998Y-86282337D01*
X61781831Y-86092463D01*
X61466081Y-85961675D01*
X61130883Y-85895000D01*
X60789117Y-85895000D01*
X60453919Y-85961675D01*
X60138169Y-86092463D01*
X59854002Y-86282337D01*
X59612337Y-86524002D01*
X59422463Y-86808169D01*
X59291675Y-87123919D01*
X59225000Y-87459117D01*
X59225000Y-87800883D01*
X59291675Y-88136081D01*
X59422463Y-88451831D01*
X59578261Y-88685000D01*
X59543740Y-88685000D01*
X59256842Y-88742068D01*
X59180000Y-88773897D01*
X59180000Y-86397323D01*
X59183676Y-86360000D01*
X59180000Y-86322677D01*
X59180000Y-86322667D01*
X59169003Y-86211014D01*
X59125546Y-86067753D01*
X59054974Y-85935724D01*
X58960001Y-85819999D01*
X58931004Y-85796202D01*
X57915708Y-84780906D01*
X57929236Y-84736309D01*
X57956943Y-84455000D01*
X57929236Y-84173691D01*
X57847182Y-83903192D01*
X57713932Y-83653899D01*
X57534608Y-83435392D01*
X57381817Y-83310000D01*
X71849569Y-83310000D01*
X71658969Y-83542248D01*
X71507148Y-83826285D01*
X71413657Y-84134484D01*
X71394400Y-84330000D01*
X68873148Y-84330000D01*
X68847537Y-84268169D01*
X68657663Y-83984002D01*
X68415998Y-83742337D01*
X68131831Y-83552463D01*
X67816081Y-83421675D01*
X67480883Y-83355000D01*
X67139117Y-83355000D01*
X66803919Y-83421675D01*
X66488169Y-83552463D01*
X66204002Y-83742337D01*
X65962337Y-83984002D01*
X65772463Y-84268169D01*
X65641675Y-84583919D01*
X65575000Y-84919117D01*
X65575000Y-85260883D01*
X65641675Y-85596081D01*
X65772463Y-85911831D01*
X65962337Y-86195998D01*
X66204002Y-86437663D01*
X66488169Y-86627537D01*
X66803919Y-86758325D01*
X67139117Y-86825000D01*
X67480883Y-86825000D01*
X67816081Y-86758325D01*
X68131831Y-86627537D01*
X68415998Y-86437663D01*
X68657663Y-86195998D01*
X68847537Y-85911831D01*
X68873148Y-85850000D01*
X72166445Y-85850000D01*
X72396285Y-85972852D01*
X72704484Y-86066343D01*
X72944678Y-86090000D01*
X73105322Y-86090000D01*
X73345516Y-86066343D01*
X73653715Y-85972852D01*
X73937752Y-85821031D01*
X74076973Y-85706776D01*
X74450400Y-86080204D01*
X74450363Y-86080241D01*
X74293320Y-86315273D01*
X74185147Y-86576426D01*
X74130000Y-86853665D01*
X74130000Y-87136335D01*
X74185147Y-87413574D01*
X74293320Y-87674727D01*
X74450363Y-87909759D01*
X74650241Y-88109637D01*
X74885273Y-88266680D01*
X75146426Y-88374853D01*
X75423665Y-88430000D01*
X75706335Y-88430000D01*
X75983574Y-88374853D01*
X76244727Y-88266680D01*
X76479759Y-88109637D01*
X76679637Y-87909759D01*
X76804999Y-87722141D01*
X76805000Y-90696669D01*
X76801323Y-90734001D01*
X76815997Y-90882986D01*
X76859453Y-91026247D01*
X76930025Y-91158277D01*
X77001200Y-91245003D01*
X77024999Y-91274002D01*
X77053997Y-91297800D01*
X79657188Y-93900992D01*
X79680987Y-93929991D01*
X79796712Y-94024964D01*
X79928741Y-94095536D01*
X80072002Y-94138993D01*
X80183655Y-94149990D01*
X80183663Y-94149990D01*
X80220988Y-94153666D01*
X80258313Y-94149990D01*
X80741928Y-94149990D01*
X80741928Y-95080010D01*
X77104812Y-95080010D01*
X76965708Y-94940906D01*
X76979236Y-94896309D01*
X77006943Y-94615000D01*
X76979236Y-94333691D01*
X76897182Y-94063192D01*
X76763932Y-93813899D01*
X76584608Y-93595392D01*
X76366101Y-93416068D01*
X76116808Y-93282818D01*
X75846309Y-93200764D01*
X75635492Y-93180000D01*
X75494508Y-93180000D01*
X75283691Y-93200764D01*
X75013192Y-93282818D01*
X74763899Y-93416068D01*
X74545392Y-93595392D01*
X74366068Y-93813899D01*
X74232818Y-94063192D01*
X74150764Y-94333691D01*
X74123057Y-94615000D01*
X74150764Y-94896309D01*
X74232818Y-95166808D01*
X74366068Y-95416101D01*
X74545392Y-95634608D01*
X74763899Y-95813932D01*
X75013192Y-95947182D01*
X75283691Y-96029236D01*
X75494508Y-96050000D01*
X75635492Y-96050000D01*
X75846309Y-96029236D01*
X75890906Y-96015708D01*
X76226211Y-96351013D01*
X76250009Y-96380011D01*
X76365734Y-96474984D01*
X76497763Y-96545556D01*
X76641024Y-96589013D01*
X76752677Y-96600010D01*
X76752685Y-96600010D01*
X76790010Y-96603686D01*
X76827335Y-96600010D01*
X84827668Y-96600010D01*
X84864990Y-96603686D01*
X84902312Y-96600010D01*
X84902323Y-96600010D01*
X85013976Y-96589013D01*
X85157237Y-96545556D01*
X85289266Y-96474984D01*
X85404991Y-96380011D01*
X85428793Y-96351008D01*
X85633183Y-96146618D01*
X85725000Y-96155661D01*
X85954360Y-96133071D01*
X86174906Y-96066169D01*
X86378162Y-95957526D01*
X86556318Y-95811318D01*
X86702526Y-95633162D01*
X86811169Y-95429906D01*
X86878071Y-95209359D01*
X86895000Y-95037476D01*
X86895000Y-94192523D01*
X86878071Y-94020640D01*
X86811169Y-93800094D01*
X86702526Y-93596838D01*
X86556318Y-93418682D01*
X86378161Y-93272474D01*
X86174905Y-93163831D01*
X85954359Y-93096929D01*
X85725000Y-93074339D01*
X85495640Y-93096929D01*
X85275094Y-93163831D01*
X85090000Y-93262766D01*
X84904905Y-93163831D01*
X84684359Y-93096929D01*
X84455000Y-93074339D01*
X84363183Y-93083382D01*
X84158793Y-92878992D01*
X84134991Y-92849989D01*
X84080046Y-92804896D01*
X84588601Y-92703739D01*
X85068141Y-92505107D01*
X85499715Y-92216738D01*
X85866738Y-91849715D01*
X86155107Y-91418141D01*
X86353739Y-90938601D01*
X86455000Y-90429525D01*
X86455000Y-90023740D01*
X87415000Y-90023740D01*
X87415000Y-90316260D01*
X87472068Y-90603158D01*
X87584010Y-90873411D01*
X87746525Y-91116632D01*
X87953368Y-91323475D01*
X88196589Y-91485990D01*
X88466842Y-91597932D01*
X88753740Y-91655000D01*
X89046260Y-91655000D01*
X89333158Y-91597932D01*
X89603411Y-91485990D01*
X89846632Y-91323475D01*
X90053475Y-91116632D01*
X90215990Y-90873411D01*
X90327932Y-90603158D01*
X90341489Y-90535000D01*
X90436928Y-90535000D01*
X90449188Y-90659482D01*
X90485498Y-90779180D01*
X90544463Y-90889494D01*
X90623815Y-90986185D01*
X90720506Y-91065537D01*
X90830820Y-91124502D01*
X90950518Y-91160812D01*
X91075000Y-91173072D01*
X91789250Y-91170000D01*
X91948000Y-91011250D01*
X91948000Y-89662000D01*
X90598750Y-89662000D01*
X90440000Y-89820750D01*
X90436928Y-90535000D01*
X90341489Y-90535000D01*
X90385000Y-90316260D01*
X90385000Y-90023740D01*
X90327932Y-89736842D01*
X90215990Y-89466589D01*
X90053475Y-89223368D01*
X89846632Y-89016525D01*
X89603411Y-88854010D01*
X89333158Y-88742068D01*
X89046260Y-88685000D01*
X88753740Y-88685000D01*
X88466842Y-88742068D01*
X88196589Y-88854010D01*
X87953368Y-89016525D01*
X87746525Y-89223368D01*
X87584010Y-89466589D01*
X87472068Y-89736842D01*
X87415000Y-90023740D01*
X86455000Y-90023740D01*
X86455000Y-89910475D01*
X86353739Y-89401399D01*
X86155107Y-88921859D01*
X85896616Y-88535000D01*
X90436928Y-88535000D01*
X90440000Y-89249250D01*
X90598750Y-89408000D01*
X91948000Y-89408000D01*
X91948000Y-88058750D01*
X91789250Y-87900000D01*
X91075000Y-87896928D01*
X90950518Y-87909188D01*
X90830820Y-87945498D01*
X90720506Y-88004463D01*
X90623815Y-88083815D01*
X90544463Y-88180506D01*
X90485498Y-88290820D01*
X90449188Y-88410518D01*
X90436928Y-88535000D01*
X85896616Y-88535000D01*
X85866738Y-88490285D01*
X85499715Y-88123262D01*
X85068141Y-87834893D01*
X84588601Y-87636261D01*
X84079525Y-87535000D01*
X83560475Y-87535000D01*
X83051399Y-87636261D01*
X82571859Y-87834893D01*
X82140285Y-88123262D01*
X81773262Y-88490285D01*
X81484893Y-88921859D01*
X81286261Y-89401399D01*
X81185000Y-89910475D01*
X81185000Y-90429525D01*
X81286261Y-90938601D01*
X81484893Y-91418141D01*
X81773262Y-91849715D01*
X82140285Y-92216738D01*
X82571859Y-92505107D01*
X82873353Y-92629990D01*
X80535790Y-92629990D01*
X79406909Y-91501110D01*
X79443411Y-91485990D01*
X79686632Y-91323475D01*
X79893475Y-91116632D01*
X80055990Y-90873411D01*
X80167932Y-90603158D01*
X80225000Y-90316260D01*
X80225000Y-90023740D01*
X80167932Y-89736842D01*
X80055990Y-89466589D01*
X79988110Y-89365000D01*
X80180883Y-89365000D01*
X80516081Y-89298325D01*
X80831831Y-89167537D01*
X81115998Y-88977663D01*
X81357663Y-88735998D01*
X81547537Y-88451831D01*
X81678325Y-88136081D01*
X81745000Y-87800883D01*
X81745000Y-87459117D01*
X81678325Y-87123919D01*
X81547537Y-86808169D01*
X81357663Y-86524002D01*
X81115998Y-86282337D01*
X80831831Y-86092463D01*
X80516081Y-85961675D01*
X80180883Y-85895000D01*
X79839117Y-85895000D01*
X79503919Y-85961675D01*
X79188169Y-86092463D01*
X78904002Y-86282337D01*
X78662337Y-86524002D01*
X78472463Y-86808169D01*
X78341675Y-87123919D01*
X78324999Y-87207755D01*
X78324999Y-86492324D01*
X78328675Y-86454999D01*
X78324999Y-86417674D01*
X78324999Y-86417666D01*
X78314002Y-86306013D01*
X78270545Y-86162752D01*
X78199973Y-86030723D01*
X78105000Y-85914998D01*
X78076003Y-85891201D01*
X76965708Y-84780906D01*
X76979236Y-84736309D01*
X77006943Y-84455000D01*
X76979236Y-84173691D01*
X76909864Y-83945000D01*
X85051339Y-83945000D01*
X85012337Y-83984002D01*
X84822463Y-84268169D01*
X84691675Y-84583919D01*
X84625000Y-84919117D01*
X84625000Y-85260883D01*
X84691675Y-85596081D01*
X84822463Y-85911831D01*
X85012337Y-86195998D01*
X85254002Y-86437663D01*
X85538169Y-86627537D01*
X85853919Y-86758325D01*
X86189117Y-86825000D01*
X86530883Y-86825000D01*
X86866081Y-86758325D01*
X87181831Y-86627537D01*
X87465998Y-86437663D01*
X87707663Y-86195998D01*
X87897537Y-85911831D01*
X87923148Y-85850000D01*
X91216445Y-85850000D01*
X91446285Y-85972852D01*
X91754484Y-86066343D01*
X91994678Y-86090000D01*
X92155322Y-86090000D01*
X92395516Y-86066343D01*
X92703715Y-85972852D01*
X92712000Y-85968423D01*
X92712001Y-87898489D01*
X92360750Y-87900000D01*
X92202000Y-88058750D01*
X92202000Y-89408000D01*
X92222000Y-89408000D01*
X92222000Y-89662000D01*
X92202000Y-89662000D01*
X92202000Y-91011250D01*
X92360750Y-91170000D01*
X93075000Y-91173072D01*
X93199482Y-91160812D01*
X93319180Y-91124502D01*
X93429494Y-91065537D01*
X93526185Y-90986185D01*
X93605537Y-90889494D01*
X93664502Y-90779180D01*
X93700812Y-90659482D01*
X93713072Y-90535000D01*
X93710000Y-89820750D01*
X93551252Y-89662002D01*
X93667201Y-89662002D01*
X95056424Y-91051225D01*
X95008700Y-91291150D01*
X95008700Y-91588850D01*
X95066778Y-91880830D01*
X95180703Y-92155869D01*
X95346096Y-92403398D01*
X95556602Y-92613904D01*
X95804131Y-92779297D01*
X96079170Y-92893222D01*
X96371150Y-92951300D01*
X96668850Y-92951300D01*
X96960830Y-92893222D01*
X97235869Y-92779297D01*
X97483398Y-92613904D01*
X97693904Y-92403398D01*
X97859297Y-92155869D01*
X97973222Y-91880830D01*
X98031300Y-91588850D01*
X98031300Y-91507491D01*
X110242887Y-91507491D01*
X110285204Y-91802167D01*
X110384198Y-92082927D01*
X110461071Y-92226746D01*
X110712831Y-92307563D01*
X111580395Y-91440000D01*
X110712831Y-90572437D01*
X110461071Y-90653254D01*
X110332543Y-90921779D01*
X110258871Y-91210219D01*
X110242887Y-91507491D01*
X98031300Y-91507491D01*
X98031300Y-91291150D01*
X97973222Y-90999170D01*
X97859297Y-90724131D01*
X97693904Y-90476602D01*
X97483398Y-90266096D01*
X97339580Y-90170000D01*
X97483398Y-90073904D01*
X97693904Y-89863398D01*
X97859297Y-89615869D01*
X97973222Y-89340830D01*
X98031300Y-89048850D01*
X98031300Y-88751150D01*
X97973222Y-88459170D01*
X97859297Y-88184131D01*
X97693904Y-87936602D01*
X97483398Y-87726096D01*
X97339580Y-87630000D01*
X97483398Y-87533904D01*
X97693904Y-87323398D01*
X97859297Y-87075869D01*
X97973222Y-86800830D01*
X98031300Y-86508850D01*
X98031300Y-86211150D01*
X97973222Y-85919170D01*
X97859297Y-85644131D01*
X97693904Y-85396602D01*
X97483398Y-85186096D01*
X97339580Y-85090000D01*
X97483398Y-84993904D01*
X97693904Y-84783398D01*
X97859297Y-84535869D01*
X97973222Y-84260830D01*
X98031300Y-83968850D01*
X98031300Y-83671150D01*
X97973222Y-83379170D01*
X97859297Y-83104131D01*
X97693904Y-82856602D01*
X97483398Y-82646096D01*
X97339580Y-82550000D01*
X97483398Y-82453904D01*
X97693904Y-82243398D01*
X97859297Y-81995869D01*
X97973222Y-81720830D01*
X98031300Y-81428850D01*
X98031300Y-81407000D01*
X103192199Y-81407000D01*
X110296424Y-88511226D01*
X110296424Y-88511226D01*
G37*
X110296424Y-88511226D02*
X110248700Y-88751150D01*
X110248700Y-89048850D01*
X110306778Y-89340830D01*
X110420703Y-89615869D01*
X110586096Y-89863398D01*
X110796602Y-90073904D01*
X110959809Y-90182955D01*
X110892437Y-90392831D01*
X111760000Y-91260395D01*
X111774142Y-91246252D01*
X111953748Y-91425858D01*
X111939605Y-91440000D01*
X111953748Y-91454143D01*
X111774142Y-91633748D01*
X111760000Y-91619605D01*
X110892437Y-92487169D01*
X110973254Y-92738929D01*
X111241779Y-92867457D01*
X111530219Y-92941129D01*
X111827491Y-92957113D01*
X112122167Y-92914796D01*
X112201301Y-92886894D01*
X112201301Y-93890992D01*
X110278239Y-95814055D01*
X110189171Y-95647421D01*
X110044212Y-95470788D01*
X109867578Y-95325829D01*
X109666059Y-95218115D01*
X109447399Y-95151785D01*
X109220000Y-95129388D01*
X108992600Y-95151785D01*
X108773940Y-95218115D01*
X108585331Y-95318929D01*
X108526882Y-95277725D01*
X108317337Y-95184728D01*
X108255810Y-95176036D01*
X108077000Y-95301837D01*
X108077000Y-96066892D01*
X108076785Y-96067601D01*
X108060000Y-96238022D01*
X108060000Y-96667000D01*
X107843072Y-96667000D01*
X107843072Y-95770000D01*
X107830812Y-95645518D01*
X107823000Y-95619765D01*
X107823000Y-95301837D01*
X107644190Y-95176036D01*
X107582663Y-95184728D01*
X107514057Y-95215176D01*
X107449180Y-95180498D01*
X107329482Y-95144188D01*
X107205000Y-95131928D01*
X106155000Y-95131928D01*
X106030518Y-95144188D01*
X105910820Y-95180498D01*
X105800506Y-95239463D01*
X105703815Y-95318815D01*
X105624463Y-95415506D01*
X105565498Y-95525820D01*
X105529188Y-95645518D01*
X105516928Y-95770000D01*
X105516928Y-96835010D01*
X102756747Y-96835010D01*
X102760000Y-96801978D01*
X102760000Y-96238021D01*
X102743215Y-96067600D01*
X102676885Y-95848940D01*
X102569171Y-95647421D01*
X102424212Y-95470788D01*
X102247578Y-95325829D01*
X102046059Y-95218115D01*
X101827399Y-95151785D01*
X101600000Y-95129388D01*
X101372600Y-95151785D01*
X101153940Y-95218115D01*
X100965000Y-95319106D01*
X100776059Y-95218115D01*
X100557399Y-95151785D01*
X100330000Y-95129388D01*
X100102600Y-95151785D01*
X99893902Y-95215093D01*
X99829180Y-95180498D01*
X99709482Y-95144188D01*
X99585000Y-95131928D01*
X98535000Y-95131928D01*
X98410518Y-95144188D01*
X98290820Y-95180498D01*
X98180506Y-95239463D01*
X98083815Y-95318815D01*
X98004463Y-95415506D01*
X97945498Y-95525820D01*
X97909188Y-95645518D01*
X97896928Y-95770000D01*
X97896928Y-97270000D01*
X97909188Y-97394482D01*
X97945498Y-97514180D01*
X98004463Y-97624494D01*
X98083815Y-97721185D01*
X98180506Y-97800537D01*
X98290820Y-97859502D01*
X98410518Y-97895812D01*
X98535000Y-97908072D01*
X99585000Y-97908072D01*
X99709482Y-97895812D01*
X99829180Y-97859502D01*
X99893902Y-97824907D01*
X100102601Y-97888215D01*
X100330000Y-97910612D01*
X100412668Y-97902470D01*
X100616211Y-98106013D01*
X100640009Y-98135011D01*
X100755734Y-98229984D01*
X100887763Y-98300556D01*
X101031024Y-98344013D01*
X101142677Y-98355010D01*
X101142685Y-98355010D01*
X101180010Y-98358686D01*
X101217335Y-98355010D01*
X109534763Y-98355010D01*
X109572085Y-98358686D01*
X109609407Y-98355010D01*
X109609418Y-98355010D01*
X109721071Y-98344013D01*
X109864332Y-98300556D01*
X109996361Y-98229984D01*
X110112086Y-98135011D01*
X110135889Y-98106007D01*
X113472305Y-94769592D01*
X113501302Y-94745795D01*
X113596275Y-94630070D01*
X113640000Y-94548267D01*
X113640000Y-99027721D01*
X113625278Y-99177869D01*
X113591047Y-99291246D01*
X113535446Y-99395817D01*
X113460594Y-99487595D01*
X113369335Y-99563091D01*
X113265160Y-99619419D01*
X113152024Y-99654440D01*
X113003979Y-99670000D01*
X36862279Y-99670000D01*
X36712131Y-99655278D01*
X36598754Y-99621047D01*
X36494183Y-99565446D01*
X36402405Y-99490594D01*
X36326909Y-99399335D01*
X36270581Y-99295160D01*
X36235560Y-99182024D01*
X36220000Y-99033979D01*
X36220000Y-95329914D01*
X36266068Y-95416101D01*
X36445392Y-95634608D01*
X36663899Y-95813932D01*
X36913192Y-95947182D01*
X37183691Y-96029236D01*
X37394508Y-96050000D01*
X37535492Y-96050000D01*
X37746309Y-96029236D01*
X37790906Y-96015708D01*
X38126211Y-96351013D01*
X38150009Y-96380011D01*
X38265734Y-96474984D01*
X38397763Y-96545556D01*
X38541024Y-96589013D01*
X38652677Y-96600010D01*
X38652685Y-96600010D01*
X38690010Y-96603686D01*
X38727335Y-96600010D01*
X46727668Y-96600010D01*
X46764990Y-96603686D01*
X46802312Y-96600010D01*
X46802323Y-96600010D01*
X46913976Y-96589013D01*
X47057237Y-96545556D01*
X47189266Y-96474984D01*
X47304991Y-96380011D01*
X47328793Y-96351008D01*
X47533183Y-96146618D01*
X47625000Y-96155661D01*
X47854360Y-96133071D01*
X48074906Y-96066169D01*
X48278162Y-95957526D01*
X48456318Y-95811318D01*
X48602526Y-95633162D01*
X48711169Y-95429906D01*
X48778071Y-95209359D01*
X48795000Y-95037476D01*
X48795000Y-94192523D01*
X48778071Y-94020640D01*
X48711169Y-93800094D01*
X48602526Y-93596838D01*
X48456318Y-93418682D01*
X48278161Y-93272474D01*
X48074905Y-93163831D01*
X47854359Y-93096929D01*
X47625000Y-93074339D01*
X47395640Y-93096929D01*
X47175094Y-93163831D01*
X46990000Y-93262766D01*
X46804905Y-93163831D01*
X46584359Y-93096929D01*
X46355000Y-93074339D01*
X46263183Y-93083382D01*
X46058793Y-92878992D01*
X46034991Y-92849989D01*
X45980046Y-92804896D01*
X46488601Y-92703739D01*
X46968141Y-92505107D01*
X47399715Y-92216738D01*
X47766738Y-91849715D01*
X48055107Y-91418141D01*
X48253739Y-90938601D01*
X48355000Y-90429525D01*
X48355000Y-90023740D01*
X49315000Y-90023740D01*
X49315000Y-90316260D01*
X49372068Y-90603158D01*
X49484010Y-90873411D01*
X49646525Y-91116632D01*
X49853368Y-91323475D01*
X50096589Y-91485990D01*
X50366842Y-91597932D01*
X50653740Y-91655000D01*
X50946260Y-91655000D01*
X51233158Y-91597932D01*
X51503411Y-91485990D01*
X51746632Y-91323475D01*
X51953475Y-91116632D01*
X52115990Y-90873411D01*
X52227932Y-90603158D01*
X52241489Y-90535000D01*
X52336928Y-90535000D01*
X52349188Y-90659482D01*
X52385498Y-90779180D01*
X52444463Y-90889494D01*
X52523815Y-90986185D01*
X52620506Y-91065537D01*
X52730820Y-91124502D01*
X52850518Y-91160812D01*
X52975000Y-91173072D01*
X53689250Y-91170000D01*
X53848000Y-91011250D01*
X53848000Y-89662000D01*
X54102000Y-89662000D01*
X54102000Y-91011250D01*
X54260750Y-91170000D01*
X54975000Y-91173072D01*
X55099482Y-91160812D01*
X55219180Y-91124502D01*
X55329494Y-91065537D01*
X55426185Y-90986185D01*
X55505537Y-90889494D01*
X55564502Y-90779180D01*
X55600812Y-90659482D01*
X55613072Y-90535000D01*
X55610000Y-89820750D01*
X55451250Y-89662000D01*
X54102000Y-89662000D01*
X53848000Y-89662000D01*
X52498750Y-89662000D01*
X52340000Y-89820750D01*
X52336928Y-90535000D01*
X52241489Y-90535000D01*
X52285000Y-90316260D01*
X52285000Y-90023740D01*
X52227932Y-89736842D01*
X52115990Y-89466589D01*
X51953475Y-89223368D01*
X51746632Y-89016525D01*
X51503411Y-88854010D01*
X51233158Y-88742068D01*
X50946260Y-88685000D01*
X50653740Y-88685000D01*
X50366842Y-88742068D01*
X50096589Y-88854010D01*
X49853368Y-89016525D01*
X49646525Y-89223368D01*
X49484010Y-89466589D01*
X49372068Y-89736842D01*
X49315000Y-90023740D01*
X48355000Y-90023740D01*
X48355000Y-89910475D01*
X48253739Y-89401399D01*
X48055107Y-88921859D01*
X47796616Y-88535000D01*
X52336928Y-88535000D01*
X52340000Y-89249250D01*
X52498750Y-89408000D01*
X53848000Y-89408000D01*
X53848000Y-88058750D01*
X54102000Y-88058750D01*
X54102000Y-89408000D01*
X55451250Y-89408000D01*
X55610000Y-89249250D01*
X55613072Y-88535000D01*
X55600812Y-88410518D01*
X55564502Y-88290820D01*
X55505537Y-88180506D01*
X55426185Y-88083815D01*
X55329494Y-88004463D01*
X55219180Y-87945498D01*
X55099482Y-87909188D01*
X54975000Y-87896928D01*
X54260750Y-87900000D01*
X54102000Y-88058750D01*
X53848000Y-88058750D01*
X53689250Y-87900000D01*
X52975000Y-87896928D01*
X52850518Y-87909188D01*
X52730820Y-87945498D01*
X52620506Y-88004463D01*
X52523815Y-88083815D01*
X52444463Y-88180506D01*
X52385498Y-88290820D01*
X52349188Y-88410518D01*
X52336928Y-88535000D01*
X47796616Y-88535000D01*
X47766738Y-88490285D01*
X47399715Y-88123262D01*
X46968141Y-87834893D01*
X46488601Y-87636261D01*
X45979525Y-87535000D01*
X45460475Y-87535000D01*
X44951399Y-87636261D01*
X44471859Y-87834893D01*
X44040285Y-88123262D01*
X43673262Y-88490285D01*
X43384893Y-88921859D01*
X43186261Y-89401399D01*
X43085000Y-89910475D01*
X43085000Y-90429525D01*
X43186261Y-90938601D01*
X43384893Y-91418141D01*
X43673262Y-91849715D01*
X44040285Y-92216738D01*
X44471859Y-92505107D01*
X44773353Y-92629990D01*
X42435790Y-92629990D01*
X41306909Y-91501110D01*
X41343411Y-91485990D01*
X41586632Y-91323475D01*
X41793475Y-91116632D01*
X41955990Y-90873411D01*
X42067932Y-90603158D01*
X42125000Y-90316260D01*
X42125000Y-90023740D01*
X42067932Y-89736842D01*
X41955990Y-89466589D01*
X41888110Y-89365000D01*
X42080883Y-89365000D01*
X42416081Y-89298325D01*
X42731831Y-89167537D01*
X43015998Y-88977663D01*
X43257663Y-88735998D01*
X43447537Y-88451831D01*
X43578325Y-88136081D01*
X43645000Y-87800883D01*
X43645000Y-87459117D01*
X43578325Y-87123919D01*
X43552714Y-87062088D01*
X47939802Y-82675000D01*
X55315199Y-82675000D01*
X54895155Y-83095044D01*
X54887752Y-83088969D01*
X54603715Y-82937148D01*
X54295516Y-82843657D01*
X54055322Y-82820000D01*
X53894678Y-82820000D01*
X53654484Y-82843657D01*
X53346285Y-82937148D01*
X53062248Y-83088969D01*
X52813286Y-83293286D01*
X52608969Y-83542248D01*
X52457148Y-83826285D01*
X52363657Y-84134484D01*
X52344400Y-84330000D01*
X49823148Y-84330000D01*
X49797537Y-84268169D01*
X49607663Y-83984002D01*
X49365998Y-83742337D01*
X49081831Y-83552463D01*
X48766081Y-83421675D01*
X48430883Y-83355000D01*
X48089117Y-83355000D01*
X47753919Y-83421675D01*
X47438169Y-83552463D01*
X47154002Y-83742337D01*
X46912337Y-83984002D01*
X46722463Y-84268169D01*
X46591675Y-84583919D01*
X46525000Y-84919117D01*
X46525000Y-85260883D01*
X46591675Y-85596081D01*
X46722463Y-85911831D01*
X46912337Y-86195998D01*
X47154002Y-86437663D01*
X47438169Y-86627537D01*
X47753919Y-86758325D01*
X48089117Y-86825000D01*
X48430883Y-86825000D01*
X48766081Y-86758325D01*
X49081831Y-86627537D01*
X49365998Y-86437663D01*
X49607663Y-86195998D01*
X49797537Y-85911831D01*
X49823148Y-85850000D01*
X53116445Y-85850000D01*
X53346285Y-85972852D01*
X53654484Y-86066343D01*
X53894678Y-86090000D01*
X54055322Y-86090000D01*
X54295516Y-86066343D01*
X54603715Y-85972852D01*
X54887752Y-85821031D01*
X55026973Y-85706776D01*
X55400400Y-86080204D01*
X55400363Y-86080241D01*
X55243320Y-86315273D01*
X55135147Y-86576426D01*
X55080000Y-86853665D01*
X55080000Y-87136335D01*
X55135147Y-87413574D01*
X55243320Y-87674727D01*
X55400363Y-87909759D01*
X55600241Y-88109637D01*
X55835273Y-88266680D01*
X56096426Y-88374853D01*
X56373665Y-88430000D01*
X56656335Y-88430000D01*
X56933574Y-88374853D01*
X57194727Y-88266680D01*
X57429759Y-88109637D01*
X57629637Y-87909759D01*
X57660000Y-87864317D01*
X57660001Y-90601670D01*
X57656324Y-90639002D01*
X57660001Y-90676335D01*
X57670131Y-90779180D01*
X57670998Y-90787987D01*
X57714454Y-90931248D01*
X57785026Y-91063278D01*
X57828813Y-91116632D01*
X57880000Y-91179003D01*
X57908998Y-91202801D01*
X60607188Y-93900992D01*
X60630987Y-93929991D01*
X60659985Y-93953789D01*
X60746712Y-94024964D01*
X60878741Y-94095536D01*
X61022002Y-94138993D01*
X61170988Y-94153667D01*
X61208321Y-94149990D01*
X61691928Y-94149990D01*
X61691928Y-95080010D01*
X58054812Y-95080010D01*
X57915708Y-94940906D01*
X57929236Y-94896309D01*
X57956943Y-94615000D01*
X57929236Y-94333691D01*
X57847182Y-94063192D01*
X57713932Y-93813899D01*
X57534608Y-93595392D01*
X57316101Y-93416068D01*
X57066808Y-93282818D01*
X56796309Y-93200764D01*
X56585492Y-93180000D01*
X56444508Y-93180000D01*
X56233691Y-93200764D01*
X55963192Y-93282818D01*
X55713899Y-93416068D01*
X55495392Y-93595392D01*
X55316068Y-93813899D01*
X55182818Y-94063192D01*
X55100764Y-94333691D01*
X55073057Y-94615000D01*
X55100764Y-94896309D01*
X55182818Y-95166808D01*
X55316068Y-95416101D01*
X55495392Y-95634608D01*
X55713899Y-95813932D01*
X55963192Y-95947182D01*
X56233691Y-96029236D01*
X56444508Y-96050000D01*
X56585492Y-96050000D01*
X56796309Y-96029236D01*
X56840906Y-96015708D01*
X57176211Y-96351013D01*
X57200009Y-96380011D01*
X57315734Y-96474984D01*
X57447763Y-96545556D01*
X57591024Y-96589013D01*
X57702677Y-96600010D01*
X57702685Y-96600010D01*
X57740010Y-96603686D01*
X57777335Y-96600010D01*
X65777668Y-96600010D01*
X65814990Y-96603686D01*
X65852312Y-96600010D01*
X65852323Y-96600010D01*
X65963976Y-96589013D01*
X66107237Y-96545556D01*
X66239266Y-96474984D01*
X66354991Y-96380011D01*
X66378793Y-96351008D01*
X66583183Y-96146618D01*
X66675000Y-96155661D01*
X66904360Y-96133071D01*
X67124906Y-96066169D01*
X67328162Y-95957526D01*
X67506318Y-95811318D01*
X67652526Y-95633162D01*
X67761169Y-95429906D01*
X67828071Y-95209359D01*
X67845000Y-95037476D01*
X67845000Y-94192523D01*
X67828071Y-94020640D01*
X67761169Y-93800094D01*
X67652526Y-93596838D01*
X67506318Y-93418682D01*
X67328161Y-93272474D01*
X67124905Y-93163831D01*
X66904359Y-93096929D01*
X66675000Y-93074339D01*
X66445640Y-93096929D01*
X66225094Y-93163831D01*
X66040000Y-93262766D01*
X65854905Y-93163831D01*
X65634359Y-93096929D01*
X65405000Y-93074339D01*
X65313183Y-93083382D01*
X65108793Y-92878992D01*
X65084991Y-92849989D01*
X65030046Y-92804896D01*
X65538601Y-92703739D01*
X66018141Y-92505107D01*
X66449715Y-92216738D01*
X66816738Y-91849715D01*
X67105107Y-91418141D01*
X67303739Y-90938601D01*
X67405000Y-90429525D01*
X67405000Y-90023740D01*
X68365000Y-90023740D01*
X68365000Y-90316260D01*
X68422068Y-90603158D01*
X68534010Y-90873411D01*
X68696525Y-91116632D01*
X68903368Y-91323475D01*
X69146589Y-91485990D01*
X69416842Y-91597932D01*
X69703740Y-91655000D01*
X69996260Y-91655000D01*
X70283158Y-91597932D01*
X70553411Y-91485990D01*
X70796632Y-91323475D01*
X71003475Y-91116632D01*
X71165990Y-90873411D01*
X71277932Y-90603158D01*
X71291489Y-90535000D01*
X71386928Y-90535000D01*
X71399188Y-90659482D01*
X71435498Y-90779180D01*
X71494463Y-90889494D01*
X71573815Y-90986185D01*
X71670506Y-91065537D01*
X71780820Y-91124502D01*
X71900518Y-91160812D01*
X72025000Y-91173072D01*
X72739250Y-91170000D01*
X72898000Y-91011250D01*
X72898000Y-89662000D01*
X73152000Y-89662000D01*
X73152000Y-91011250D01*
X73310750Y-91170000D01*
X74025000Y-91173072D01*
X74149482Y-91160812D01*
X74269180Y-91124502D01*
X74379494Y-91065537D01*
X74476185Y-90986185D01*
X74555537Y-90889494D01*
X74614502Y-90779180D01*
X74650812Y-90659482D01*
X74663072Y-90535000D01*
X74660000Y-89820750D01*
X74501250Y-89662000D01*
X73152000Y-89662000D01*
X72898000Y-89662000D01*
X71548750Y-89662000D01*
X71390000Y-89820750D01*
X71386928Y-90535000D01*
X71291489Y-90535000D01*
X71335000Y-90316260D01*
X71335000Y-90023740D01*
X71277932Y-89736842D01*
X71165990Y-89466589D01*
X71003475Y-89223368D01*
X70796632Y-89016525D01*
X70553411Y-88854010D01*
X70283158Y-88742068D01*
X69996260Y-88685000D01*
X69703740Y-88685000D01*
X69416842Y-88742068D01*
X69146589Y-88854010D01*
X68903368Y-89016525D01*
X68696525Y-89223368D01*
X68534010Y-89466589D01*
X68422068Y-89736842D01*
X68365000Y-90023740D01*
X67405000Y-90023740D01*
X67405000Y-89910475D01*
X67303739Y-89401399D01*
X67105107Y-88921859D01*
X66846616Y-88535000D01*
X71386928Y-88535000D01*
X71390000Y-89249250D01*
X71548750Y-89408000D01*
X72898000Y-89408000D01*
X72898000Y-88058750D01*
X73152000Y-88058750D01*
X73152000Y-89408000D01*
X74501250Y-89408000D01*
X74660000Y-89249250D01*
X74663072Y-88535000D01*
X74650812Y-88410518D01*
X74614502Y-88290820D01*
X74555537Y-88180506D01*
X74476185Y-88083815D01*
X74379494Y-88004463D01*
X74269180Y-87945498D01*
X74149482Y-87909188D01*
X74025000Y-87896928D01*
X73310750Y-87900000D01*
X73152000Y-88058750D01*
X72898000Y-88058750D01*
X72739250Y-87900000D01*
X72025000Y-87896928D01*
X71900518Y-87909188D01*
X71780820Y-87945498D01*
X71670506Y-88004463D01*
X71573815Y-88083815D01*
X71494463Y-88180506D01*
X71435498Y-88290820D01*
X71399188Y-88410518D01*
X71386928Y-88535000D01*
X66846616Y-88535000D01*
X66816738Y-88490285D01*
X66449715Y-88123262D01*
X66018141Y-87834893D01*
X65538601Y-87636261D01*
X65029525Y-87535000D01*
X64510475Y-87535000D01*
X64001399Y-87636261D01*
X63521859Y-87834893D01*
X63090285Y-88123262D01*
X62723262Y-88490285D01*
X62434893Y-88921859D01*
X62236261Y-89401399D01*
X62135000Y-89910475D01*
X62135000Y-90429525D01*
X62236261Y-90938601D01*
X62434893Y-91418141D01*
X62723262Y-91849715D01*
X63090285Y-92216738D01*
X63521859Y-92505107D01*
X63823353Y-92629990D01*
X61485790Y-92629990D01*
X60356909Y-91501110D01*
X60393411Y-91485990D01*
X60636632Y-91323475D01*
X60843475Y-91116632D01*
X61005990Y-90873411D01*
X61117932Y-90603158D01*
X61175000Y-90316260D01*
X61175000Y-90023740D01*
X61117932Y-89736842D01*
X61005990Y-89466589D01*
X60938110Y-89365000D01*
X61130883Y-89365000D01*
X61466081Y-89298325D01*
X61781831Y-89167537D01*
X62065998Y-88977663D01*
X62307663Y-88735998D01*
X62497537Y-88451831D01*
X62628325Y-88136081D01*
X62695000Y-87800883D01*
X62695000Y-87459117D01*
X62628325Y-87123919D01*
X62497537Y-86808169D01*
X62307663Y-86524002D01*
X62065998Y-86282337D01*
X61781831Y-86092463D01*
X61466081Y-85961675D01*
X61130883Y-85895000D01*
X60789117Y-85895000D01*
X60453919Y-85961675D01*
X60138169Y-86092463D01*
X59854002Y-86282337D01*
X59612337Y-86524002D01*
X59422463Y-86808169D01*
X59291675Y-87123919D01*
X59225000Y-87459117D01*
X59225000Y-87800883D01*
X59291675Y-88136081D01*
X59422463Y-88451831D01*
X59578261Y-88685000D01*
X59543740Y-88685000D01*
X59256842Y-88742068D01*
X59180000Y-88773897D01*
X59180000Y-86397323D01*
X59183676Y-86360000D01*
X59180000Y-86322677D01*
X59180000Y-86322667D01*
X59169003Y-86211014D01*
X59125546Y-86067753D01*
X59054974Y-85935724D01*
X58960001Y-85819999D01*
X58931004Y-85796202D01*
X57915708Y-84780906D01*
X57929236Y-84736309D01*
X57956943Y-84455000D01*
X57929236Y-84173691D01*
X57847182Y-83903192D01*
X57713932Y-83653899D01*
X57534608Y-83435392D01*
X57381817Y-83310000D01*
X71849569Y-83310000D01*
X71658969Y-83542248D01*
X71507148Y-83826285D01*
X71413657Y-84134484D01*
X71394400Y-84330000D01*
X68873148Y-84330000D01*
X68847537Y-84268169D01*
X68657663Y-83984002D01*
X68415998Y-83742337D01*
X68131831Y-83552463D01*
X67816081Y-83421675D01*
X67480883Y-83355000D01*
X67139117Y-83355000D01*
X66803919Y-83421675D01*
X66488169Y-83552463D01*
X66204002Y-83742337D01*
X65962337Y-83984002D01*
X65772463Y-84268169D01*
X65641675Y-84583919D01*
X65575000Y-84919117D01*
X65575000Y-85260883D01*
X65641675Y-85596081D01*
X65772463Y-85911831D01*
X65962337Y-86195998D01*
X66204002Y-86437663D01*
X66488169Y-86627537D01*
X66803919Y-86758325D01*
X67139117Y-86825000D01*
X67480883Y-86825000D01*
X67816081Y-86758325D01*
X68131831Y-86627537D01*
X68415998Y-86437663D01*
X68657663Y-86195998D01*
X68847537Y-85911831D01*
X68873148Y-85850000D01*
X72166445Y-85850000D01*
X72396285Y-85972852D01*
X72704484Y-86066343D01*
X72944678Y-86090000D01*
X73105322Y-86090000D01*
X73345516Y-86066343D01*
X73653715Y-85972852D01*
X73937752Y-85821031D01*
X74076973Y-85706776D01*
X74450400Y-86080204D01*
X74450363Y-86080241D01*
X74293320Y-86315273D01*
X74185147Y-86576426D01*
X74130000Y-86853665D01*
X74130000Y-87136335D01*
X74185147Y-87413574D01*
X74293320Y-87674727D01*
X74450363Y-87909759D01*
X74650241Y-88109637D01*
X74885273Y-88266680D01*
X75146426Y-88374853D01*
X75423665Y-88430000D01*
X75706335Y-88430000D01*
X75983574Y-88374853D01*
X76244727Y-88266680D01*
X76479759Y-88109637D01*
X76679637Y-87909759D01*
X76804999Y-87722141D01*
X76805000Y-90696669D01*
X76801323Y-90734001D01*
X76815997Y-90882986D01*
X76859453Y-91026247D01*
X76930025Y-91158277D01*
X77001200Y-91245003D01*
X77024999Y-91274002D01*
X77053997Y-91297800D01*
X79657188Y-93900992D01*
X79680987Y-93929991D01*
X79796712Y-94024964D01*
X79928741Y-94095536D01*
X80072002Y-94138993D01*
X80183655Y-94149990D01*
X80183663Y-94149990D01*
X80220988Y-94153666D01*
X80258313Y-94149990D01*
X80741928Y-94149990D01*
X80741928Y-95080010D01*
X77104812Y-95080010D01*
X76965708Y-94940906D01*
X76979236Y-94896309D01*
X77006943Y-94615000D01*
X76979236Y-94333691D01*
X76897182Y-94063192D01*
X76763932Y-93813899D01*
X76584608Y-93595392D01*
X76366101Y-93416068D01*
X76116808Y-93282818D01*
X75846309Y-93200764D01*
X75635492Y-93180000D01*
X75494508Y-93180000D01*
X75283691Y-93200764D01*
X75013192Y-93282818D01*
X74763899Y-93416068D01*
X74545392Y-93595392D01*
X74366068Y-93813899D01*
X74232818Y-94063192D01*
X74150764Y-94333691D01*
X74123057Y-94615000D01*
X74150764Y-94896309D01*
X74232818Y-95166808D01*
X74366068Y-95416101D01*
X74545392Y-95634608D01*
X74763899Y-95813932D01*
X75013192Y-95947182D01*
X75283691Y-96029236D01*
X75494508Y-96050000D01*
X75635492Y-96050000D01*
X75846309Y-96029236D01*
X75890906Y-96015708D01*
X76226211Y-96351013D01*
X76250009Y-96380011D01*
X76365734Y-96474984D01*
X76497763Y-96545556D01*
X76641024Y-96589013D01*
X76752677Y-96600010D01*
X76752685Y-96600010D01*
X76790010Y-96603686D01*
X76827335Y-96600010D01*
X84827668Y-96600010D01*
X84864990Y-96603686D01*
X84902312Y-96600010D01*
X84902323Y-96600010D01*
X85013976Y-96589013D01*
X85157237Y-96545556D01*
X85289266Y-96474984D01*
X85404991Y-96380011D01*
X85428793Y-96351008D01*
X85633183Y-96146618D01*
X85725000Y-96155661D01*
X85954360Y-96133071D01*
X86174906Y-96066169D01*
X86378162Y-95957526D01*
X86556318Y-95811318D01*
X86702526Y-95633162D01*
X86811169Y-95429906D01*
X86878071Y-95209359D01*
X86895000Y-95037476D01*
X86895000Y-94192523D01*
X86878071Y-94020640D01*
X86811169Y-93800094D01*
X86702526Y-93596838D01*
X86556318Y-93418682D01*
X86378161Y-93272474D01*
X86174905Y-93163831D01*
X85954359Y-93096929D01*
X85725000Y-93074339D01*
X85495640Y-93096929D01*
X85275094Y-93163831D01*
X85090000Y-93262766D01*
X84904905Y-93163831D01*
X84684359Y-93096929D01*
X84455000Y-93074339D01*
X84363183Y-93083382D01*
X84158793Y-92878992D01*
X84134991Y-92849989D01*
X84080046Y-92804896D01*
X84588601Y-92703739D01*
X85068141Y-92505107D01*
X85499715Y-92216738D01*
X85866738Y-91849715D01*
X86155107Y-91418141D01*
X86353739Y-90938601D01*
X86455000Y-90429525D01*
X86455000Y-90023740D01*
X87415000Y-90023740D01*
X87415000Y-90316260D01*
X87472068Y-90603158D01*
X87584010Y-90873411D01*
X87746525Y-91116632D01*
X87953368Y-91323475D01*
X88196589Y-91485990D01*
X88466842Y-91597932D01*
X88753740Y-91655000D01*
X89046260Y-91655000D01*
X89333158Y-91597932D01*
X89603411Y-91485990D01*
X89846632Y-91323475D01*
X90053475Y-91116632D01*
X90215990Y-90873411D01*
X90327932Y-90603158D01*
X90341489Y-90535000D01*
X90436928Y-90535000D01*
X90449188Y-90659482D01*
X90485498Y-90779180D01*
X90544463Y-90889494D01*
X90623815Y-90986185D01*
X90720506Y-91065537D01*
X90830820Y-91124502D01*
X90950518Y-91160812D01*
X91075000Y-91173072D01*
X91789250Y-91170000D01*
X91948000Y-91011250D01*
X91948000Y-89662000D01*
X90598750Y-89662000D01*
X90440000Y-89820750D01*
X90436928Y-90535000D01*
X90341489Y-90535000D01*
X90385000Y-90316260D01*
X90385000Y-90023740D01*
X90327932Y-89736842D01*
X90215990Y-89466589D01*
X90053475Y-89223368D01*
X89846632Y-89016525D01*
X89603411Y-88854010D01*
X89333158Y-88742068D01*
X89046260Y-88685000D01*
X88753740Y-88685000D01*
X88466842Y-88742068D01*
X88196589Y-88854010D01*
X87953368Y-89016525D01*
X87746525Y-89223368D01*
X87584010Y-89466589D01*
X87472068Y-89736842D01*
X87415000Y-90023740D01*
X86455000Y-90023740D01*
X86455000Y-89910475D01*
X86353739Y-89401399D01*
X86155107Y-88921859D01*
X85896616Y-88535000D01*
X90436928Y-88535000D01*
X90440000Y-89249250D01*
X90598750Y-89408000D01*
X91948000Y-89408000D01*
X91948000Y-88058750D01*
X91789250Y-87900000D01*
X91075000Y-87896928D01*
X90950518Y-87909188D01*
X90830820Y-87945498D01*
X90720506Y-88004463D01*
X90623815Y-88083815D01*
X90544463Y-88180506D01*
X90485498Y-88290820D01*
X90449188Y-88410518D01*
X90436928Y-88535000D01*
X85896616Y-88535000D01*
X85866738Y-88490285D01*
X85499715Y-88123262D01*
X85068141Y-87834893D01*
X84588601Y-87636261D01*
X84079525Y-87535000D01*
X83560475Y-87535000D01*
X83051399Y-87636261D01*
X82571859Y-87834893D01*
X82140285Y-88123262D01*
X81773262Y-88490285D01*
X81484893Y-88921859D01*
X81286261Y-89401399D01*
X81185000Y-89910475D01*
X81185000Y-90429525D01*
X81286261Y-90938601D01*
X81484893Y-91418141D01*
X81773262Y-91849715D01*
X82140285Y-92216738D01*
X82571859Y-92505107D01*
X82873353Y-92629990D01*
X80535790Y-92629990D01*
X79406909Y-91501110D01*
X79443411Y-91485990D01*
X79686632Y-91323475D01*
X79893475Y-91116632D01*
X80055990Y-90873411D01*
X80167932Y-90603158D01*
X80225000Y-90316260D01*
X80225000Y-90023740D01*
X80167932Y-89736842D01*
X80055990Y-89466589D01*
X79988110Y-89365000D01*
X80180883Y-89365000D01*
X80516081Y-89298325D01*
X80831831Y-89167537D01*
X81115998Y-88977663D01*
X81357663Y-88735998D01*
X81547537Y-88451831D01*
X81678325Y-88136081D01*
X81745000Y-87800883D01*
X81745000Y-87459117D01*
X81678325Y-87123919D01*
X81547537Y-86808169D01*
X81357663Y-86524002D01*
X81115998Y-86282337D01*
X80831831Y-86092463D01*
X80516081Y-85961675D01*
X80180883Y-85895000D01*
X79839117Y-85895000D01*
X79503919Y-85961675D01*
X79188169Y-86092463D01*
X78904002Y-86282337D01*
X78662337Y-86524002D01*
X78472463Y-86808169D01*
X78341675Y-87123919D01*
X78324999Y-87207755D01*
X78324999Y-86492324D01*
X78328675Y-86454999D01*
X78324999Y-86417674D01*
X78324999Y-86417666D01*
X78314002Y-86306013D01*
X78270545Y-86162752D01*
X78199973Y-86030723D01*
X78105000Y-85914998D01*
X78076003Y-85891201D01*
X76965708Y-84780906D01*
X76979236Y-84736309D01*
X77006943Y-84455000D01*
X76979236Y-84173691D01*
X76909864Y-83945000D01*
X85051339Y-83945000D01*
X85012337Y-83984002D01*
X84822463Y-84268169D01*
X84691675Y-84583919D01*
X84625000Y-84919117D01*
X84625000Y-85260883D01*
X84691675Y-85596081D01*
X84822463Y-85911831D01*
X85012337Y-86195998D01*
X85254002Y-86437663D01*
X85538169Y-86627537D01*
X85853919Y-86758325D01*
X86189117Y-86825000D01*
X86530883Y-86825000D01*
X86866081Y-86758325D01*
X87181831Y-86627537D01*
X87465998Y-86437663D01*
X87707663Y-86195998D01*
X87897537Y-85911831D01*
X87923148Y-85850000D01*
X91216445Y-85850000D01*
X91446285Y-85972852D01*
X91754484Y-86066343D01*
X91994678Y-86090000D01*
X92155322Y-86090000D01*
X92395516Y-86066343D01*
X92703715Y-85972852D01*
X92712000Y-85968423D01*
X92712001Y-87898489D01*
X92360750Y-87900000D01*
X92202000Y-88058750D01*
X92202000Y-89408000D01*
X92222000Y-89408000D01*
X92222000Y-89662000D01*
X92202000Y-89662000D01*
X92202000Y-91011250D01*
X92360750Y-91170000D01*
X93075000Y-91173072D01*
X93199482Y-91160812D01*
X93319180Y-91124502D01*
X93429494Y-91065537D01*
X93526185Y-90986185D01*
X93605537Y-90889494D01*
X93664502Y-90779180D01*
X93700812Y-90659482D01*
X93713072Y-90535000D01*
X93710000Y-89820750D01*
X93551252Y-89662002D01*
X93667201Y-89662002D01*
X95056424Y-91051225D01*
X95008700Y-91291150D01*
X95008700Y-91588850D01*
X95066778Y-91880830D01*
X95180703Y-92155869D01*
X95346096Y-92403398D01*
X95556602Y-92613904D01*
X95804131Y-92779297D01*
X96079170Y-92893222D01*
X96371150Y-92951300D01*
X96668850Y-92951300D01*
X96960830Y-92893222D01*
X97235869Y-92779297D01*
X97483398Y-92613904D01*
X97693904Y-92403398D01*
X97859297Y-92155869D01*
X97973222Y-91880830D01*
X98031300Y-91588850D01*
X98031300Y-91507491D01*
X110242887Y-91507491D01*
X110285204Y-91802167D01*
X110384198Y-92082927D01*
X110461071Y-92226746D01*
X110712831Y-92307563D01*
X111580395Y-91440000D01*
X110712831Y-90572437D01*
X110461071Y-90653254D01*
X110332543Y-90921779D01*
X110258871Y-91210219D01*
X110242887Y-91507491D01*
X98031300Y-91507491D01*
X98031300Y-91291150D01*
X97973222Y-90999170D01*
X97859297Y-90724131D01*
X97693904Y-90476602D01*
X97483398Y-90266096D01*
X97339580Y-90170000D01*
X97483398Y-90073904D01*
X97693904Y-89863398D01*
X97859297Y-89615869D01*
X97973222Y-89340830D01*
X98031300Y-89048850D01*
X98031300Y-88751150D01*
X97973222Y-88459170D01*
X97859297Y-88184131D01*
X97693904Y-87936602D01*
X97483398Y-87726096D01*
X97339580Y-87630000D01*
X97483398Y-87533904D01*
X97693904Y-87323398D01*
X97859297Y-87075869D01*
X97973222Y-86800830D01*
X98031300Y-86508850D01*
X98031300Y-86211150D01*
X97973222Y-85919170D01*
X97859297Y-85644131D01*
X97693904Y-85396602D01*
X97483398Y-85186096D01*
X97339580Y-85090000D01*
X97483398Y-84993904D01*
X97693904Y-84783398D01*
X97859297Y-84535869D01*
X97973222Y-84260830D01*
X98031300Y-83968850D01*
X98031300Y-83671150D01*
X97973222Y-83379170D01*
X97859297Y-83104131D01*
X97693904Y-82856602D01*
X97483398Y-82646096D01*
X97339580Y-82550000D01*
X97483398Y-82453904D01*
X97693904Y-82243398D01*
X97859297Y-81995869D01*
X97973222Y-81720830D01*
X98031300Y-81428850D01*
X98031300Y-81407000D01*
X103192199Y-81407000D01*
X110296424Y-88511226D01*
M02*
