M48
; DRILL file {KiCad (5.1.4)-1} date 31/10/2019 20:17:35
; FORMAT={-:-/ absolute / metric / decimal}
; #@! TF.CreationDate,2019-10-31T20:17:35+00:00
; #@! TF.GenerationSoftware,Kicad,Pcbnew,(5.1.4)-1
FMAT,2
METRIC
T1C0.750
T2C0.800
T3C0.900
T4C1.000
T5C1.092
T6C1.500
T7C1.700
T8C4.000
%
G90
G05
T1
X106.68Y-96.52
X107.95Y-96.52
X109.22Y-96.52
X99.06Y-96.52
X100.33Y-96.52
X101.6Y-96.52
T2
X75.565Y-86.995
X75.565Y-94.615
X37.465Y-86.995
X37.465Y-94.615
X75.565Y-66.675
X75.565Y-74.295
X37.465Y-76.835
X37.465Y-84.455
X37.465Y-66.675
X37.465Y-74.295
X56.515Y-76.835
X56.515Y-84.455
X75.565Y-76.835
X75.565Y-84.455
X56.515Y-66.675
X56.515Y-74.295
X56.515Y-86.995
X56.515Y-94.615
T3
X62.865Y-94.615
X64.135Y-94.615
X65.405Y-94.615
X66.675Y-94.615
X43.815Y-94.615
X45.085Y-94.615
X46.355Y-94.615
X47.625Y-94.615
X81.915Y-75.565
X83.185Y-75.565
X84.455Y-75.565
X85.725Y-75.565
X43.815Y-75.565
X45.085Y-75.565
X46.355Y-75.565
X47.625Y-75.565
X81.915Y-94.615
X83.185Y-94.615
X84.455Y-94.615
X85.725Y-94.615
X62.865Y-75.565
X64.135Y-75.565
X65.405Y-75.565
X66.675Y-75.565
T4
X92.075Y-65.405
X92.075Y-70.485
X92.075Y-84.455
X92.075Y-89.535
X53.975Y-84.455
X53.975Y-89.535
X53.975Y-65.405
X53.975Y-70.485
X73.025Y-84.455
X73.025Y-89.535
X73.025Y-65.405
X73.025Y-70.485
T5
X96.52Y-63.5
X96.52Y-66.04
X96.52Y-68.58
X96.52Y-71.12
X96.52Y-73.66
X96.52Y-76.2
X96.52Y-78.74
X96.52Y-81.28
X96.52Y-83.82
X96.52Y-86.36
X96.52Y-88.9
X96.52Y-91.44
X111.76Y-63.5
X111.76Y-66.04
X111.76Y-68.58
X111.76Y-71.12
X111.76Y-73.66
X111.76Y-76.2
X111.76Y-78.74
X111.76Y-81.28
X111.76Y-83.82
X111.76Y-86.36
X111.76Y-88.9
X111.76Y-91.44
T6
X60.96Y-68.58
X67.31Y-66.04
X41.91Y-87.63
X48.26Y-85.09
X41.91Y-68.58
X48.26Y-66.04
X60.96Y-87.63
X67.31Y-85.09
X80.01Y-87.63
X86.36Y-85.09
X80.01Y-68.58
X86.36Y-66.04
T7
X40.64Y-71.12
X50.8Y-71.12
X59.69Y-90.17
X69.85Y-90.17
X78.74Y-90.17
X88.9Y-90.17
X78.74Y-71.12
X88.9Y-71.12
X59.69Y-71.12
X69.85Y-71.12
X40.64Y-90.17
X50.8Y-90.17
T8
X64.77Y-90.17
X83.82Y-90.17
X45.72Y-90.17
X45.72Y-71.12
X83.82Y-71.12
X64.77Y-71.12
T0
M30
